<svg xmlns="http://www.w3.org/2000/svg" xmlns:xlink="http://www.w3.org/1999/xlink" width="82" height="80" viewBox="0 0 82 80">
  <defs>
    <style>
      .cls-1 {
        clip-path: url(#clip-after-effect);
      }

      .cls-2 {
        fill: #fff;
      }
    </style>
    <clipPath id="clip-after-effect">
      <rect width="82" height="80"/>
    </clipPath>
  </defs>
  <g id="after-effect" class="cls-1">
    <path id="adobeaftereffects" class="cls-2" d="M0,.3V80.277H82.027V.3ZM3.418,3.718H78.61V76.859H3.418ZM23.186,45.586,20.479,55.791c-.058.284-.171.386-.506.386H14.956c-.342,0-.4-.12-.342-.513l9.707-33.949a10.117,10.117,0,0,0,.335-2.8c0-.226.113-.342.284-.342H32.1c.226,0,.342.062.4.342l10.879,36.81c.055.28,0,.444-.284.444H37.456c-.28,0-.444-.1-.5-.328l-2.82-10.26H23.2Zm9.59-5.551c-.957-3.78-3.281-12.065-4.122-16.064H28.6c-.731,4-2.584,10.759-4,16.064Zm18.319,3.5c.058,4.624,2.256,7.724,7.444,7.724a13.2,13.2,0,0,0,5.571-1.06c.229-.109.4-.051.4.229v4.286a.744.744,0,0,1-.342.684,15.22,15.22,0,0,1-6.87,1.3c-9.023,0-12.407-6.654-12.407-14.1,0-8.066,4.177-14.662,11.508-14.662,7.444,0,10.038,6.265,10.038,11.337a16.658,16.658,0,0,1-.291,3.613.475.475,0,0,1-.451.434,48.22,48.22,0,0,1-5.7.226H51.1Zm6.938-4.7a18.9,18.9,0,0,0,2.536-.055c0-.232.058-.427.058-.595,0-1.863-.909-5.277-4.464-5.277-3.271,0-4.682,2.878-5.017,5.92h6.88Z" transform="translate(0.007 -0.313)"/>
  </g>
</svg>
