<svg xmlns="http://www.w3.org/2000/svg" xmlns:xlink="http://www.w3.org/1999/xlink" width="100" height="100" viewBox="0 0 100 100">
  <defs>
    <style>
      .cls-1 {
        clip-path: url(#clip-behance);
      }

      .cls-2 {
        fill: #fff;
      }
    </style>
    <clipPath id="clip-behance">
      <rect width="100" height="100"/>
    </clipPath>
  </defs>
  <g id="behance" class="cls-1">
    <path id="behance-2" data-name="behance" class="cls-2" d="M25.675,4.5a33,33,0,0,1,7.105.7,15.982,15.982,0,0,1,5.5,2.257A10.4,10.4,0,0,1,41.828,11.6,14.788,14.788,0,0,1,43.086,18a12.043,12.043,0,0,1-1.876,6.883A13.556,13.556,0,0,1,35.652,29.4a13.041,13.041,0,0,1,7.483,5.07A15.188,15.188,0,0,1,45.6,43.2a15.3,15.3,0,0,1-1.517,7.142,13.694,13.694,0,0,1-4.293,5,18.835,18.835,0,0,1-6.18,2.838,27.072,27.072,0,0,1-7.068.94H0V4.529H25.675ZM62.688,49.509c1.628,1.584,3.971,2.379,7.009,2.379a9.664,9.664,0,0,0,5.662-1.654,6.812,6.812,0,0,0,2.886-3.479h9.577c-1.491,4.737-3.878,8.141-7.031,10.177A20.3,20.3,0,0,1,69.394,60a22.681,22.681,0,0,1-8.408-1.48,18.309,18.309,0,0,1-6.365-4.219,18.875,18.875,0,0,1-3.986-6.55,24.28,24.28,0,0,1-1.38-8.4A22.506,22.506,0,0,1,50.746,31.1,19.208,19.208,0,0,1,61.315,20.06a19.829,19.829,0,0,1,8.215-1.6,18.654,18.654,0,0,1,8.807,1.935,17.763,17.763,0,0,1,6.143,5.181,20.608,20.608,0,0,1,3.479,7.475,29.858,29.858,0,0,1,.777,8.807H60.279c0,3.108,1.036,6.039,2.627,7.642l-.3.111Zm-37.894.185a15.581,15.581,0,0,0,3.353-.344,8.582,8.582,0,0,0,2.824-1.11,5.484,5.484,0,0,0,1.924-2.157,7.586,7.586,0,0,0,.7-3.553c0-2.775-.814-4.774-2.368-5.995a10.191,10.191,0,0,0-6.254-1.776H11.99V49.746h12.8v-.111ZM75.148,28.786c-1.3-1.425-3.479-2.191-6.132-2.191a9.176,9.176,0,0,0-4.315.881,7.974,7.974,0,0,0-2.738,2.183,7.7,7.7,0,0,0-1.451,2.775,12.973,12.973,0,0,0-.5,2.627H77.635a10.571,10.571,0,0,0-2.516-6.254v.037ZM24.128,26.51A8.618,8.618,0,0,0,29.4,24.986c1.384-1,2.05-2.664,2.05-4.951a6.973,6.973,0,0,0-.666-3.131,5.409,5.409,0,0,0-1.85-1.895,7.836,7.836,0,0,0-2.664-.951,16.379,16.379,0,0,0-3.109-.274H11.953v12.73H24.128ZM57.8,8.163H79.881v5.381H57.8V8.155Z" transform="translate(5.22 17.838)"/>
  </g>
</svg>
