<svg xmlns="http://www.w3.org/2000/svg" xmlns:xlink="http://www.w3.org/1999/xlink" width="82" height="80" viewBox="0 0 82 80">
  <defs>
    <style>
      .cls-1 {
        clip-path: url(#clip-blender);
      }

      .cls-2 {
        fill: #fff;
      }
    </style>
    <clipPath id="clip-blender">
      <rect width="82" height="80"/>
    </clipPath>
  </defs>
  <g id="blender" class="cls-1">
    <path id="blender-2" data-name="blender" class="cls-2" d="M42.739,39.7a9.7,9.7,0,0,1,3.519-6.853,11.925,11.925,0,0,1,15.111,0,9.677,9.677,0,0,1,3.512,6.85,9.51,9.51,0,0,1-2.955,7.356,11.875,11.875,0,0,1-16.228,0A9.508,9.508,0,0,1,42.742,39.7M25.11,45.226A20.331,20.331,0,0,0,25.985,50a25.186,25.186,0,0,0,5.442,9.419,28.107,28.107,0,0,0,9.522,6.836,31.157,31.157,0,0,0,25-.041,28.305,28.305,0,0,0,9.515-6.867A25.377,25.377,0,0,0,80.9,49.913a23.792,23.792,0,0,0,.854-10.5,24.335,24.335,0,0,0-3.471-9.494,26.525,26.525,0,0,0-6.327-6.98h.007L46.347,3.269l-.068-.051a5.694,5.694,0,0,0-6.355.007c-1.869,1.305-2.081,3.468-.42,4.834l0,0L50.18,16.75l-32.559.034h-.044c-2.692,0-5.278,1.77-5.791,4-.526,2.272,1.3,4.158,4.1,4.168v.007l16.5-.034L2.937,47.536l-.116.085C.044,49.746-.851,53.285.9,55.523c1.777,2.279,5.552,2.282,8.36.014l16.071-13.15a24.757,24.757,0,0,0-.215,2.839Zm41.3,5.948a18.58,18.58,0,0,1-25.938.041,15.408,15.408,0,0,1-3.539-5.541A14.629,14.629,0,0,1,37.9,33.651a16.064,16.064,0,0,1,3.939-4.684,18.721,18.721,0,0,1,23.211-.034,15.966,15.966,0,0,1,3.936,4.67,14.622,14.622,0,0,1,1.783,5.828,14.472,14.472,0,0,1-.817,6.187,15.51,15.51,0,0,1-3.536,5.555" transform="translate(0 4.813)"/>
  </g>
</svg>
