<svg xmlns="http://www.w3.org/2000/svg" xmlns:xlink="http://www.w3.org/1999/xlink" width="1203.563" height="903.876" viewBox="0 0 1203.563 903.876">
  <defs>
    <clipPath id="clip-path">
      <path id="Tracé_9691" data-name="Tracé 9691" d="M0,169.9H1003.3V-627.535H0Z" transform="translate(0 627.535)" fill="none"/>
    </clipPath>
    <clipPath id="clip-path-10">
      <path id="Tracé_9783" data-name="Tracé 9783" d="M0,35.553H129.407V-131.313H0Z" transform="translate(0 131.313)" fill="none"/>
    </clipPath>
    <clipPath id="clip-charte-sonisphere-1">
      <rect width="1203.563" height="903.876"/>
    </clipPath>
  </defs>
  <g id="charte-sonisphere-1" clip-path="url(#clip-charte-sonisphere-1)">
    <rect width="1203.563" height="903.876" fill="#fff"/>
    <g id="Groupe_789" data-name="Groupe 789" transform="translate(99.558 47.541)">
      <g id="Groupe_687" data-name="Groupe 687" transform="translate(296.807 737.871)">
        <path id="Tracé_9657" data-name="Tracé 9657" d="M0,0H180.467" fill="none" stroke="#6e7cea" stroke-width="1"/>
      </g>
      <g id="Groupe_688" data-name="Groupe 688" transform="translate(291.764 726.355)">
        <path id="Tracé_9658" data-name="Tracé 9658" d="M0,0H189.711" fill="none" stroke="#6e7cea" stroke-width="1"/>
      </g>
      <g id="Groupe_689" data-name="Groupe 689" transform="translate(289.349 694.445)">
        <path id="Tracé_9659" data-name="Tracé 9659" d="M0,0H197.656" fill="none" stroke="#6e7cea" stroke-width="1"/>
      </g>
      <g id="Groupe_690" data-name="Groupe 690" transform="translate(287.268 705.812)">
        <path id="Tracé_9660" data-name="Tracé 9660" d="M0,0H198.843" fill="none" stroke="#6e7cea" stroke-width="1"/>
      </g>
      <g id="Groupe_721" data-name="Groupe 721" transform="translate(0 0)" clip-path="url(#clip-path)">
        <g id="Groupe_691" data-name="Groupe 691" transform="translate(287.903 595.857)">
          <path id="Tracé_9661" data-name="Tracé 9661" d="M42.285,21.407c0,55.488-44.428,100.472-99.231,100.472S-156.18,76.9-156.18,21.407-111.752-79.067-56.946-79.067,42.285-34.085,42.285,21.407Z" transform="translate(156.18 79.067)" fill="none" stroke="#231e21" stroke-miterlimit="10" stroke-width="1"/>
        </g>
        <g id="Groupe_692" data-name="Groupe 692" transform="translate(342.879 602.64)">
          <path id="Tracé_9662" data-name="Tracé 9662" d="M0,.889V131.934l24.2-7.881-2.878-7.328L9.393,120.608V-3.282A97.845,97.845,0,0,0,0,.889" transform="translate(0 3.282)"/>
        </g>
        <g id="Groupe_693" data-name="Groupe 693" transform="translate(362.817 597.356)">
          <path id="Tracé_9663" data-name="Tracé 9663" d="M0,.41V106.379H9.4V-1.513C6.211-1.026,3.078-.377,0,.41" transform="translate(0 1.513)"/>
        </g>
        <g id="Groupe_694" data-name="Groupe 694" transform="translate(386.35 695.179)">
          <path id="Tracé_9664" data-name="Tracé 9664" d="M20.91,3.961-7.8,16.771C-34.553-8.286-74.157-14.38-75.877-14.63L-77.232-4.324c.4.06,40.663,6.243,65.188,31.057l2.337,2.359L18.129,15.8A100.412,100.412,0,0,0,20.91,3.961" transform="translate(77.232 14.63)"/>
        </g>
        <g id="Groupe_695" data-name="Groupe 695" transform="translate(383.147 596.219)">
          <path id="Tracé_9665" data-name="Tracé 9665" d="M14.946,11.155c8.724,3.122,17.315,6.2,25.254,9.564A100.5,100.5,0,0,0,33.914,7.985c-5.22-2-10.542-3.9-15.837-5.8C-11.539-8.412-39.672-18.5-45.507-41.024c-1.891-.109-3.791-.178-5.707-.178-1.338,0-2.665.048-3.99.1C-49.7-12-16.893-.245,14.946,11.155" transform="translate(55.204 41.202)"/>
        </g>
        <g id="Groupe_696" data-name="Groupe 696" transform="translate(0 448.496)">
          <path id="Tracé_9666" data-name="Tracé 9666" d="M0,0H341.394" fill="none" stroke="#6e7cea" stroke-width="1"/>
        </g>
        <g id="Groupe_697" data-name="Groupe 697" transform="translate(0 342.09)">
          <path id="Tracé_9667" data-name="Tracé 9667" d="M0,0H428.81" fill="none" stroke="#6e7cea" stroke-width="1"/>
        </g>
        <g id="Groupe_698" data-name="Groupe 698" transform="translate(0 293.469)">
          <path id="Tracé_9668" data-name="Tracé 9668" d="M0,0H426.074" fill="none" stroke="#6e7cea" stroke-width="1"/>
        </g>
        <g id="Groupe_699" data-name="Groupe 699" transform="translate(428.174 293.471)">
          <path id="Tracé_9669" data-name="Tracé 9669" d="M11.8,23.6A55.374,55.374,0,0,0,67.172-31.777,55.373,55.373,0,0,0,11.8-87.15,55.373,55.373,0,0,0-43.576-31.777,55.374,55.374,0,0,0,11.8,23.6" transform="translate(43.576 87.15)" fill="#fff"/>
        </g>
        <g id="Groupe_700" data-name="Groupe 700" transform="translate(428.174 293.471)">
          <path id="Tracé_9670" data-name="Tracé 9670" d="M11.8,23.6A55.374,55.374,0,0,0,67.172-31.777,55.373,55.373,0,0,0,11.8-87.15,55.373,55.373,0,0,0-43.576-31.777,55.374,55.374,0,0,0,11.8,23.6Z" transform="translate(43.576 87.15)" fill="none" stroke="#6e7cea" stroke-width="1"/>
        </g>
        <g id="Groupe_701" data-name="Groupe 701" transform="translate(345.895 373.969)">
          <path id="Tracé_9671" data-name="Tracé 9671" d="M11.8,23.6A55.375,55.375,0,0,0,67.172-31.778,55.374,55.374,0,0,0,11.8-87.151,55.374,55.374,0,0,0-43.576-31.778,55.375,55.375,0,0,0,11.8,23.6" transform="translate(43.576 87.151)" fill="#fff"/>
        </g>
        <g id="Groupe_702" data-name="Groupe 702" transform="translate(345.895 373.969)">
          <path id="Tracé_9672" data-name="Tracé 9672" d="M11.8,23.6A55.375,55.375,0,0,0,67.172-31.778,55.374,55.374,0,0,0,11.8-87.151,55.374,55.374,0,0,0-43.576-31.778,55.375,55.375,0,0,0,11.8,23.6Z" transform="translate(43.576 87.151)" fill="none" stroke="#6e7cea" stroke-width="1"/>
        </g>
        <g id="Groupe_703" data-name="Groupe 703" transform="translate(44.66 487.754)">
          <path id="Tracé_9673" data-name="Tracé 9673" d="M0,0,36.458,17.2" fill="none" stroke="#06060b" stroke-linecap="round" stroke-linejoin="round" stroke-miterlimit="10" stroke-width="1" stroke-dasharray="0 3.021"/>
        </g>
        <g id="Groupe_704" data-name="Groupe 704" transform="translate(82.855 509.516)">
          <path id="Tracé_9674" data-name="Tracé 9674" d="M0,0V61.83" fill="none" stroke="#06060b" stroke-linecap="round" stroke-linejoin="round" stroke-miterlimit="10" stroke-width="1" stroke-dasharray="0 2.949"/>
        </g>
        <g id="Groupe_705" data-name="Groupe 705" transform="translate(80.584 573.39)">
          <path id="Tracé_9675" data-name="Tracé 9675" stroke="#06060b" d="M0,.036l1.135-.17" fill="none" transform="translate(0 0.134)" stroke-linecap="round" stroke-linejoin="round" stroke-miterlimit="10" stroke-width="1" stroke-dasharray="0 1.807"/>
        </g>
        <g id="Groupe_706" data-name="Groupe 706" transform="translate(44.987 574.28)">
          <path id="Tracé_9676" data-name="Tracé 9676" stroke="#06060b" d="M6.8,0C.024,1.515-14.575,5.712-25.1,15.365" fill="none" transform="translate(25.103)" stroke-linecap="round" stroke-linejoin="round" stroke-miterlimit="10" stroke-width="1" stroke-dasharray="0 2.965"/>
        </g>
        <g id="Groupe_707" data-name="Groupe 707" transform="translate(42.304 591.607)">
          <path id="Tracé_9677" data-name="Tracé 9677" stroke="#06060b" d="M0,.141.661-.52" fill="none" transform="translate(0 0.52)" stroke-linecap="round" stroke-linejoin="round" stroke-miterlimit="10" stroke-width="1" stroke-dasharray="0 1.471"/>
        </g>
        <g id="Groupe_708" data-name="Groupe 708" transform="translate(2.371 573.435)">
          <path id="Tracé_9678" data-name="Tracé 9678" stroke="#06060b" d="M7.768,3.664l-36.46-17.2" fill="none" transform="translate(28.692 13.532)" stroke-linecap="round" stroke-linejoin="round" stroke-miterlimit="10" stroke-width="1" stroke-dasharray="0 3.021"/>
        </g>
        <g id="Groupe_709" data-name="Groupe 709" transform="translate(0.635 507.04)">
          <path id="Tracé_9679" data-name="Tracé 9679" stroke="#06060b" d="M0,13.174v-61.83" fill="none" transform="translate(0 48.656)" stroke-linecap="round" stroke-linejoin="round" stroke-miterlimit="10" stroke-width="1" stroke-dasharray="0 2.949"/>
        </g>
        <g id="Groupe_710" data-name="Groupe 710" transform="translate(1.772 504.825)">
          <path id="Tracé_9680" data-name="Tracé 9680" stroke="#06060b" d="M.242,0-.894.17" fill="none" transform="translate(0.894)" stroke-linecap="round" stroke-linejoin="round" stroke-miterlimit="10" stroke-width="1" stroke-dasharray="0 1.808"/>
        </g>
        <g id="Groupe_711" data-name="Groupe 711" transform="translate(6.605 488.741)">
          <path id="Tracé_9681" data-name="Tracé 9681" stroke="#06060b" d="M0,3.274C6.773,1.759,21.369-2.44,31.9-12.091" fill="none" transform="translate(0 12.091)" stroke-linecap="round" stroke-linejoin="round" stroke-miterlimit="10" stroke-width="1" stroke-dasharray="0 2.964"/>
        </g>
        <g id="Groupe_712" data-name="Groupe 712" transform="translate(40.526 486.117)">
          <path id="Tracé_9682" data-name="Tracé 9682" stroke="#06060b" d="M.141,0-.521.662" fill="none" transform="translate(0.521)" stroke-linecap="round" stroke-linejoin="round" stroke-miterlimit="10" stroke-width="1" stroke-dasharray="0 1.473"/>
        </g>
        <g id="Groupe_713" data-name="Groupe 713" transform="translate(0.636 486.116)">
          <path id="Tracé_9683" data-name="Tracé 9683" d="M17.518,4.187h0m0,67.45h0m-2.271.342h0M-21.71,89.364h0m-1.323,1.323h0M-64.7,71.035h0m0-67.45h0m2.272-.342h0m36.956-17.385h0m1.324-1.323h0" transform="translate(64.701 15.465)" fill="none" stroke="#06060b" stroke-linecap="round" stroke-linejoin="round" stroke-miterlimit="10" stroke-width="1"/>
        </g>
        <g id="Groupe_714" data-name="Groupe 714" transform="translate(44.031 493.342)">
          <path id="Tracé_9684" data-name="Tracé 9684" stroke="#06060b" d="M6.386,3.012-23.588-11.126" fill="none" transform="translate(23.588 11.126)" stroke-linecap="round" stroke-linejoin="round" stroke-miterlimit="10" stroke-width="1" stroke-dasharray="0 3.068"/>
        </g>
        <g id="Groupe_715" data-name="Groupe 715" transform="translate(7.768 494.921)">
          <path id="Tracé_9685" data-name="Tracé 9685" stroke="#06060b" d="M6.754,0c-11.115,8.916-24.936,12.879-31.7,14.386" fill="none" transform="translate(24.946)" stroke-linecap="round" stroke-linejoin="round" stroke-miterlimit="10" stroke-width="1" stroke-dasharray="0 2.908"/>
        </g>
        <g id="Groupe_716" data-name="Groupe 716" transform="translate(5.961 513.41)">
          <path id="Tracé_9686" data-name="Tracé 9686" d="M0,0V53.97" fill="none" stroke="#06060b" stroke-linecap="round" stroke-linejoin="round" stroke-miterlimit="10" stroke-width="1" stroke-dasharray="0 2.929"/>
        </g>
        <g id="Groupe_717" data-name="Groupe 717" transform="translate(9.487 570.904)">
          <path id="Tracé_9687" data-name="Tracé 9687" d="M0,0,29.974,14.138" fill="none" stroke="#06060b" stroke-linecap="round" stroke-linejoin="round" stroke-miterlimit="10" stroke-width="1" stroke-dasharray="0 3.068"/>
        </g>
        <g id="Groupe_718" data-name="Groupe 718" transform="translate(44.024 569.078)">
          <path id="Tracé_9688" data-name="Tracé 9688" stroke="#06060b" d="M0,3.065C11.114-5.85,24.935-9.814,31.7-11.321" fill="none" transform="translate(0 11.321)" stroke-linecap="round" stroke-linejoin="round" stroke-miterlimit="10" stroke-width="1" stroke-dasharray="0 2.908"/>
        </g>
        <g id="Groupe_719" data-name="Groupe 719" transform="translate(77.532 511.005)">
          <path id="Tracé_9689" data-name="Tracé 9689" stroke="#06060b" d="M0,11.5v-53.97" fill="none" transform="translate(0 42.471)" stroke-linecap="round" stroke-linejoin="round" stroke-miterlimit="10" stroke-width="1" stroke-dasharray="0 2.929"/>
        </g>
        <g id="Groupe_720" data-name="Groupe 720" transform="translate(5.961 492.511)">
          <path id="Tracé_9690" data-name="Tracé 9690" d="M7.736,0h0M-28.571,17.177h0m0,59.554h0M6.692,93.364h0M43,76.186h0m0-59.554h0" transform="translate(28.571)" fill="none" stroke="#06060b" stroke-linecap="round" stroke-linejoin="round" stroke-miterlimit="10" stroke-width="1"/>
        </g>
      </g>
      <g id="Groupe_722" data-name="Groupe 722" transform="translate(538.959 119.34)">
        <path id="Tracé_9692" data-name="Tracé 9692" d="M0,49.272,83.431-181.984" transform="translate(0 181.984)" fill="none" stroke="#6e7cea" stroke-width="1"/>
      </g>
      <g id="Groupe_723" data-name="Groupe 723" transform="translate(423.974 94.303)">
        <path id="Tracé_9693" data-name="Tracé 9693" d="M0,0H199.736" fill="none" stroke="#6e7cea" stroke-width="1"/>
      </g>
      <g id="Groupe_724" data-name="Groupe 724" transform="translate(429.977 128.062)">
        <path id="Tracé_9694" data-name="Tracé 9694" d="M0,0H189.711" fill="none" stroke="#6e7cea" stroke-width="1"/>
      </g>
      <g id="Groupe_725" data-name="Groupe 725" transform="translate(423.974 86.2)">
        <path id="Tracé_9695" data-name="Tracé 9695" d="M0,0H199.736" fill="none" stroke="#6e7cea" stroke-width="1"/>
      </g>
      <g id="Groupe_729" data-name="Groupe 729" transform="translate(0 0)" clip-path="url(#clip-path)">
        <g id="Groupe_726" data-name="Groupe 726" transform="translate(424.959 86.507)">
          <path id="Tracé_9696" data-name="Tracé 9696" d="M4.425,0-16.248,9.752c-.046,1.236-.094,2.475-.094,3.723,0,2.249.1,4.472.25,6.683L2.5,11.385C29.5,36.368,69.478,42.438,71.216,42.7l1.366-9.386c-.405-.056-41.036-6.228-65.8-30.955Z" transform="translate(16.342)"/>
        </g>
        <g id="Groupe_727" data-name="Groupe 727" transform="translate(424.609 0.636)">
          <path id="Tracé_9697" data-name="Tracé 9697" d="M42.285,21.143a99.233,99.233,0,0,1-99.231,99.231A99.233,99.233,0,0,1-156.18,21.143,99.232,99.232,0,0,1-56.946-78.091,99.233,99.233,0,0,1,42.285,21.143Z" transform="translate(156.18 78.091)" fill="none" stroke="#231e21" stroke-miterlimit="10" stroke-width="1"/>
        </g>
        <g id="Groupe_728" data-name="Groupe 728" transform="translate(513.401 86.507)">
          <path id="Tracé_9698" data-name="Tracé 9698" d="M18.068.5C-1.251,19.8-30.346,27.811-42.309,30.414V5.345l-24.425,7.849,2.906,9.027,12.038-3.871v92.042c3.2-.145,6.364-.447,9.481-.89V40.124c11.1-2.2,42.317-9.925,64.656-30.591l19.944,9.409c.178-2.42.3-4.854.3-7.318,0-1.024-.046-2.041-.078-3.056L20.422-1.853Z" transform="translate(66.734 1.853)"/>
        </g>
      </g>
      <g id="Groupe_730" data-name="Groupe 730" transform="translate(423.974 99.869)">
        <path id="Tracé_9700" data-name="Tracé 9700" d="M0,0,4.2,242.221" fill="none" stroke="#6e7cea" stroke-width="1"/>
      </g>
      <g id="Groupe_731" data-name="Groupe 731" transform="translate(456.646 429.711)">
        <path id="Tracé_9701" data-name="Tracé 9701" d="M0,0,28.833,260.564" fill="none" stroke="#6e7cea" stroke-width="1"/>
      </g>
      <g id="Groupe_732" data-name="Groupe 732" transform="translate(289.97 424.967)">
        <path id="Tracé_9702" data-name="Tracé 9702" d="M11.913,0-44,254.5" transform="translate(43.999)" fill="none" stroke="#6e7cea" stroke-width="1"/>
      </g>
      <g id="Groupe_734" data-name="Groupe 734" transform="translate(0 0)" clip-path="url(#clip-path)">
        <g id="Groupe_733" data-name="Groupe 733" transform="translate(0.635 214.417)">
          <path id="Tracé_9703" data-name="Tracé 9703" d="M0,0V378.269" fill="none" stroke="#0d0d0d" stroke-linecap="round" stroke-linejoin="round" stroke-width="1" stroke-dasharray="0 2.992"/>
        </g>
      </g>
      <g id="Groupe_735" data-name="Groupe 735" transform="translate(4.445 594.587)">
        <path id="Tracé_9705" data-name="Tracé 9705" d="M0,0H996.317" fill="none" stroke="#0d0d0d" stroke-linecap="round" stroke-linejoin="round" stroke-width="1" stroke-dasharray="0 2.998"/>
      </g>
      <g id="Groupe_739" data-name="Groupe 739" transform="translate(0 0)" clip-path="url(#clip-path)">
        <g id="Groupe_736" data-name="Groupe 736" transform="translate(1002.667 212.516)">
          <path id="Tracé_9706" data-name="Tracé 9706" stroke="#0d0d0d" d="M0,80.595V-297.674" fill="none" transform="translate(0 297.674)" stroke-linecap="round" stroke-linejoin="round" stroke-width="1" stroke-dasharray="0 2.992"/>
        </g>
        <g id="Groupe_737" data-name="Groupe 737" transform="translate(2.54 210.615)">
          <path id="Tracé_9707" data-name="Tracé 9707" stroke="#0d0d0d" d="M212.277,0H-784.04" fill="none" transform="translate(784.04)" stroke-linecap="round" stroke-linejoin="round" stroke-width="1" stroke-dasharray="0 2.998"/>
        </g>
        <g id="Groupe_738" data-name="Groupe 738" transform="translate(0.635 210.615)">
          <path id="Tracé_9708" data-name="Tracé 9708" d="M0,81.81H0m1002.032,0h0m0-383.972h0M0-302.162H0" transform="translate(0 302.162)" fill="none" stroke="#0d0d0d" stroke-linecap="round" stroke-linejoin="round" stroke-width="1"/>
        </g>
      </g>
      <g id="Groupe_740" data-name="Groupe 740" transform="translate(84.125 297.263)">
        <path id="Tracé_9710" data-name="Tracé 9710" d="M0,0V210.6" fill="none" stroke="#0d0d0d" stroke-linecap="round" stroke-linejoin="round" stroke-width="1" stroke-dasharray="0 2.986"/>
      </g>
      <g id="Groupe_741" data-name="Groupe 741" transform="translate(87.938 509.763)">
        <path id="Tracé_9711" data-name="Tracé 9711" d="M0,0H833.01" fill="none" stroke="#0d0d0d" stroke-linecap="round" stroke-linejoin="round" stroke-width="1" stroke-dasharray="0 3"/>
      </g>
      <g id="Groupe_742" data-name="Groupe 742" transform="translate(922.854 295.367)">
        <path id="Tracé_9712" data-name="Tracé 9712" stroke="#0d0d0d" d="M0,44.871v-210.6" fill="none" transform="translate(0 165.731)" stroke-linecap="round" stroke-linejoin="round" stroke-width="1" stroke-dasharray="0 2.986"/>
      </g>
      <g id="Groupe_743" data-name="Groupe 743" transform="translate(86.032 293.469)">
        <path id="Tracé_9713" data-name="Tracé 9713" stroke="#0d0d0d" d="M177.483,0h-833.01" fill="none" transform="translate(655.527)" stroke-linecap="round" stroke-linejoin="round" stroke-width="1" stroke-dasharray="0 3"/>
      </g>
      <g id="Groupe_744" data-name="Groupe 744" transform="translate(84.125 293.469)">
        <path id="Tracé_9714" data-name="Tracé 9714" d="M0,46.084H0m838.728,0h0m0-216.294h0M0-170.21H0" transform="translate(0 170.21)" fill="none" stroke="#0d0d0d" stroke-linecap="round" stroke-linejoin="round" stroke-width="1"/>
      </g>
      <g id="Groupe_753" data-name="Groupe 753" transform="translate(0 0)" clip-path="url(#clip-path)">
        <g id="Groupe_745" data-name="Groupe 745" transform="translate(0 346.833)">
          <path id="Tracé_9715" data-name="Tracé 9715" d="M0,0H1003.3" fill="none" stroke="#6e7cea" stroke-width="1"/>
        </g>
        <g id="Groupe_746" data-name="Groupe 746" transform="translate(0 430.346)">
          <path id="Tracé_9716" data-name="Tracé 9716" d="M0,0H1003.3" fill="none" stroke="#6e7cea" stroke-width="1"/>
        </g>
        <g id="Groupe_747" data-name="Groupe 747" transform="translate(0 425.604)">
          <path id="Tracé_9717" data-name="Tracé 9717" d="M0,0H1003.3" fill="none" stroke="#6e7cea" stroke-width="1"/>
        </g>
        <g id="Groupe_748" data-name="Groupe 748" transform="translate(561.123 293.469)">
          <path id="Tracé_9718" data-name="Tracé 9718" d="M0,0H442.18" fill="none" stroke="#6e7cea" stroke-width="1"/>
        </g>
        <g id="Groupe_749" data-name="Groupe 749" transform="translate(397.829 343.068)">
          <path id="Tracé_9719" data-name="Tracé 9719" d="M8.64,22.617,7.316,21.294C-6.585,7.406-29.4,3.943-29.633,3.91l.768-5.266c.977.141,23.424,3.552,38.584,17.578l35.2-16.6C43.766-15.414,26.527-21.51,8.311-27.949c-19.786-7-40.245-14.231-40.222-34.249l0-1.685L9.756-83.535l1.324,1.323C24.985-68.327,47.8-64.861,48.029-64.828l-.768,5.27c-.976-.145-23.422-3.554-38.585-17.582l-35.2,16.6C-25.369-45.5-8.129-39.41,10.087-32.968c19.784,7,40.242,14.231,40.222,34.249l0,1.686Z" transform="translate(31.911 83.535)" fill="#06060b"/>
        </g>
        <g id="Groupe_750" data-name="Groupe 750" transform="translate(210.379 343.068)">
          <path id="Tracé_9720" data-name="Tracé 9720" d="M8.878,22.617-32.789,2.965V-64.484l2.271-.343c.939-.141,23.18-3.624,36.957-17.385l1.323-1.323L49.43-63.883V3.567l-2.272.342C46.218,4.051,23.98,7.536,10.2,21.294ZM-27.466-.41,7.8,16.223C20.342,4.618,37.872.28,44.105-.954V-60.508L8.841-77.141C-3.7-65.536-21.232-61.2-27.466-59.964Z" transform="translate(32.789 83.535)" fill="#06060b"/>
        </g>
        <g id="Groupe_751" data-name="Groupe 751" transform="translate(662.425 343.068)">
          <path id="Tracé_9721" data-name="Tracé 9721" d="M8.878,22.617-32.789,2.965V-64.484l2.272-.343c.94-.141,23.178-3.624,36.957-17.385l1.322-1.323L51.7-62.813-25.2.661,7.8,16.223C22.961,2.2,45.41-1.215,46.386-1.356l.77,5.266c-.233.033-23.083,3.531-36.955,17.384ZM-27.463-59.964V-4.372l69.3-57.2-33-15.565C-3.7-65.536-21.232-61.2-27.463-59.964" transform="translate(32.789 83.535)" fill="#06060b"/>
        </g>
        <g id="Groupe_752" data-name="Groupe 752" transform="translate(839.001 343.068)">
          <path id="Tracé_9722" data-name="Tracé 9722" d="M8.878,22.617-32.789,2.965V-64.484l2.271-.343c.942-.141,23.18-3.624,36.958-17.385l1.322-1.323L51.7-62.813-25.2.661,7.8,16.223C22.961,2.2,45.408-1.215,46.386-1.356l.768,5.266c-.23.033-23.081,3.531-36.953,17.384ZM-27.463-59.964V-4.372l69.3-57.2-33-15.565C-3.7-65.536-21.232-61.2-27.463-59.964" transform="translate(32.789 83.535)" fill="#06060b"/>
        </g>
      </g>
      <g id="Groupe_754" data-name="Groupe 754" transform="translate(290.186 347.144)">
        <path id="Tracé_9724" data-name="Tracé 9724" d="M2.921,17.7H-2.4V-58.052l-6.759,2.172-1.629-5.068L2.921-65.358Z" transform="translate(10.79 65.358)" fill="#06060b"/>
      </g>
      <g id="Groupe_757" data-name="Groupe 757" transform="translate(0 0)" clip-path="url(#clip-path)">
        <g id="Groupe_755" data-name="Groupe 755" transform="translate(300.851 346.263)">
          <path id="Tracé_9725" data-name="Tracé 9725" d="M15.9,21.811V-57.532L-19.366-74.167C-34.528-60.14-56.975-56.73-57.951-56.587l-.77-5.267c.23-.032,23.081-3.533,36.952-17.384l1.324-1.322L21.222-60.908V14.506l6.759-2.173L29.61,17.4Z" transform="translate(58.721 80.56)" fill="#06060b"/>
        </g>
        <g id="Groupe_756" data-name="Groupe 756" transform="translate(485.889 343.068)">
          <path id="Tracé_9726" data-name="Tracé 9726" d="M8.878,22.617-32.789,2.965V-62.193h2.662l-.385-2.636c.23-.033,23.081-3.53,36.952-17.384l1.322-1.323L49.431-63.883V3.567l-2.273.342C46.221,4.051,23.98,7.536,10.2,21.294ZM-27.463-.41,7.8,16.223C20.342,4.618,37.872.28,44.105-.954V-60.508L8.843-77.141C-3.7-65.536-21.232-61.2-27.463-59.964Z" transform="translate(32.789 83.535)" fill="#06060b"/>
        </g>
      </g>
      <g id="Groupe_758" data-name="Groupe 758" transform="translate(477.499 347.109)">
        <path id="Tracé_9728" data-name="Tracé 9728" d="M1.788,34.791V-121.2l-6.759,2.173L-6.6-124.092,7.113-128.5V27.488l6.759-2.174,1.629,5.07Z" transform="translate(6.603 128.5)" fill="#06060b"/>
      </g>
      <g id="Groupe_760" data-name="Groupe 760" transform="translate(0 0)" clip-path="url(#clip-path)">
        <g id="Groupe_759" data-name="Groupe 759" transform="translate(755.017 346.263)">
          <path id="Tracé_9729" data-name="Tracé 9729" d="M.164,5.108-.606-.16c.23-.032,23.082-3.533,36.95-17.384l1.325-1.322L77.811.067,75.54,4.881,38.748-12.472C23.586,1.555,1.14,4.965.164,5.108" transform="translate(0.606 18.865)" fill="#06060b"/>
        </g>
      </g>
      <g id="Groupe_761" data-name="Groupe 761" transform="translate(744.352 343.915)">
        <path id="Tracé_9731" data-name="Tracé 9731" d="M2.921,22.438H-2.4V-75.569L-9.161-73.4l-1.629-5.07L2.921-82.875Z" transform="translate(10.79 82.875)" fill="#06060b"/>
      </g>
      <g id="Groupe_763" data-name="Groupe 763" transform="translate(0 0)" clip-path="url(#clip-path)">
        <g id="Groupe_762" data-name="Groupe 762" transform="translate(576.496 346.263)">
          <path id="Tracé_9732" data-name="Tracé 9732" d="M15.9,21.811V-57.532L-19.364-74.167C-34.526-60.14-56.973-56.73-57.95-56.587l-.769-5.267c.227-.032,23.081-3.533,36.952-17.384l1.324-1.322L21.221-60.908V14.506l6.762-2.173L29.615,17.4Z" transform="translate(58.719 80.56)" fill="#06060b"/>
        </g>
      </g>
      <g id="Groupe_764" data-name="Groupe 764" transform="translate(565.83 292.835)">
        <path id="Tracé_9734" data-name="Tracé 9734" d="M1.787,33.157v-148.32l-6.762,2.173L-6.6-118.059l13.714-4.407V25.852l6.759-2.172L15.5,28.75Z" transform="translate(6.601 122.466)" fill="#06060b"/>
      </g>
      <g id="Groupe_765" data-name="Groupe 765" transform="translate(378.382 347.63)">
        <path id="Tracé_9735" data-name="Tracé 9735" d="M2.922,17.563H-2.4V-57.566l-6.759,2.173-1.629-5.069L2.922-64.869Z" transform="translate(10.792 64.869)" fill="#06060b"/>
      </g>
      <path id="Tracé_9736" data-name="Tracé 9736" d="M309.69-354.691h-5.326v-18.22h5.326Z" transform="translate(82.406 696.474)" fill="#06060b"/>
      <g id="Groupe_788" data-name="Groupe 788" transform="translate(0 0)" clip-path="url(#clip-path)">
        <g id="Groupe_766" data-name="Groupe 766" transform="translate(83.489 292.275)">
          <path id="Tracé_9737" data-name="Tracé 9737" d="M25.05,27.437-92.52-28.593V-72.448l61.245-28.888,1.324,1.325c17.58,17.554,44.485,24.238,53.485,26.058v-5.59h5.323v11.86l-3.046-.445c-1.47-.212-35.6-5.4-58.175-26.808L-87.2-69.073v37.12L27.339,22.629Z" transform="translate(92.52 101.336)" fill="#06060b"/>
        </g>
        <g id="Groupe_767" data-name="Groupe 767" transform="translate(83.49 323.001)">
          <path id="Tracé_9738" data-name="Tracé 9738" d="M12.812,26.892l-1.324-1.323C-9.78,4.331-44.692-1-45.043-1.049l-2.275-.333,0-12.078H-42v7.53c8.21,1.527,36.375,7.91,55.9,26.421L68.734-5.371V-39.938L-45.8-94.521l2.29-4.8L74.057-43.3V-2Z" transform="translate(47.32 99.326)" fill="#06060b"/>
        </g>
        <g id="Groupe_768" data-name="Groupe 768" transform="translate(896.592 212.987)">
          <path id="Tracé_9739" data-name="Tracé 9739" stroke="#06060b" d="M0,7.768,17.2-28.69" fill="none" transform="translate(0 28.69)" stroke-linecap="round" stroke-linejoin="round" stroke-miterlimit="10" stroke-width="1" stroke-dasharray="0 3.021"/>
        </g>
        <g id="Groupe_769" data-name="Groupe 769" transform="translate(918.354 211.25)">
          <path id="Tracé_9740" data-name="Tracé 9740" d="M0,0H61.83" fill="none" stroke="#06060b" stroke-linecap="round" stroke-linejoin="round" stroke-miterlimit="10" stroke-width="1" stroke-dasharray="0 2.949"/>
        </g>
        <g id="Groupe_770" data-name="Groupe 770" transform="translate(982.228 212.386)">
          <path id="Tracé_9741" data-name="Tracé 9741" stroke="#06060b" d="M.036.242-.134-.893" fill="none" transform="translate(0.134 0.893)" stroke-linecap="round" stroke-linejoin="round" stroke-miterlimit="10" stroke-width="1" stroke-dasharray="0 1.807"/>
        </g>
        <g id="Groupe_771" data-name="Groupe 771" transform="translate(983.118 217.218)">
          <path id="Tracé_9742" data-name="Tracé 9742" d="M0,0C1.515,6.773,5.712,21.371,15.365,31.9" fill="none" stroke="#06060b" stroke-linecap="round" stroke-linejoin="round" stroke-miterlimit="10" stroke-width="1" stroke-dasharray="0 2.965"/>
        </g>
        <g id="Groupe_772" data-name="Groupe 772" transform="translate(1000.446 251.14)">
          <path id="Tracé_9743" data-name="Tracé 9743" stroke="#06060b" d="M.141.141-.52-.52" fill="none" transform="translate(0.52 0.52)" stroke-linecap="round" stroke-linejoin="round" stroke-miterlimit="10" stroke-width="1" stroke-dasharray="0 1.471"/>
        </g>
        <g id="Groupe_773" data-name="Groupe 773" transform="translate(982.273 255.273)">
          <path id="Tracé_9744" data-name="Tracé 9744" stroke="#06060b" d="M3.664,0l-17.2,36.46" fill="none" transform="translate(13.532)" stroke-linecap="round" stroke-linejoin="round" stroke-miterlimit="10" stroke-width="1" stroke-dasharray="0 3.021"/>
        </g>
        <g id="Groupe_774" data-name="Groupe 774" transform="translate(915.878 293.47)">
          <path id="Tracé_9745" data-name="Tracé 9745" stroke="#06060b" d="M13.174,0h-61.83" fill="none" transform="translate(48.656)" stroke-linecap="round" stroke-linejoin="round" stroke-miterlimit="10" stroke-width="1" stroke-dasharray="0 2.949"/>
        </g>
        <g id="Groupe_775" data-name="Groupe 775" transform="translate(913.663 291.197)">
          <path id="Tracé_9746" data-name="Tracé 9746" d="M0,0,.17,1.136" fill="none" stroke="#06060b" stroke-linecap="round" stroke-linejoin="round" stroke-miterlimit="10" stroke-width="1" stroke-dasharray="0 1.808"/>
        </g>
        <g id="Groupe_776" data-name="Groupe 776" transform="translate(897.579 255.602)">
          <path id="Tracé_9747" data-name="Tracé 9747" stroke="#06060b" d="M3.274,6.8C1.759.023-2.44-14.573-12.091-25.1" fill="none" transform="translate(12.091 25.102)" stroke-linecap="round" stroke-linejoin="round" stroke-miterlimit="10" stroke-width="1" stroke-dasharray="0 2.964"/>
        </g>
        <g id="Groupe_777" data-name="Groupe 777" transform="translate(894.955 252.917)">
          <path id="Tracé_9748" data-name="Tracé 9748" d="M0,0,.662.662" fill="none" stroke="#06060b" stroke-linecap="round" stroke-linejoin="round" stroke-miterlimit="10" stroke-width="1" stroke-dasharray="0 1.473"/>
        </g>
        <g id="Groupe_778" data-name="Groupe 778" transform="translate(894.955 211.25)">
          <path id="Tracé_9749" data-name="Tracé 9749" d="M4.187,0h0m67.45,0h0m.342,2.271h0M89.364,39.228h0m1.323,1.323h0M71.035,82.219h0m-67.45,0h0m-.342-2.272h0M-14.142,42.991h0m-1.323-1.324h0" transform="translate(15.465)" fill="none" stroke="#06060b" stroke-linecap="round" stroke-linejoin="round" stroke-miterlimit="10" stroke-width="1"/>
        </g>
        <g id="Groupe_779" data-name="Groupe 779" transform="translate(902.18 220.1)">
          <path id="Tracé_9750" data-name="Tracé 9750" stroke="#06060b" d="M3.012,0-11.126,29.974" fill="none" transform="translate(11.126)" stroke-linecap="round" stroke-linejoin="round" stroke-miterlimit="10" stroke-width="1" stroke-dasharray="0 3.068"/>
        </g>
        <g id="Groupe_780" data-name="Groupe 780" transform="translate(903.759 254.637)">
          <path id="Tracé_9751" data-name="Tracé 9751" d="M0,0C8.916,11.115,12.879,24.936,14.386,31.7" fill="none" stroke="#06060b" stroke-linecap="round" stroke-linejoin="round" stroke-miterlimit="10" stroke-width="1" stroke-dasharray="0 2.908"/>
        </g>
        <g id="Groupe_781" data-name="Groupe 781" transform="translate(922.248 288.144)">
          <path id="Tracé_9752" data-name="Tracé 9752" d="M0,0H53.97" fill="none" stroke="#06060b" stroke-linecap="round" stroke-linejoin="round" stroke-miterlimit="10" stroke-width="1" stroke-dasharray="0 2.929"/>
        </g>
        <g id="Groupe_782" data-name="Groupe 782" transform="translate(979.743 254.644)">
          <path id="Tracé_9753" data-name="Tracé 9753" stroke="#06060b" d="M0,6.386,14.138-23.588" fill="none" transform="translate(0 23.588)" stroke-linecap="round" stroke-linejoin="round" stroke-miterlimit="10" stroke-width="1" stroke-dasharray="0 3.068"/>
        </g>
        <g id="Groupe_783" data-name="Groupe 783" transform="translate(977.916 218.381)">
          <path id="Tracé_9754" data-name="Tracé 9754" stroke="#06060b" d="M3.065,6.754C-5.85-4.36-9.814-18.181-11.321-24.946" fill="none" transform="translate(11.321 24.946)" stroke-linecap="round" stroke-linejoin="round" stroke-miterlimit="10" stroke-width="1" stroke-dasharray="0 2.908"/>
        </g>
        <g id="Groupe_784" data-name="Groupe 784" transform="translate(919.843 216.574)">
          <path id="Tracé_9755" data-name="Tracé 9755" stroke="#06060b" d="M11.5,0h-53.97" fill="none" transform="translate(42.471)" stroke-linecap="round" stroke-linejoin="round" stroke-miterlimit="10" stroke-width="1" stroke-dasharray="0 2.929"/>
        </g>
        <g id="Groupe_785" data-name="Groupe 785" transform="translate(901.349 216.573)">
          <path id="Tracé_9756" data-name="Tracé 9756" d="M0,7.514H0M17.177,43.82h0m59.554,0h0M93.364,8.557h0M76.186-27.751h0m-59.554,0h0" transform="translate(0 27.751)" fill="none" stroke="#06060b" stroke-linecap="round" stroke-linejoin="round" stroke-miterlimit="10" stroke-width="1"/>
        </g>
        <g id="Groupe_786" data-name="Groupe 786" transform="translate(542.392 342.09)">
          <path id="Tracé_9757" data-name="Tracé 9757" d="M0,0H460.91" fill="none" stroke="#6e7cea" stroke-width="1"/>
        </g>
        <g id="Groupe_787" data-name="Groupe 787" transform="translate(460.264 448.496)">
          <path id="Tracé_9758" data-name="Tracé 9758" d="M0,0H543.039" fill="none" stroke="#6e7cea" stroke-width="1"/>
        </g>
      </g>
    </g>
    <g id="Groupe_818" data-name="Groupe 818" transform="translate(973.833 672.467)">
      <g id="Groupe_812" data-name="Groupe 812" transform="translate(0 0)" clip-path="url(#clip-path-10)">
        <g id="Groupe_811" data-name="Groupe 811" transform="translate(0.318 109.707)">
          <path id="Tracé_9782" data-name="Tracé 9782" d="M0,0V18.773H113.718V0" fill="none" stroke="#2b2e34" stroke-width="0.5"/>
        </g>
      </g>
      <text id="_10_mm" data-name="&gt;10 mm" transform="translate(14.409 156.886)" fill="#2b2e34" font-size="24" font-family="Geomanist-Regular, Geomanist"><tspan x="0" y="0">&gt;10 mm</tspan></text>
      <g id="Groupe_816" data-name="Groupe 816" transform="translate(0 0)" clip-path="url(#clip-path-10)">
        <g id="Groupe_813" data-name="Groupe 813" transform="translate(21.148 0)">
          <path id="Tracé_9784" data-name="Tracé 9784" d="M7.667,19.772l-.7-.69C-5.776,6.485-26.595,3.424-26.8,3.395L-28,3.227l-.319-59L7.752-73.028l.7.69C21.216-59.723,42.015-56.681,42.224-56.652l1.2.166L43.738,2.52ZM-25.219.823c4.673.829,21.693,4.5,33.441,15.586L40.935.764l-.3-54.844c-4.674-.829-21.694-4.5-33.442-15.584L-25.515-54.019Z" transform="translate(28.318 73.028)"/>
        </g>
        <g id="Groupe_814" data-name="Groupe 814" transform="translate(31.399 13.096)">
          <path id="Tracé_9785" data-name="Tracé 9785" d="M10.558,11.652-39-11.964V-30.742l26.069-12.294.7.694c7.142,7.13,17.952,9.959,22,10.805v-2.009h2.793v5.305l-1.6-.233c-.618-.089-14.9-2.262-24.454-11.205L-36.2-28.97v15.243L11.76,9.129Z" transform="translate(38.997 43.036)"/>
        </g>
        <g id="Groupe_815" data-name="Groupe 815" transform="translate(31.399 26.087)">
          <path id="Tracé_9786" data-name="Tracé 9786" d="M5.43,11.424l-.7-.694C-4.132,1.874-18.715-.356-18.86-.376l-1.195-.175V-5.865h2.794v2.932C-13.541-2.219-2.076.5,6,8.065L28.7-2.645v-14.17L-19.259-39.67l1.2-2.524L31.5-18.58V-.873Z" transform="translate(20.056 42.194)"/>
        </g>
      </g>
    </g>
  </g>
</svg>
