<svg xmlns="http://www.w3.org/2000/svg" xmlns:xlink="http://www.w3.org/1999/xlink" width="82" height="80" viewBox="0 0 82 80">
  <defs>
    <style>
      .cls-1 {
        clip-path: url(#clip-competences);
      }

      .cls-2 {
        fill: #fff;
        stroke: #fff;
      }
    </style>
    <clipPath id="clip-competences">
      <rect width="82" height="80"/>
    </clipPath>
  </defs>
  <g id="competences" class="cls-1">
    <g id="Groupe_292" data-name="Groupe 292" transform="translate(2.297 1.284)">
      <path id="Tracé_418" data-name="Tracé 418" class="cls-2" d="M64.836,133.31a1.245,1.245,0,0,1-1.225-1.018l-1.7-8.933a32.485,32.485,0,0,1-7.6-2.766l-6.989,5.718a1.26,1.26,0,0,1-1.631-.047l-7.4-6.7a1.246,1.246,0,0,1-.21-1.624l1.854-2.782,3.275-5.332a37.707,37.707,0,0,1-3.4-7.386l-8.926-.872a1.253,1.253,0,0,1-1.125-1.135c-.226-2.6-.226-4.047-.226-4.743V95c0-.213-.027-.5-.06-.879-.073-.829-.18-2.037-.18-3.761a1.251,1.251,0,0,1,1.008-1.225l8.953-1.747a32.4,32.4,0,0,1,2.753-7.549l-5.715-7a1.245,1.245,0,0,1,.037-1.614l6.726-7.422a1.244,1.244,0,0,1,1.614-.2l7.675,5.116a37.919,37.919,0,0,1,7.4-3.395l1.068-9.166A1.248,1.248,0,0,1,62,55.065L72.188,54.6a1.34,1.34,0,0,1,1.281,1.015l1.7,8.936a32.146,32.146,0,0,1,7.6,2.766L89.755,61.6a1.247,1.247,0,0,1,1.674.083c1.2,1.211,2.117,2.017,2.723,2.559.336.3.586.519.752.689l.463.463c.143.143.359.333.646.586.626.559,1.568,1.4,2.829,2.653A1.254,1.254,0,0,1,99,70.212l-5.116,7.672a37.927,37.927,0,0,1,3.4,7.4l9.159,1.065a1.244,1.244,0,0,1,1.1,1.125c.236,2.606.236,4.057.236,4.753v.7c0,.206.027.493.06.872.07.829.176,2.037.176,3.754A1.242,1.242,0,0,1,107,98.772l-8.936,1.7a32.1,32.1,0,0,1-2.766,7.6l5.715,6.989a1.25,1.25,0,0,1-.08,1.671c-1.211,1.212-2.017,2.12-2.559,2.723-.3.336-.519.586-.686.752l-.463.463c-.15.146-.343.366-.6.659-.559.629-1.395,1.568-2.646,2.816a1.232,1.232,0,0,1-1.574.156l-7.678-5.109a38.2,38.2,0,0,1-7.4,3.395l-1.065,9.163a1.242,1.242,0,0,1-1.178,1.1l-10.195.463A.131.131,0,0,0,64.836,133.31ZM54.179,117.843a1.28,1.28,0,0,1,.626.17,30.18,30.18,0,0,0,8.461,3.109,1.245,1.245,0,0,1,.942.985l1.647,8.664,8.051-.363,1.038-8.91a1.251,1.251,0,0,1,.872-1.048,34.85,34.85,0,0,0,8.268-3.794,1.253,1.253,0,0,1,1.361.017l7.485,4.986c.815-.845,1.4-1.508,1.824-1.984.306-.346.533-.6.7-.766l.459-.463c.146-.143.336-.356.592-.642.433-.486,1.032-1.162,1.864-2.02L92.827,109a1.246,1.246,0,0,1-.113-1.418,29.581,29.581,0,0,0,3.109-8.457,1.245,1.245,0,0,1,.982-.945l8.7-1.661c-.03-1.085-.1-1.9-.153-2.51-.04-.469-.07-.825-.07-1.085v-.7c0-.566,0-1.651-.143-3.518L96.2,87.675a1.25,1.25,0,0,1-1.048-.875,34.84,34.84,0,0,0-3.8-8.261,1.246,1.246,0,0,1,.017-1.365l4.989-7.482c-.855-.822-1.518-1.415-2-1.841-.333-.3-.582-.519-.749-.682l-.466-.466c-.146-.146-.359-.336-.646-.589-.486-.436-1.162-1.035-2.024-1.867l-6.776,5.545a1.251,1.251,0,0,1-1.421.113A29.3,29.3,0,0,0,73.816,66.8a1.236,1.236,0,0,1-.945-.985l-1.648-8.667-8.051.366-1.038,8.907a1.238,1.238,0,0,1-.872,1.045A34.985,34.985,0,0,0,53,71.263a1.24,1.24,0,0,1-1.365-.013l-7.449-4.966L38.912,72.1l5.578,6.82A1.252,1.252,0,0,1,44.6,80.34,30.121,30.121,0,0,0,41.5,88.794a1.243,1.243,0,0,1-1.215.965l-8.471,1.634c.03,1.1.1,1.914.156,2.52.04.469.07.825.07,1.092v.689c0,.582,0,1.651.136,3.491l8.464.825a1.589,1.589,0,0,1,1.3.879,34.672,34.672,0,0,0,3.794,8.261,1.251,1.251,0,0,1,.01,1.325l-4.976,7.945,5.815,5.275,6.81-5.572A1.224,1.224,0,0,1,54.179,117.843Zm14.012-7.675A16.116,16.116,0,0,1,52.239,94.841,15.636,15.636,0,0,1,56.416,83.3,16.3,16.3,0,0,1,67.546,78a16.231,16.231,0,0,1,12.674,27.1,15.637,15.637,0,0,1-11.176,5.042C68.784,110.158,68.484,110.168,68.191,110.168Zm.243-29.692c-.246,0-.493.007-.746.02a13.818,13.818,0,0,0-9.432,4.49A13.194,13.194,0,0,0,54.728,94.7c.423,7.409,6.936,13.406,14.209,12.954a13.161,13.161,0,0,0,9.446-4.234,13.5,13.5,0,0,0,3.511-9.968A13.8,13.8,0,0,0,68.434,80.476Z" transform="translate(-29.3 -54.601)"/>
    </g>
  </g>
</svg>
