<svg id="Calque_1" data-name="Calque 1" xmlns="http://www.w3.org/2000/svg" viewBox="0 0 27.94 32"><defs><style>.cls-1{fill:#1d1d1b;}</style></defs><title>favicon-julieprune</title><path class="cls-1" d="M13.71,13.44a1.78,1.78,0,0,0-1.25.51,1.51,1.51,0,0,0-.27.39,1.73,1.73,0,1,0,3.25.83,1.67,1.67,0,0,0-.14-.67A1.73,1.73,0,0,0,13.71,13.44Z" transform="translate(-2.03 0)"/><path class="cls-1" d="M19.35,13.44a1.74,1.74,0,0,0-1.24.51,1.07,1.07,0,0,0-.19.28,1.66,1.66,0,0,0-.32.94,1.72,1.72,0,0,0,.13.68,1.77,1.77,0,0,0,1.62,1.06A1.75,1.75,0,0,0,21,15.85a1.91,1.91,0,0,0,.13-.68A1.86,1.86,0,0,0,21,14.5,1.75,1.75,0,0,0,19.35,13.44Z" transform="translate(-2.03 0)"/><path class="cls-1" d="M18.67,4.33,19.18,0A4.89,4.89,0,0,0,14,3a4.68,4.68,0,0,0-.25,1.29,13.94,13.94,0,1,0,5,.06ZM16,27.83A9.8,9.8,0,1,1,25.8,18,9.8,9.8,0,0,1,16,27.83Z" transform="translate(-2.03 0)"/></svg>