<svg xmlns="http://www.w3.org/2000/svg" xmlns:xlink="http://www.w3.org/1999/xlink" width="249" height="249" viewBox="0 0 249 249">
  <defs>
    <clipPath id="clip-figma">
      <rect width="249" height="249"/>
    </clipPath>
  </defs>
  <g id="figma" clip-path="url(#clip-figma)">
    <path id="figma-2" data-name="figma" d="M87.014,124.521a41.507,41.507,0,1,1,41.507,41.507A41.507,41.507,0,0,1,87.014,124.521ZM4,207.535a41.507,41.507,0,0,1,41.507-41.507H87.014v41.507a41.507,41.507,0,0,1-83.014,0ZM87.014,0V83.014h41.507a41.507,41.507,0,1,0,0-83.014ZM4,41.507A41.507,41.507,0,0,0,45.507,83.014H87.014V0H45.507A41.507,41.507,0,0,0,4,41.507Zm0,83.014a41.507,41.507,0,0,0,41.507,41.507H87.014V83.014H45.507A41.507,41.507,0,0,0,4,124.521Z" transform="translate(37 0.094)" fill="#fff"/>
  </g>
</svg>
