<svg xmlns="http://www.w3.org/2000/svg" xmlns:xlink="http://www.w3.org/1999/xlink" width="46" height="39" viewBox="0 0 46 39">
  <defs>
    <clipPath id="clip-heart">
      <rect width="46" height="39"/>
    </clipPath>
  </defs>
  <g id="heart" clip-path="url(#clip-heart)">
    <path id="idée_illu-3" data-name="idée illu-3" d="M442.727,708.2c-.02,2.2-1.471,4.987-3.492,7.524a39.827,39.827,0,0,1-10.956,9.052c-.817.491-1.67.932-2.5,1.4a.673.673,0,0,1-.73.025c-5.251-2.854-10.159-6.151-13.855-10.962a13.463,13.463,0,0,1-3.133-8.374,9.753,9.753,0,0,1,16.963-6.667l.467.582.478-.547a9.738,9.738,0,0,1,10.777-2.21C440.356,699.5,442.732,703.072,442.727,708.2Z" transform="translate(-402.289 -692.031)" fill="none" stroke="#fff" stroke-width="3" fill-rule="evenodd"/>
  </g>
</svg>
