<svg xmlns="http://www.w3.org/2000/svg" xmlns:xlink="http://www.w3.org/1999/xlink" width="82" height="80" viewBox="0 0 82 80">
  <defs>
    <style>
      .cls-1 {
        clip-path: url(#clip-illustrator);
      }

      .cls-2 {
        fill: #fff;
      }
    </style>
    <clipPath id="clip-illustrator">
      <rect width="82" height="80"/>
    </clipPath>
  </defs>
  <g id="illustrator" class="cls-1">
    <path id="adobeillustrator" class="cls-2" d="M0,.3V80.277H82.027V.3ZM3.418,3.718H78.61V76.859H3.418ZM28.453,45.586,25.746,55.833c-.058.284-.171.349-.506.349H20.223c-.342,0-.393-.113-.342-.506l9.707-33.99a10.543,10.543,0,0,0,.335-2.847c0-.226.113-.342.284-.342H37.37c.226,0,.342.062.4.342L48.652,55.73c.058.284,0,.451-.284.451H42.729c-.284,0-.451-.068-.506-.294l-2.82-10.3H28.443Zm9.529-5.554c-.957-3.78-3.213-12.058-4.06-16.064h-.058c-.731,4-2.536,10.766-3.948,16.064Zm15.38-19a3.5,3.5,0,0,1,6.993,0,3.274,3.274,0,0,1-3.555,3.5,3.213,3.213,0,0,1-3.452-3.5Zm.383,7.772c0-.273.113-.376.4-.376h5.366c.3,0,.41.113.41.4V55.812c0,.284-.055.4-.393.4h-5.3c-.342,0-.455-.171-.455-.444V28.8Z" transform="translate(0.213 -0.313)"/>
  </g>
</svg>
