<svg xmlns="http://www.w3.org/2000/svg" xmlns:xlink="http://www.w3.org/1999/xlink" width="373" height="296" viewBox="0 0 373 296">
  <defs>
    <style>
      .cls-1 {
        clip-path: url(#clip-image-julie);
      }

      .cls-2 {
        fill: none;
      }

      .cls-2, .cls-3 {
        stroke: #fff;
        stroke-linecap: round;
        stroke-linejoin: round;
        stroke-width: 6px;
      }

      .cls-3 {
        fill: #fff;
      }
    </style>
    <clipPath id="clip-image-julie">
      <rect width="373" height="296"/>
    </clipPath>
  </defs>
  <g id="image-julie" class="cls-1">
    <g id="Groupe_233" data-name="Groupe 233" transform="translate(10 15)">
      <path id="Tracé_267" data-name="Tracé 267" class="cls-2" d="M126.923,169.274a24.712,24.712,0,0,1-7.665,1.215c-15.288,0-27.682-14-27.682-31.278s12.394-31.277,27.682-31.277,27.682,14,27.682,31.277a34.1,34.1,0,0,1-4.488,17.079" transform="translate(14.168 -38.296)"/>
      <path id="Tracé_268" data-name="Tracé 268" class="cls-2" d="M135.707,107.9c6.16-8.789,15.281-14.354,25.457-14.354,18.553,0,33.593,18.494,33.593,41.309s-15.04,41.31-33.593,41.31" transform="translate(22.348 -40.963)"/>
      <path id="Tracé_269" data-name="Tracé 269" class="cls-2" d="M155.684,166.029c0,5.1-6.333,9.228-14.146,9.228s-14.147-4.132-14.147-9.228,6.333-9.228,14.147-9.228a20.3,20.3,0,0,1,6.73,1.109C152.685,159.472,155.684,162.522,155.684,166.029Z" transform="translate(20.806 -29.238)"/>
      <path id="Tracé_270" data-name="Tracé 270" class="cls-2" d="M225.425,185.592c-4.776,25.477-42.565,39.771-84.4,31.928s-71.885-34.854-67.109-60.331" transform="translate(10.801 -29.167)"/>
      <path id="Tracé_271" data-name="Tracé 271" class="cls-2" d="M141.818,82.223a20.864,20.864,0,0,1-.876-6.744,26.293,26.293,0,0,1,26.294-26.294c14.522,0,27.146,10.618,27.146,25.14" transform="translate(23.318 -49.186)"/>
      <path id="Tracé_272" data-name="Tracé 272" class="cls-2" d="M104.2,67.765a26.3,26.3,0,0,1,47.5-6.14" transform="translate(16.508 -49.186)"/>
      <path id="Tracé_273" data-name="Tracé 273" class="cls-2" d="M186.67,72.355a32.035,32.035,0,0,1,18.313-5.173,33.364,33.364,0,0,1,26.338,53.845" transform="translate(31.794 -45.85)"/>
      <path id="Tracé_274" data-name="Tracé 274" class="cls-2" d="M226.024,114.441q1.205-.076,2.429-.077a37.712,37.712,0,0,1,37.712,37.712,36.606,36.606,0,0,1-14.593,29.8" transform="translate(39.089 -37.105)"/>
      <path id="Tracé_275" data-name="Tracé 275" class="cls-2" d="M241.13,267.075c26.472,0,46.058-21.46,46.058-47.931,0-23.563-16.192-43.4-38.6-47.423" transform="translate(41.889 -26.473)"/>
      <path id="Tracé_276" data-name="Tracé 276" class="cls-2" d="M103.594,72.543a31.613,31.613,0,0,0-18.142-5.361,33.364,33.364,0,0,0-26.338,53.845" transform="translate(6.848 -45.85)"/>
      <path id="Tracé_277" data-name="Tracé 277" class="cls-2" d="M62.607,114.441q-1.206-.076-2.429-.077a37.714,37.714,0,0,0-22.672,67.851" transform="translate(1.357 -37.105)"/>
      <path id="Tracé_278" data-name="Tracé 278" class="cls-2" d="M48.419,267.036c-26.471,0-46.051-21.46-46.051-47.931a47.946,47.946,0,0,1,39.409-47.176" transform="translate(-2.368 -26.434)"/>
      <path id="Tracé_279" data-name="Tracé 279" class="cls-2" d="M149.361,235.027s12.2,45.347-22.352,36.456c-23.183-5.966-23.864,16.829-24.5,26.2-1.1,16.234-24.049,14.273-28.746,14.273a30.782,30.782,0,0,1-30.781-30.783c0-15.7,11.483-29.015,26.673-30.9a35.925,35.925,0,0,1-41.206-37.006c.793-19.427,17.3-34.457,36.746-34.394a21.052,21.052,0,0,1,4.04.3.167.167,0,0,0,.127-.3c-10.417-7.15-17.56-20.508-16.474-34.187C54.345,126.368,71.3,111,89.667,111.187a36.362,36.362,0,0,1,16.156,3.943.092.092,0,0,0,.115-.142c-4.279-5.489-6.319-12.411-6.319-19.926a32.331,32.331,0,0,1,61.575-13.782.59.59,0,0,0,1.075,0,33.411,33.411,0,0,1,29.94-18.545,32.33,32.33,0,0,1,26.851,50.332.718.718,0,0,0,.877,1.067,39.4,39.4,0,0,1,14.92-2.948,36.526,36.526,0,0,1,36.527,36.526c0,15.966-9.972,28.5-24.245,33.466a35.9,35.9,0,1,1,14.076,69.46,36.279,36.279,0,0,1-6.717-.369c15.652,1.946,27.365,16.02,26.641,32.338-.76,17.107-15.951,30.03-33.06,29.3-4.1-.174-8.117-.9-11.269-3.1-10.632-7.427,4.075-35.032-9.495-45.278-8.326-6.287-25,6.028-40.427,1.856-15.072-4.075-12.859-27.308-12.859-27.308" transform="translate(2.461 -46.675)"/>
      <path id="Tracé_280" data-name="Tracé 280" class="cls-2" d="M89.309,157.188s-17.177,17.791,16.635,23.386,44.184,13.851,68.53,13.129c22.005-.653,37.429-4.561,37.609-27.746" transform="translate(12.939 -29.167)"/>
      <circle id="Ellipse_16" data-name="Ellipse 16" class="cls-3" cx="3.403" cy="3.403" r="3.403" transform="translate(140.925 90.1)"/>
      <circle id="Ellipse_17" data-name="Ellipse 17" class="cls-3" cx="3.403" cy="3.403" r="3.403" transform="translate(181.153 87.506)"/>
      <path id="Tracé_281" data-name="Tracé 281" class="cls-2" d="M170.581,233.807a29.423,29.423,0,0,1-51.388,6.8" transform="translate(19.287 -14.964)"/>
      <path id="Tracé_282" data-name="Tracé 282" class="cls-2" d="M240.638,256.383s17.533,31.129,33.763,18.609,8.637-29.365-1.852-26.271-4.534,23.034,16.357,22.69c0,0,17.235-.53,22.68-15.305" transform="translate(41.798 -12.269)"/>
      <path id="Tracé_283" data-name="Tracé 283" class="cls-2" d="M241.13,252.164" transform="translate(41.889 -11.562)"/>
    </g>
  </g>
</svg>
