<svg xmlns="http://www.w3.org/2000/svg" xmlns:xlink="http://www.w3.org/1999/xlink" width="82" height="80" viewBox="0 0 82 80">
  <defs>
    <style>
      .cls-1 {
        clip-path: url(#clip-indesign);
      }

      .cls-2 {
        fill: #fff;
      }
    </style>
    <clipPath id="clip-indesign">
      <rect width="82" height="80"/>
    </clipPath>
  </defs>
  <g id="indesign" class="cls-1">
    <path id="adobeindesign" class="cls-2" d="M0,.3V80.277H82.027V.3ZM3.418,3.718H78.61V76.859H3.418ZM29.991,55.73c0,.342-.058.451-.451.451H24.29c-.342,0-.451-.171-.451-.451V19.036c0-.342.171-.451.451-.451H29.6c.28,0,.393.113.393.4ZM36.041,42.5c0-8.179,5.393-14.55,14.02-14.55.731,0,1.128,0,1.8.051V18.927a.33.33,0,0,1,.342-.342h5.554c.287,0,.342.116.342.287V50.846a25.459,25.459,0,0,0,.171,3.431c0,.226-.068.284-.3.4a20.722,20.722,0,0,1-8.968,2.034c-7.564,0-12.977-4.682-12.977-14.211Zm15.824-8.968a5.065,5.065,0,0,0-2.03-.342c-4.392,0-7.475,3.384-7.475,9.023,0,6.432,3.138,9.023,7.085,9.023a6.614,6.614,0,0,0,2.427-.393V33.528Z" transform="translate(0.418 -0.313)"/>
  </g>
</svg>
