<svg xmlns="http://www.w3.org/2000/svg" xmlns:xlink="http://www.w3.org/1999/xlink" width="82" height="80" viewBox="0 0 82 80">
  <defs>
    <style>
      .cls-1 {
        clip-path: url(#clip-invision);
      }

      .cls-2 {
        fill: #fff;
      }
    </style>
    <clipPath id="clip-invision">
      <rect width="82" height="80"/>
    </clipPath>
  </defs>
  <g id="invision" class="cls-1">
    <path id="invision-2" data-name="invision" class="cls-2" d="M67.918,0H6.768A6.773,6.773,0,0,0,0,6.768v61.15a6.773,6.773,0,0,0,6.768,6.768h61.15a6.773,6.773,0,0,0,6.768-6.768V6.768A6.773,6.773,0,0,0,67.918,0ZM24.958,14.523a4.488,4.488,0,1,1,0,8.975v.084a4.528,4.528,0,0,1,0-9.056ZM55.5,57.515c-4.618,0-6.859-2.754-6.859-6.5a12.131,12.131,0,0,1,.467-3.361l2.209-7.92a7.89,7.89,0,0,0,.342-2.412,3.761,3.761,0,0,0-4.033-4.092c-3.152,0-5.228,2.262-6.3,6.628L37.035,57.079H29.523l1.344-5.415c-2.2,3.629-5.275,5.866-9.056,5.866-4.565,0-6.712-2.62-6.712-6.576a15.6,15.6,0,0,1,.4-3.376v.006l3.423-13.973H13.615l1.612-5.928H27.986L22.944,47.616a13.072,13.072,0,0,0-.467,3.068c0,1.276.629,1.649,1.609,1.88.607.124,5.368.037,7.967-5.726l3.3-13.226H29.99l1.618-5.835H43.184L41.691,34.5c2.013-3.734,6.028-7.329,10-7.329,4.2,0,7.7,3.034,7.7,8.776a16.368,16.368,0,0,1-.747,4.9l-2.147,7.705a9.222,9.222,0,0,0-.324,2.054c0,1.351.56,2.007,1.537,2.007s2.287-.747,3.734-4.855l2.935,1.12c-1.727,6.112-4.9,8.633-8.869,8.633Z" transform="translate(3.657 2.657)"/>
  </g>
</svg>
