<svg xmlns="http://www.w3.org/2000/svg" xmlns:xlink="http://www.w3.org/1999/xlink" width="100" height="100" viewBox="0 0 100 100">
  <defs>
    <style>
      .cls-1 {
        clip-path: url(#clip-jam-hackaton);
      }

      .cls-2 {
        fill: none;
        stroke: #fff;
        stroke-miterlimit: 10;
        stroke-width: 2px;
      }
    </style>
    <clipPath id="clip-jam-hackaton">
      <rect width="100" height="100"/>
    </clipPath>
  </defs>
  <g id="jam-hackaton" class="cls-1">
    <g id="Groupe_374" data-name="Groupe 374" transform="translate(-231.515 0.685)">
      <path id="Tracé_474" data-name="Tracé 474" class="cls-2" d="M311.783,54.666a30.55,30.55,0,1,1-33.992-30.359,30.934,30.934,0,0,1,3.442-.192A30.55,30.55,0,0,1,311.783,54.666Z" transform="translate(0.112 2.183)"/>
      <path id="Tracé_475" data-name="Tracé 475" class="cls-2" d="M273.469,26.491V18.375H267V12.153h21.045v6.294h-6.727v7.3" transform="translate(3.09 0)"/>
      <path id="Tracé_476" data-name="Tracé 476" class="cls-2" d="M256.439,36.857l-6.371-6.371,4.836-4.836,5.856,5.856" transform="translate(0 2.463)"/>
      <path id="Tracé_477" data-name="Tracé 477" class="cls-2" d="M298.049,36.857l6.371-6.371-4.836-4.836-5.856,5.856" transform="translate(7.968 2.463)"/>
      <path id="Tracé_478" data-name="Tracé 478" class="cls-2" d="M303.909,53.613a23.728,23.728,0,1,1-26.4-23.58,24.037,24.037,0,0,1,2.674-.149A23.729,23.729,0,0,1,303.909,53.613Z" transform="translate(1.165 3.236)"/>
      <line id="Ligne_179" data-name="Ligne 179" class="cls-2" y2="3.836" transform="translate(281.345 33.121)"/>
      <line id="Ligne_180" data-name="Ligne 180" class="cls-2" y2="3.836" transform="translate(281.345 77.399)"/>
      <line id="Ligne_181" data-name="Ligne 181" class="cls-2" x1="3.836" transform="translate(301.566 56.849)"/>
      <line id="Ligne_182" data-name="Ligne 182" class="cls-2" x1="3.836" transform="translate(257.288 56.849)"/>
      <g id="Groupe_373" data-name="Groupe 373" transform="translate(278.299 46.089)">
        <circle id="Ellipse_27" data-name="Ellipse 27" class="cls-2" cx="4.106" cy="4.106" r="4.106" transform="translate(0 6.823)"/>
        <path id="Tracé_479" data-name="Tracé 479" class="cls-2" d="M279.263,48.07,290.9,40.978c.635-.387,1.054.189.517.712l-10.114,9.85" transform="translate(-272.971 -40.851)"/>
      </g>
    </g>
  </g>
</svg>
