<svg xmlns="http://www.w3.org/2000/svg" xmlns:xlink="http://www.w3.org/1999/xlink" width="249" height="249" viewBox="0 0 249 249">
  <defs>
    <clipPath id="clip-jquery">
      <rect width="249" height="249"/>
    </clipPath>
  </defs>
  <g id="jquery" clip-path="url(#clip-jquery)">
    <path id="jquery-2" data-name="jquery" d="M15.781,56.577C-6.2,88.154-3.475,129.224,13.328,162.758c.383.818.808,1.594,1.222,2.371a16.694,16.694,0,0,0,.8,1.543,8.743,8.743,0,0,0,.487.859c.269.538.559,1.056.839,1.574l1.625,2.744c.3.507.59,1,.932,1.512.569.973,1.242,1.936,1.832,2.909.269.4.518.808.818,1.211q1.506,2.366,3.209,4.6c.808,1.108,1.615,2.184,2.485,3.261.28.393.59.787.88,1.18l2.288,2.785c.28.321.559.694.859,1.025,1.015,1.222,2.091,2.412,3.168,3.613,0,.021.031.041.052.072a32.4,32.4,0,0,0,4.39,4.555c.828.849,1.656,1.7,2.537,2.526l1.046,1c1.149,1.077,2.3,2.153,3.51,3.189.021,0,.031.021.052.031l.59.518c1.056.921,2.122,1.843,3.209,2.692l1.294,1.087c.88.7,1.791,1.377,2.692,2.071l1.408,1.077c.963.725,1.988,1.439,2.971,2.143.362.259.725.518,1.1.756l.3.238,2.909,1.915,1.242.828c1.522.973,3.033,1.895,4.535,2.806.435.217.87.456,1.273.7,1.118.642,2.278,1.294,3.406,1.895.621.352,1.263.652,1.9.973.776.435,1.584.859,2.412,1.294a3.357,3.357,0,0,1,.58.238c.342.155.663.321.994.487,1.242.621,2.536,1.211,3.882,1.8a8.436,8.436,0,0,1,.787.352c1.491.652,2.982,1.273,4.524,1.884.352.1.725.28,1.087.414,1.4.528,2.837,1.066,4.255,1.574l.518.186c1.584.538,3.147,1.056,4.752,1.553.373.1.756.238,1.149.342a50.341,50.341,0,0,0,4.9,1.408c106.223,19.36,137.1-63.868,137.1-63.868-25.934,33.772-71.954,42.675-115.54,32.767-1.615-.373-3.23-.89-4.856-1.367q-2.955-.872-5.87-1.874l-.642-.248c-1.408-.476-2.764-1-4.141-1.532q-.562-.233-1.139-.424c-1.522-.611-3-1.242-4.473-1.895-.321-.1-.59-.248-.911-.373q-1.876-.864-3.737-1.76c-.383-.166-.725-.342-1.1-.538-.973-.456-1.946-.973-2.9-1.47q-.981-.471-1.936-.994c-1.17-.621-2.34-1.294-3.51-1.936-.352-.248-.756-.456-1.16-.683q-2.29-1.356-4.535-2.785-.624-.388-1.222-.818-1.648-1.016-3.23-2.133c-.362-.238-.694-.5-1.066-.756q-1.543-1.068-3.044-2.195c-.435-.352-.9-.683-1.367-1.035-.911-.714-1.833-1.4-2.744-2.153l-1.222-.973q-1.759-1.419-3.458-2.909a2.673,2.673,0,0,0-.383-.311l-3.593-3.272-1.035-.973c-.849-.859-1.719-1.688-2.588-2.536l-1-1.035q-1.64-1.632-3.2-3.344l-.155-.166c-1.1-1.2-2.164-2.423-3.241-3.665-.28-.321-.538-.663-.828-1l-2.34-2.868q-1.791-2.3-3.52-4.638C22.262,117.784,13.514,72.231,32.864,34.867M83.977,29.98c-15.933,22.87-15.033,53.453-2.63,77.637a94.213,94.213,0,0,0,7.009,11.72c2.381,3.417,5.011,7.454,8.2,10.208,1.108,1.263,2.309,2.485,3.561,3.717l.932.932q1.77,1.708,3.624,3.365l.155.135q2.094,1.829,4.286,3.541c.352.238.652.518.994.756,1.449,1.118,2.909,2.195,4.421,3.261l.155.093c.642.466,1.325.89,2.05,1.346.29.186.621.435.932.621,1.1.7,2.174,1.367,3.282,2.04.176.072.331.166.5.238.932.569,1.946,1.118,2.92,1.625.342.207.673.362,1.025.559.694.342,1.377.7,2.04,1.056l.331.145c1.4.683,2.826,1.325,4.224,1.967.352.135.652.248.952.393,1.149.5,2.319.973,3.468,1.418.518.176,1,.383,1.491.538,1.056.393,2.164.756,3.209,1.118l1.449.466a35.039,35.039,0,0,0,4.638,1.336c82,13.594,100.984-49.56,100.984-49.56-17.093,24.6-50.171,36.318-85.423,27.166q-2.338-.605-4.638-1.346c-.5-.135-.932-.29-1.408-.435-1.077-.373-2.185-.735-3.23-1.128l-1.491-.559c-1.16-.466-2.34-.9-3.468-1.4-.352-.155-.673-.259-.942-.414-1.449-.652-2.909-1.294-4.317-1.988l-2.133-1.108-1.232-.621c-.952-.5-1.833-1.015-2.744-1.553a6.42,6.42,0,0,1-.642-.352c-1.1-.683-2.236-1.346-3.282-2.05-.352-.2-.673-.435-1-.642l-2.153-1.408c-1.491-1.035-2.951-2.153-4.421-3.23-.331-.3-.652-.549-.973-.818-15.5-12.186-27.726-28.844-33.523-47.707-6.108-19.609-4.762-41.6,5.787-59.447m44.384-1.522c-9.4,13.79-10.3,30.914-3.831,46.123,6.874,16.151,20.934,28.833,37.313,34.838.673.259,1.325.476,2.019.725l.911.28c.952.3,1.915.652,2.9.87,45.305,8.738,57.563-23.263,60.866-27.964-10.788,15.488-28.875,19.2-51.061,13.811a50.152,50.152,0,0,1-5.342-1.656,65.682,65.682,0,0,1-6.388-2.63,67.514,67.514,0,0,1-11.181-6.833C147.648,52.6,135.339,23.861,148.3.453" transform="translate(-0.011 4.652)" fill="#fff"/>
  </g>
</svg>
