<svg xmlns="http://www.w3.org/2000/svg" xmlns:xlink="http://www.w3.org/1999/xlink" width="181" height="392" viewBox="0 0 181 392">
  <defs>
    <style>
      .cls-1 {
        clip-path: url(#clip-level-bonus);
      }

      .cls-2 {
        fill: #fff;
      }

      .cls-3 {
        fill: none;
        stroke: #fff;
        stroke-miterlimit: 10;
        stroke-width: 4.5px;
      }

      .cls-4 {
        fill: #2e6e6a;
      }
    </style>
    <clipPath id="clip-level-bonus">
      <rect width="181" height="392"/>
    </clipPath>
  </defs>
  <g id="level-bonus" class="cls-1">
    <path id="Tracé_368" data-name="Tracé 368" class="cls-2" d="M299.355,1031.138l-2.508-.8V692.682L366.53,676.65v333.7l-64.667,19.694Zm2.508-334.464V1024.8l59.652-18.162V682.952Z" transform="translate(-209.351 -655.196)"/>
    <path id="Tracé_369" data-name="Tracé 369" class="cls-3" d="M278.307,701.177v-16.64L342.745,673.4l64.725,11.274V699" transform="translate(-252.798 -662.818)"/>
    <g id="Groupe_227" data-name="Groupe 227" transform="translate(23.003 21.313)">
      <path id="Tracé_370" data-name="Tracé 370" class="cls-4" d="M278.307,677.552,342.8,692.467v333.9L278.307,1006.6Z" transform="translate(-275.801 -674.396)"/>
      <path id="Tracé_371" data-name="Tracé 371" class="cls-2" d="M342.055,1030.438l-64.5-19.767V676.608l69.509,16.076V1030.14Zm-59.482-23.478,59.478,18.229V696.673l-59.478-13.755Z" transform="translate(-277.558 -676.608)"/>
    </g>
    <g id="Groupe_229" data-name="Groupe 229" transform="translate(107.146 86.493)">
      <g id="Groupe_228" data-name="Groupe 228">
        <path id="Tracé_372" data-name="Tracé 372" d="M304.735,720.851v-3.4l2.534-.652c-.589-.425-2.932-2.207-2.932-7.2,0-6.583,3.481-12.074,8.359-13.27s8.325,2.327,8.325,8.8a13.541,13.541,0,0,1-2.939,8.75l8.66-2.227v3.484Zm14.106-14.782c0-4.464-2.554-7.068-6.179-6.172-3.708.919-6.139,4.918-6.139,9.328,0,4.808,2.8,7.045,6.139,6.186C316.594,714.4,318.841,710.315,318.841,706.069Z" transform="translate(-298.944 -696.102)"/>
        <path id="Tracé_373" data-name="Tracé 373" d="M321.021,713.228c0,6.687-3.33,11.716-8.085,13.03a6.884,6.884,0,0,1-.732.157V708.089c-3.558.98-5.714,4.992-5.714,9.757,0,3.882,1.418,5.657,2.494,6.463l-1.167,2.611c-1.508-.863-3.481-3.324-3.481-8.536,0-6.978,3.42-12.692,8.325-13.979C317.718,703.077,321.021,707.2,321.021,713.228Zm-7.015,9.175c3.287-1.12,4.958-4.858,4.958-8.62,0-3.721-1.979-6.523-4.958-5.995Z" transform="translate(-298.944 -677.229)"/>
        <path id="Tracé_374" data-name="Tracé 374" d="M324.41,711.44v3.324l-2.487.7c.575.4,2.879,2.157,2.879,7.1,0,6.463-3.427,12.1-8.269,13.518-4.935,1.451-8.416-1.989-8.416-8.483a14.119,14.119,0,0,1,2.989-8.967l-8.382,2.357v-3.5Zm-14.073,15.126c0,4.5,2.548,7.025,6.2,5.962,3.718-1.083,6.089-5.186,6.089-9.562,0-4.728-2.762-6.925-6.089-5.988C312.611,718.077,310.337,722.243,310.337,726.566Z" transform="translate(-302.724 -660.157)"/>
        <path id="Tracé_375" data-name="Tracé 375" d="M310.737,722.319l9.893-2.929v3.454l-9.99,2.979c-2.541.756-4.082,3.554-4.082,6.64,0,3.527,1.815,5.4,4.454,4.594l9.619-2.936v3.5l-15.9,4.888v-3.491l2.317-.705c-1.454-.615-2.715-2.835-2.715-5.972C304.337,726.993,307.112,723.389,310.737,722.319Z" transform="translate(-298.944 -641.526)"/>
        <path id="Tracé_376" data-name="Tracé 376" d="M320.351,727.937v3.454l-15.9,4.978v-3.491Zm5.667-.067a3.045,3.045,0,0,1-1.625,2.906c-.933.291-1.658-.528-1.658-1.879a3.005,3.005,0,0,1,1.658-2.872C325.293,725.744,326.018,726.563,326.018,727.87Z" transform="translate(-298.665 -626.107)"/>
        <path id="Tracé_377" data-name="Tracé 377" d="M308.861,733.633a9.183,9.183,0,0,0-2.454,6.52c0,2.29.919,3.932,2.548,3.407,3.675-1.19,2.421-12.264,7.791-13.963,2.671-.846,4.276,1.839,4.276,5.948,0,4.236-1.849,7.025-3.029,8.021l-1.006-2.217a7.23,7.23,0,0,0,2.036-5.38c0-2.1-.816-3.5-2.187-3.069-3.564,1.133-2.22,12.2-7.757,14.009-2.829.919-4.741-1.809-4.741-6.273,0-4.811,1.912-7.583,3.42-9.074Z" transform="translate(-298.944 -617.97)"/>
        <path id="Tracé_378" data-name="Tracé 378" d="M305.489,743.421c6.654-2.234,10.348,12.705,16.377,10.626,2.377-.823,4.153-3.661,4.153-7.583,0-3.828-1.705-5.042-3.611-5.122l.665-3.671c1.939-.12,5.48,1.307,5.48,8.024,0,6.43-2.865,11.054-6.62,12.361-7.008,2.438-10.88-11.518-15.009-10.562v16.273l-2.468.859V743.761Z" transform="translate(-298.665 -598.703)"/>
        <path id="Tracé_379" data-name="Tracé 379" d="M304.323,762.217c0-8.589,4.551-12.689,12.368-15.437,7.734-2.715,12.174-1.809,12.174,6.654s-4.44,12.541-12.174,15.367C308.874,771.656,304.323,770.814,304.323,762.217Zm2.6-.933c0,6.473,4.2,5.49,9.763,3.474,5.52-2,9.639-4.029,9.639-10.422s-4.153-5.5-9.639-3.561C311.1,752.755,306.928,754.818,306.928,761.285Z" transform="translate(-298.977 -580.534)"/>
        <path id="Tracé_380" data-name="Tracé 380" d="M326.523,752.619l1.6,5.26v3.193l-23.666,8.844V765.94l20.931-7.767-1.1-3.517Z" transform="translate(-298.665 -563.653)"/>
        <path id="Tracé_381" data-name="Tracé 381" d="M312.581,758.563l15.541,9.563v4.156l-15.163,5.911v4.49l-2.447.963v-4.5l-6.055,2.357v-3.925l6.055-2.344V759.342Zm.378,15.725,11.656-4.517-11.656-7.008Z" transform="translate(-298.665 -549.723)"/>
      </g>
    </g>
  </g>
</svg>
