<svg xmlns="http://www.w3.org/2000/svg" xmlns:xlink="http://www.w3.org/1999/xlink" width="275" height="691" viewBox="0 0 275 691">
  <defs>
    <style>
      .cls-1 {
        clip-path: url(#clip-level-up-image-home-mobile);
      }

      .cls-12, .cls-2, .cls-6, .cls-8 {
        fill: none;
      }

      .cls-2, .cls-3, .cls-4, .cls-5, .cls-6, .cls-8, .cls-9 {
        stroke: #fff;
      }

      .cls-2, .cls-3, .cls-4, .cls-5, .cls-6, .cls-7, .cls-8, .cls-9 {
        stroke-miterlimit: 10;
      }

      .cls-2, .cls-3, .cls-4, .cls-5, .cls-8, .cls-9 {
        stroke-width: 4px;
      }

      .cls-3 {
        fill: #429791;
      }

      .cls-4 {
        fill: #388580;
      }

      .cls-5 {
        fill: #2e6e6a;
      }

      .cls-6 {
        stroke-width: 3px;
      }

      .cls-7 {
        fill: #161615;
      }

      .cls-8 {
        opacity: 0.98;
      }

      .cls-11, .cls-9 {
        fill: #fff;
      }

      .cls-10, .cls-11 {
        stroke: none;
      }
    </style>
    <clipPath id="clip-level-up-image-home-mobile">
      <rect width="275" height="691"/>
    </clipPath>
  </defs>
  <g id="level-up-image-home-mobile" class="cls-1">
    <path id="Tracé_510" data-name="Tracé 510" class="cls-2" d="M-2031.934,1515.954l-87.521,26.506V1378.591l87.521-35.816Z" transform="translate(2137.047 -888.156)"/>
    <path id="Tracé_511" data-name="Tracé 511" class="cls-2" d="M-2043.093,1458.667l-70.846,28.992V1322.015l70.846-36.526Z" transform="translate(2148.209 -1031.048)"/>
    <path id="BLEU" class="cls-3" d="M-2090.5,1515.952l87.415,26.508V1378.589l-87.415-35.814Z" transform="translate(2195.619 -888.156)"/>
    <path id="BLEU-2" data-name="BLEU" class="cls-4" d="M-2090.5,1458.667l70.765,28.992V1322.015l-70.765-36.526Z" transform="translate(2195.619 -1031.048)"/>
    <path id="Tracé_512" data-name="Tracé 512" class="cls-2" d="M-2123.29,1456.292v25.693l87.6,17.45,87.339-17.45v-25.693" transform="translate(2140.882 -824.509)"/>
    <g id="Groupe_519" data-name="Groupe 519" transform="translate(-1218 -228)">
      <path id="Tracé_97" data-name="Tracé 97" class="cls-2" d="M-2050.671,1401.38l-59.522,30.689V1265.221l59.522-37.019Z" transform="translate(3373.785 -995.939)"/>
      <path id="idée_illu-3-trans" data-name="idée illu-3-trans" class="cls-5" d="M-2090.5,1401.38l59.452,30.688V1265.22L-2090.5,1228.2Z" transform="translate(3413.619 -995.939)"/>
      <path id="Tracé_114" data-name="Tracé 114" class="cls-6" d="M-2057.333,1282.166l-24.44-14.174-.28-29.535,24.72,14.326Z" transform="translate(3430.713 -975.196)"/>
      <line id="Ligne_68" data-name="Ligne 68" class="cls-6" x2="13.988" y2="22.889" transform="translate(1354.473 273.237)"/>
      <line id="Ligne_69" data-name="Ligne 69" class="cls-6" y1="7.257" x2="13.988" transform="translate(1354.473 282.138)"/>
    </g>
    <path id="Tracé_513" data-name="Tracé 513" class="cls-2" d="M-2071.9,1305.928" transform="translate(2233.254 -989.699)"/>
    <path id="Tracé_514" data-name="Tracé 514" class="cls-2" d="M-2076.527,1298.357" transform="translate(2223.893 -1005.015)"/>
    <path id="Tracé_515" data-name="Tracé 515" class="cls-2" d="M-2071.9,1301.3" transform="translate(2233.254 -999.06)"/>
    <path id="Tracé_516" data-name="Tracé 516" class="cls-2" d="M-2076.527,1303.7" transform="translate(2223.893 -994.204)"/>
    <path id="Tracé_517" data-name="Tracé 517" class="cls-2" d="M-2123.29,1456.292v25.693l59.463,24.306,59.559-24.306v-25.693" transform="translate(2168.835 -1271.51)"/>
    <path id="Tracé_518" data-name="Tracé 518" class="cls-2" d="M-2123.29,1456.292V1482.9l34.59,10.6,36.1-14.293,35.979,14.293,34.976-10.6v-26.609" transform="translate(2157.522 -1024.509)"/>
    <g id="Groupe_520" data-name="Groupe 520" transform="translate(223.187 -1470.255)">
      <g id="Tracé_430" data-name="Tracé 430" class="cls-7" transform="translate(38.736 39.649)">
        <path class="cls-10" d="M -51.99478530883789 1856.957275390625 C -53.0387077331543 1856.957275390625 -53.88799667358398 1855.924194335938 -53.88799667358398 1854.654296875 C -53.88799667358398 1853.987548828125 -53.67768478393555 1853.385864257813 -53.31099700927734 1853.003540039063 L -53.28699493408203 1852.978515625 L -53.26387405395508 1852.95263671875 C -52.91191482543945 1852.559204101563 -52.47307586669922 1852.351318359375 -51.99478530883789 1852.351318359375 C -50.99448394775391 1852.351318359375 -50.14939498901367 1853.406005859375 -50.14939498901367 1854.654296875 C -50.14939498901367 1855.902587890625 -50.99448394775391 1856.957275390625 -51.99478530883789 1856.957275390625 Z"/>
        <path class="cls-11" d="M -51.99478530883789 1850.351318359375 C -49.87497329711914 1850.351318359375 -48.14939498901367 1852.280029296875 -48.14939498901367 1854.654296875 C -48.14939498901367 1857.025634765625 -49.87497329711914 1858.957275390625 -51.99478530883789 1858.957275390625 C -54.16371917724609 1858.957275390625 -55.88799667358398 1857.025634765625 -55.88799667358398 1854.654296875 C -55.88799667358398 1853.493896484375 -55.49505233764648 1852.391357421875 -54.75441741943359 1851.619140625 C -54.01507186889648 1850.792724609375 -53.03012847900391 1850.351318359375 -51.99478530883789 1850.351318359375 Z"/>
      </g>
      <g id="Tracé_429" data-name="Tracé 429" class="cls-7" transform="translate(26.382 39.649)">
        <path class="cls-10" d="M -51.99478530883789 1856.957275390625 C -53.0387077331543 1856.957275390625 -53.88799667358398 1855.924194335938 -53.88799667358398 1854.654296875 C -53.88799667358398 1853.987548828125 -53.67768478393555 1853.385864257813 -53.31099700927734 1853.003540039063 L -53.28699493408203 1852.978515625 L -53.26387405395508 1852.95263671875 C -52.91191482543945 1852.559204101563 -52.47307586669922 1852.351318359375 -51.99478530883789 1852.351318359375 C -50.99448394775391 1852.351318359375 -50.14939498901367 1853.406005859375 -50.14939498901367 1854.654296875 C -50.14939498901367 1855.902587890625 -50.99448394775391 1856.957275390625 -51.99478530883789 1856.957275390625 Z"/>
        <path class="cls-11" d="M -51.99478530883789 1850.351318359375 C -49.87497329711914 1850.351318359375 -48.14939498901367 1852.280029296875 -48.14939498901367 1854.654296875 C -48.14939498901367 1857.025634765625 -49.87497329711914 1858.957275390625 -51.99478530883789 1858.957275390625 C -54.16371917724609 1858.957275390625 -55.88799667358398 1857.025634765625 -55.88799667358398 1854.654296875 C -55.88799667358398 1853.493896484375 -55.49505233764648 1852.391357421875 -54.75441741943359 1851.619140625 C -54.01507186889648 1850.792724609375 -53.03012847900391 1850.351318359375 -51.99478530883789 1850.351318359375 Z"/>
      </g>
      <path id="Tracé_423" data-name="Tracé 423" class="cls-8" d="M-49.235,1818.862s-5.848-2.715-5.365-7.378,5.586-4.271,5.586-4.271" transform="matrix(0.891, 0.454, -0.454, 0.891, 863.844, 250.135)"/>
      <circle id="Ellipse_18" data-name="Ellipse 18" class="cls-2" cx="40.255" cy="40.255" r="40.255" transform="translate(-36.187 1846.745)"/>
      <g id="Ellipse_19" data-name="Ellipse 19" class="cls-9" transform="translate(-36.506 1923.211)">
        <ellipse class="cls-10" cx="11.813" cy="10.871" rx="11.813" ry="10.871"/>
        <ellipse class="cls-12" cx="11.813" cy="10.871" rx="9.813" ry="8.871"/>
      </g>
      <path id="Tracé_424" data-name="Tracé 424" class="cls-2" d="M-22.463,1883.284a8.635,8.635,0,0,0-8.634-8.634,8.634,8.634,0,0,0-8.634,8.634Z" transform="matrix(0.087, 0.996, -0.996, 0.087, 1849.045, 1835.932)"/>
      <path id="Tracé_425" data-name="Tracé 425" class="cls-2" d="M-44.368,1884.4a8.632,8.632,0,0,0-4.679-11.278,8.632,8.632,0,0,0-11.278,4.679Z" transform="matrix(1, -0.017, 0.017, 1, -18.951, 71.776)"/>
    </g>
  </g>
</svg>
