<svg xmlns="http://www.w3.org/2000/svg" xmlns:xlink="http://www.w3.org/1999/xlink" width="281" height="752" viewBox="0 0 281 752">
  <defs>
    <clipPath id="clip-level-experience_1">
      <rect width="281" height="752"/>
    </clipPath>
  </defs>
  <g id="level-experience_1" data-name="level-experience – 1" clip-path="url(#clip-level-experience_1)">
    <g id="Groupe_583" data-name="Groupe 583">
      <path id="Tracé_351" data-name="Tracé 351" d="M267.149,681.786V495.759l99.31-15.725,2.5.4V676.49Zm5.015-181.741V676.5l91.78-4.774V485.511Z" transform="translate(-225.949 -469.973)" fill="#fff"/>
      <path id="Tracé_352" data-name="Tracé 352" d="M356.033,734.12l-83.368-4.531V541.625l83.368-4.336Zm-78.352-9.278,73.337,3.982V542.572l-73.337,3.815Z" transform="translate(-213.022 -335.793)" fill="#fff"/>
      <path id="Tracé_353" data-name="Tracé 353" d="M344.734,793.8l-68.325-10.98V593.5l70.849,3.852V793.4Zm-63.31-15.25,60.819,9.773V602.1l-60.819-3.3Z" transform="translate(-204.248 -204.052)" fill="#fff"/>
      <path id="Tracé_542" data-name="Tracé 542" d="M333.613,761.2l-57.2-9.193.146-156.667,58.821,8.485.351,157.037Zm-53.005-12.768,50.92,8.182L331.177,607.8l-50.423-8.026Z" transform="translate(-193.131 -18.751)" fill="#fff"/>
      <g id="Groupe_220" data-name="Groupe 220" transform="translate(137.995 10.064)">
        <path id="Tracé_354" data-name="Tracé 354" d="M296.849,480.794l96.675,15.327V677.364l-96.675-5.035Z" transform="translate(-294.342 -478.256)" fill="#53afa9"/>
        <path id="Tracé_355" data-name="Tracé 355" d="M397.789,681.784l-101.69-5.3V480.43l2.511-.395,2.5.395,96.675,15.327Zm-96.675-10.057,91.66,4.774V500.043l-91.66-14.534Z" transform="translate(-296.099 -480.035)" fill="#fff"/>
      </g>
      <g id="Groupe_221" data-name="Groupe 221" transform="translate(137.995 201.496)">
        <path id="Tracé_356" data-name="Tracé 356" d="M296.849,538.079l78.253,4.075V725.363l-78.253,4.258Z" transform="translate(-294.342 -535.437)" fill="#429791"/>
        <path id="Tracé_357" data-name="Tracé 357" d="M296.1,734.12V537.289l83.267,4.336V729.589Zm5.015-191.548V728.823l73.237-3.982V546.387Z" transform="translate(-296.099 -537.289)" fill="#fff"/>
      </g>
      <g id="Groupe_578" data-name="Groupe 578" transform="translate(138.396 574.753)">
        <path id="Tracé_358" data-name="Tracé 358" d="M296.849,597.292l55.051-3v154.5l-55.051,8.857Z" transform="translate(-294.75 -592.079)" fill="#388580"/>
        <path id="Tracé_359" data-name="Tracé 359" d="M296.1,760.862V596.729l59.25-3.225v158.5L298.2,761.2ZM300.3,600.7V756.615l50.853-8.182V597.938Z" transform="translate(-296.099 -593.504)" fill="#fff"/>
      </g>
      <g id="Groupe_222" data-name="Groupe 222" transform="translate(137.995 389.452)">
        <path id="Tracé_358-2" data-name="Tracé 358" d="M296.849,597.875,362.6,594.3V778.83L296.849,789.41Z" transform="translate(-294.342 -591.648)" fill="#388580"/>
        <path id="Tracé_359-2" data-name="Tracé 359" d="M296.1,793.4V597.356l70.769-3.852V782.821l-68.262,10.984ZM301.114,602.1V788.325l60.739-9.773V598.8Z" transform="translate(-296.099 -593.504)" fill="#fff"/>
      </g>
      <g id="Groupe_579" data-name="Groupe 579" transform="translate(104.015 620.929)">
        <g id="Groupe_225" data-name="Groupe 225">
          <path id="Tracé_364" data-name="Tracé 364" d="M304.736,593.729c-6.035-.154-9.389-14.873-14.856-14.954-2.158-.034-3.765,1.957-3.765,5.506,0,3.46,1.545,5.117,3.278,5.812l-.6,3.1c-1.761-.529-4.972-2.967-4.972-9.047,0-5.817,2.6-9.064,6-9.022,6.357.081,9.868,13.963,13.607,14.439V574.859l2.237.028v18.862Z" transform="translate(-283.817 -512.827)"/>
          <path id="Tracé_365" data-name="Tracé 365" d="M306.072,576.248c0,7.768-4.129,9.994-11.208,9.929-7.021-.07-11.046-2.34-11.046-9.994s4.026-9.9,11.046-9.924C301.943,566.232,306.072,568.48,306.072,576.248Zm-2.363-.006c0-5.851-3.807-6.329-8.846-6.326-5.014.006-8.748.493-8.748,6.279s3.765,6.329,8.748,6.369C299.936,582.6,303.709,582.093,303.709,576.243Z" transform="translate(-283.817 -528.3)"/>
          <path id="Tracé_366" data-name="Tracé 366" d="M285.405,570.269l-1.447-5.288V562.1l21.454-.258v3.6l-18.977.182,1,3.541Z" transform="translate(-283.563 -536.257)"/>
          <path id="Tracé_367" data-name="Tracé 367" d="M285.326,554.453l1.881,1.565a11.375,11.375,0,0,0-1.092,5.2c0,6.136,4.286,7.721,7.981,7.651-1.136-1.122-2.416-3.247-2.416-6.814,0-5.8,2.936-9.229,6.926-9.35,4.6-.137,7.466,3.555,7.466,9.6,0,7.9-4.409,10.147-9.492,10.229-7.67.12-12.762-2.816-12.762-11.124A16.142,16.142,0,0,1,285.326,554.453Zm13.342,1.825c-2.64.073-4.725,2.2-4.725,6.206a7.562,7.562,0,0,0,2.976,6.419c3.575-.064,6.791-.966,6.791-6.685C303.709,558.624,301.943,556.191,298.667,556.278Z" transform="translate(-283.817 -552.7)"/>
        </g>
      </g>
      <g id="Groupe_231" data-name="Groupe 231" transform="translate(92.421 16.814)">
        <g id="Groupe_230" data-name="Groupe 230">
          <path id="Tracé_382" data-name="Tracé 382" d="M308.634,547.82c-7.038.351-10.92-16.467-17.293-16.086-2.518.151-4.4,2.6-4.4,6.73-.007,4.022,1.792,5.811,3.812,6.473l-.712,3.658c-2.05-.458-5.788-3.012-5.778-10.081.01-6.764,3.049-10.766,7.015-11.01,7.413-.465,11.478,15.367,15.838,15.6L307.143,526l2.6-.16-.03,21.93Z" transform="translate(-284.263 -398.448)"/>
          <path id="Tracé_547" data-name="Tracé 547" d="M308.634,547.82c-7.038.351-10.92-16.467-17.293-16.086-2.518.151-4.4,2.6-4.4,6.73-.007,4.022,1.792,5.811,3.812,6.473l-.712,3.658c-2.05-.458-5.788-3.012-5.778-10.081.01-6.764,3.049-10.766,7.015-11.01,7.413-.465,11.478,15.367,15.838,15.6L307.143,526l2.6-.16-.03,21.93Z" transform="translate(-284.263 -452.448)"/>
          <path id="Tracé_383" data-name="Tracé 383" d="M310.217,528.448c-.013,9.031-4.831,11.977-13.083,12.518-8.185.532-12.873-1.752-12.859-10.649s4.711-11.863,12.893-12.5C305.423,517.16,310.231,519.417,310.217,528.448Zm-2.755.2c.013-6.8-4.423-7.031-10.3-6.58-5.844.445-10.2,1.334-10.208,8.058s4.38,7.035,10.188,6.64C303.056,536.366,307.452,535.446,307.462,528.645Z" transform="translate(-284.235 -417.497)"/>
          <path id="Tracé_546" data-name="Tracé 546" d="M310.217,528.448c-.013,9.031-4.831,11.977-13.083,12.518-8.185.532-12.873-1.752-12.859-10.649s4.711-11.863,12.893-12.5C305.423,517.16,310.231,519.417,310.217,528.448Zm-2.755.2c.013-6.8-4.423-7.031-10.3-6.58-5.844.445-10.2,1.334-10.208,8.058s4.38,7.035,10.188,6.64C303.056,536.366,307.452,535.446,307.462,528.645Z" transform="translate(-284.235 -471.497)"/>
        </g>
      </g>
      <g id="Groupe_576" data-name="Groupe 576" transform="translate(95.421 231.814)">
        <g id="Groupe_230-2" data-name="Groupe 230" transform="translate(0 -10.789)">
          <path id="Tracé_382-2" data-name="Tracé 382" d="M307.661,546.942c-6.757.337-10.484-15.809-16.6-15.444-2.417.145-4.221,2.5-4.224,6.462-.006,3.862,1.721,5.579,3.659,6.215l-.684,3.512c-1.968-.44-5.557-2.892-5.547-9.678.01-6.494,2.927-10.336,6.735-10.571,7.117-.446,11.02,14.754,15.206,14.978l.026-16.426,2.5-.154-.029,21.055Z" transform="translate(-284.263 -393.175)"/>
          <path id="Tracé_544" data-name="Tracé 544" d="M307.661,546.942c-6.757.337-10.484-15.809-16.6-15.444-2.417.145-4.221,2.5-4.224,6.462-.006,3.862,1.721,5.579,3.659,6.215l-.684,3.512c-1.968-.44-5.557-2.892-5.547-9.678.01-6.494,2.927-10.336,6.735-10.571,7.117-.446,11.02,14.754,15.206,14.978l.026-16.426,2.5-.154-.029,21.055Z" transform="translate(-284.263 -499.744)"/>
          <path id="Tracé_383-2" data-name="Tracé 383" d="M309.182,528.019c-.013,8.67-4.639,11.5-12.561,12.019-7.858.51-12.359-1.682-12.346-10.224s4.523-11.389,12.378-12.005C304.579,517.182,309.195,519.349,309.182,528.019Zm-2.645.189c.013-6.532-4.247-6.751-9.89-6.317-5.611.427-9.791,1.281-9.8,7.736s4.205,6.754,9.781,6.375C302.306,535.621,306.527,534.738,306.537,528.209Z" transform="translate(-284.236 -411.139)"/>
          <path id="Tracé_545" data-name="Tracé 545" d="M309.182,528.019c-.013,8.67-4.639,11.5-12.561,12.019-7.858.51-12.359-1.682-12.346-10.224s4.523-11.389,12.378-12.005C304.579,517.182,309.195,519.349,309.182,528.019Zm-2.645.189c.013-6.532-4.247-6.751-9.89-6.317-5.611.427-9.791,1.281-9.8,7.736s4.205,6.754,9.781,6.375C302.306,535.621,306.527,534.738,306.537,528.209Z" transform="translate(-284.236 -517.708)"/>
          <path id="Tracé_384" data-name="Tracé 384" d="M286.034,524.241l-1.611-5.775,0-3.223,24.014-2.09-.006,4.013-21.241,1.8,1.12,3.868Z" transform="translate(-283.909 -421.203)"/>
          <path id="Tracé_386" data-name="Tracé 386" d="M288.279,513.524l.019-12.542,2.546-.286-.019,12.564Z" transform="translate(-275.387 -451.614)"/>
          <path id="Tracé_388" data-name="Tracé 388" d="M301.965,510.437c-3.656.446-5.5-3.014-6.118-5.1-.62,1.891-2.4,5.014-5.2,5.354-3.8.472-6.334-3.509-6.324-9.271.01-5.807,2.555-10.449,6.356-10.966,2.8-.379,4.571,2.279,5.187,4.016.623-2.244,2.481-6.186,6.134-6.683,4.327-.591,7.239,3.72,7.229,10.41S306.293,509.907,301.965,510.437Zm-11.193-15.973c-2.141.286-3.907,2.674-3.913,6.629s1.753,5.842,3.9,5.573,3.961-3.053,3.968-6.59C294.73,496.489,292.92,494.178,290.772,494.464Zm11.2,11.877c2.453-.308,4.671-3.159,4.68-7.81.006-4.7-2.205-6.924-4.661-6.6-2.966.395-4.722,3.73-4.728,7.813C297.256,503.783,299,506.71,301.972,506.341Z" transform="translate(-284.137 -424.573)"/>
        </g>
      </g>
      <g id="Groupe_580" data-name="Groupe 580" transform="translate(0 -14)">
        <g id="Groupe_226" data-name="Groupe 226" transform="translate(96.93 455.021)">
          <g id="Groupe_225-2" data-name="Groupe 225">
            <path id="Tracé_364-2" data-name="Tracé 364" d="M308.8,597.4c-7.209-.184-11.214-17.764-17.744-17.861-2.578-.04-4.5,2.337-4.5,6.577,0,4.133,1.846,6.112,3.915,6.941l-.722,3.708c-2.1-.632-5.938-3.544-5.938-10.806,0-6.948,3.11-10.826,7.172-10.776,7.593.1,11.786,16.678,16.253,17.246V574.859l2.672.034v22.529Z" transform="translate(-283.817 -500.768)"/>
            <path id="Tracé_365-2" data-name="Tracé 365" d="M310.4,578.19c0,9.278-4.932,11.936-13.387,11.859-8.386-.084-13.194-2.8-13.194-11.936s4.808-11.819,13.194-11.853C305.466,566.227,310.4,568.912,310.4,578.19Zm-2.822-.007c0-6.988-4.547-7.56-10.566-7.556-5.988.007-10.449.589-10.449,7.5s4.5,7.56,10.449,7.607C303.069,585.773,307.576,585.171,307.576,578.183Z" transform="translate(-283.817 -520.921)"/>
            <path id="Tracé_366-2" data-name="Tracé 366" d="M285.687,571.909l-1.729-6.316v-3.447l25.625-.308v4.3l-22.666.217,1.2,4.229Z" transform="translate(-283.486 -531.283)"/>
          </g>
        </g>
        <path id="Tracé_543" data-name="Tracé 543" d="M284.46,505.706l2.187-.227,22.806,10.392-.007,4.437-22.388-10.392-.027,17.42-2.6.237Z" transform="translate(-186.458 -48.341)"/>
      </g>
    </g>
  </g>
</svg>
