<svg xmlns="http://www.w3.org/2000/svg" xmlns:xlink="http://www.w3.org/1999/xlink" width="281" height="622" viewBox="0 0 281 622">
  <defs>
    <clipPath id="clip-level-experience">
      <rect width="281" height="622"/>
    </clipPath>
  </defs>
  <g id="level-experience" clip-path="url(#clip-level-experience)">
    <path id="Tracé_351" data-name="Tracé 351" d="M267.149,681.786V495.759l99.31-15.725,2.5.4V676.49Zm5.015-181.741V676.5l91.78-4.774V485.511Z" transform="translate(-225.949 -455.973)" fill="#fff"/>
    <path id="Tracé_352" data-name="Tracé 352" d="M356.033,734.12l-83.368-4.531V541.625l83.368-4.336Zm-78.352-9.278,73.337,3.982V542.572l-73.337,3.815Z" transform="translate(-213.022 -321.793)" fill="#fff"/>
    <path id="Tracé_353" data-name="Tracé 353" d="M344.734,793.8l-68.325-10.98V593.5l70.849,3.852V793.4Zm-63.31-15.25,60.819,9.773V602.1l-60.819-3.3Z" transform="translate(-204.248 -190.052)" fill="#fff"/>
    <g id="Groupe_220" data-name="Groupe 220" transform="translate(137.995 24.064)">
      <path id="Tracé_354" data-name="Tracé 354" d="M296.849,480.794l96.675,15.327V677.364l-96.675-5.035Z" transform="translate(-294.342 -478.256)" fill="#53afa9"/>
      <path id="Tracé_355" data-name="Tracé 355" d="M397.789,681.784l-101.69-5.3V480.43l2.511-.395,2.5.395,96.675,15.327Zm-96.675-10.057,91.66,4.774V500.043l-91.66-14.534Z" transform="translate(-296.099 -480.035)" fill="#fff"/>
    </g>
    <g id="Groupe_221" data-name="Groupe 221" transform="translate(137.995 215.496)">
      <path id="Tracé_356" data-name="Tracé 356" d="M296.849,538.079l78.253,4.075V725.363l-78.253,4.258Z" transform="translate(-294.342 -535.437)" fill="#429791"/>
      <path id="Tracé_357" data-name="Tracé 357" d="M296.1,734.12V537.289l83.267,4.336V729.589Zm5.015-191.548V728.823l73.237-3.982V546.387Z" transform="translate(-296.099 -537.289)" fill="#fff"/>
    </g>
    <g id="Groupe_222" data-name="Groupe 222" transform="translate(137.995 403.452)">
      <path id="Tracé_358" data-name="Tracé 358" d="M296.849,597.875,362.6,594.3V778.83L296.849,789.41Z" transform="translate(-294.342 -591.648)" fill="#388580"/>
      <path id="Tracé_359" data-name="Tracé 359" d="M296.1,793.4V597.356l70.769-3.852V782.821l-68.262,10.984ZM301.114,602.1V788.325l60.739-9.773V598.8Z" transform="translate(-296.099 -593.504)" fill="#fff"/>
    </g>
    <g id="Groupe_226" data-name="Groupe 226" transform="translate(96.93 455.021)">
      <g id="Groupe_225" data-name="Groupe 225">
        <path id="Tracé_364" data-name="Tracé 364" d="M308.8,597.4c-7.209-.184-11.214-17.764-17.744-17.861-2.578-.04-4.5,2.337-4.5,6.577,0,4.133,1.846,6.112,3.915,6.941l-.722,3.708c-2.1-.632-5.938-3.544-5.938-10.806,0-6.948,3.11-10.826,7.172-10.776,7.593.1,11.786,16.678,16.253,17.246V574.859l2.672.034v22.529Z" transform="translate(-283.817 -500.768)"/>
        <path id="Tracé_365" data-name="Tracé 365" d="M310.4,578.19c0,9.278-4.932,11.936-13.387,11.859-8.386-.084-13.194-2.8-13.194-11.936s4.808-11.819,13.194-11.853C305.466,566.227,310.4,568.912,310.4,578.19Zm-2.822-.007c0-6.988-4.547-7.56-10.566-7.556-5.988.007-10.449.589-10.449,7.5s4.5,7.56,10.449,7.607C303.069,585.773,307.576,585.171,307.576,578.183Z" transform="translate(-283.817 -520.921)"/>
        <path id="Tracé_366" data-name="Tracé 366" d="M285.687,571.909l-1.729-6.316v-3.447l25.625-.308v4.3l-22.666.217,1.2,4.229Z" transform="translate(-283.486 -531.283)"/>
        <path id="Tracé_367" data-name="Tracé 367" d="M285.619,554.794l2.247,1.869a13.587,13.587,0,0,0-1.3,6.209c0,7.329,5.119,9.222,9.532,9.138-1.357-1.341-2.885-3.878-2.885-8.138,0-6.928,3.507-11.024,8.272-11.168,5.5-.164,8.917,4.246,8.917,11.462,0,9.435-5.266,12.12-11.338,12.217-9.161.144-15.243-3.364-15.243-13.287A19.28,19.28,0,0,1,285.619,554.794Zm15.935,2.18c-3.153.087-5.644,2.628-5.644,7.413a9.032,9.032,0,0,0,3.554,7.667c4.27-.077,8.111-1.154,8.111-7.984C307.576,559.776,305.466,556.87,301.555,556.974Z" transform="translate(-283.817 -552.7)"/>
      </g>
    </g>
    <g id="Groupe_231" data-name="Groupe 231" transform="translate(98.421 49.814)">
      <g id="Groupe_230" data-name="Groupe 230">
        <path id="Tracé_382" data-name="Tracé 382" d="M308.634,547.82c-7.038.351-10.92-16.467-17.293-16.086-2.518.151-4.4,2.6-4.4,6.73-.007,4.022,1.792,5.811,3.812,6.473l-.712,3.658c-2.05-.458-5.788-3.012-5.778-10.081.01-6.764,3.049-10.766,7.015-11.01,7.413-.465,11.478,15.367,15.838,15.6L307.143,526l2.6-.16-.03,21.93Z" transform="translate(-284.263 -398.448)"/>
        <path id="Tracé_383" data-name="Tracé 383" d="M310.217,528.448c-.013,9.031-4.831,11.977-13.083,12.518-8.185.532-12.873-1.752-12.859-10.649s4.711-11.863,12.893-12.5C305.423,517.16,310.231,519.417,310.217,528.448Zm-2.755.2c.013-6.8-4.423-7.031-10.3-6.58-5.844.445-10.2,1.334-10.208,8.058s4.38,7.035,10.188,6.64C303.056,536.366,307.452,535.446,307.462,528.645Z" transform="translate(-284.235 -417.497)"/>
        <path id="Tracé_384" data-name="Tracé 384" d="M286.1,524.7l-1.678-6.015,0-3.357,25.013-2.177-.007,4.18-22.124,1.872,1.167,4.029Z" transform="translate(-283.888 -428.168)"/>
        <path id="Tracé_385" data-name="Tracé 385" d="M284.46,505.706l2.187-.227,22.806,10.392-.007,4.437-22.388-10.392-.027,17.42-2.6.237Z" transform="translate(-283.879 -446.155)"/>
        <path id="Tracé_386" data-name="Tracé 386" d="M288.279,514.058l.02-13.063,2.651-.3-.02,13.087Z" transform="translate(-274.851 -457.362)"/>
        <path id="Tracé_387" data-name="Tracé 387" d="M286.129,508.828l-1.682-5.958.007-3.357,25.013-2.976-.007,4.179-22.124,2.578,1.167,3.992Z" transform="translate(-283.832 -467.111)"/>
        <path id="Tracé_388" data-name="Tracé 388" d="M302.7,511.381c-3.808.465-5.731-3.14-6.373-5.31-.645,1.969-2.5,5.223-5.42,5.577-3.959.492-6.6-3.654-6.587-9.656.01-6.048,2.661-10.883,6.62-11.421,2.919-.395,4.761,2.374,5.4,4.183.649-2.337,2.585-6.443,6.39-6.961,4.507-.615,7.54,3.875,7.53,10.843S307.206,510.829,302.7,511.381ZM291.04,494.743c-2.23.3-4.069,2.785-4.076,6.9s1.826,6.085,4.059,5.8,4.126-3.18,4.133-6.864C295.163,496.853,293.277,494.446,291.04,494.743Zm11.666,12.371c2.554-.321,4.865-3.29,4.875-8.135.007-4.895-2.3-7.212-4.855-6.871-3.089.411-4.918,3.885-4.925,8.138C297.794,504.45,299.613,507.5,302.706,507.115Z" transform="translate(-284.129 -487.736)"/>
      </g>
    </g>
    <g id="Groupe_576" data-name="Groupe 576" transform="translate(98.421 245.814)">
      <g id="Groupe_230-2" data-name="Groupe 230">
        <path id="Tracé_382-2" data-name="Tracé 382" d="M308.634,547.82c-7.038.351-10.92-16.467-17.293-16.086-2.518.151-4.4,2.6-4.4,6.73-.007,4.022,1.792,5.811,3.812,6.473l-.712,3.658c-2.05-.458-5.788-3.012-5.778-10.081.01-6.764,3.049-10.766,7.015-11.01,7.413-.465,11.478,15.367,15.838,15.6L307.143,526l2.6-.16-.03,21.93Z" transform="translate(-284.263 -398.448)"/>
        <path id="Tracé_383-2" data-name="Tracé 383" d="M310.217,528.448c-.013,9.031-4.831,11.977-13.083,12.518-8.185.532-12.873-1.752-12.859-10.649s4.711-11.863,12.893-12.5C305.423,517.16,310.231,519.417,310.217,528.448Zm-2.755.2c.013-6.8-4.423-7.031-10.3-6.58-5.844.445-10.2,1.334-10.208,8.058s4.38,7.035,10.188,6.64C303.056,536.366,307.452,535.446,307.462,528.645Z" transform="translate(-284.235 -417.497)"/>
        <path id="Tracé_384-2" data-name="Tracé 384" d="M286.1,524.7l-1.678-6.015,0-3.357,25.013-2.177-.007,4.18-22.124,1.872,1.167,4.029Z" transform="translate(-283.888 -428.168)"/>
        <path id="Tracé_386-2" data-name="Tracé 386" d="M288.279,514.058l.02-13.063,2.651-.3-.02,13.087Z" transform="translate(-274.851 -460.362)"/>
        <path id="Tracé_387-2" data-name="Tracé 387" d="M286.129,508.828l-1.682-5.958.007-3.357,25.013-2.976-.007,4.179-22.124,2.578,1.167,3.992Z" transform="translate(-283.832 -470.111)"/>
        <path id="Tracé_388-2" data-name="Tracé 388" d="M302.7,511.381c-3.808.465-5.731-3.14-6.373-5.31-.645,1.969-2.5,5.223-5.42,5.577-3.959.492-6.6-3.654-6.587-9.656.01-6.048,2.661-10.883,6.62-11.421,2.919-.395,4.761,2.374,5.4,4.183.649-2.337,2.585-6.443,6.39-6.961,4.507-.615,7.54,3.875,7.53,10.843S307.206,510.829,302.7,511.381ZM291.04,494.743c-2.23.3-4.069,2.785-4.076,6.9s1.826,6.085,4.059,5.8,4.126-3.18,4.133-6.864C295.163,496.853,293.277,494.446,291.04,494.743Zm11.666,12.371c2.554-.321,4.865-3.29,4.875-8.135.007-4.895-2.3-7.212-4.855-6.871-3.089.411-4.918,3.885-4.925,8.138C297.794,504.45,299.613,507.5,302.706,507.115Z" transform="translate(-284.129 -490.736)"/>
      </g>
    </g>
    <path id="Tracé_535" data-name="Tracé 535" d="M285.619,554.794l2.247,1.869a13.587,13.587,0,0,0-1.3,6.209c0,7.329,5.119,9.222,9.532,9.138-1.357-1.341-2.885-3.878-2.885-8.138,0-6.928,3.507-11.024,8.272-11.168,5.5-.164,8.917,4.246,8.917,11.462,0,9.435-5.266,12.12-11.338,12.217-9.161.144-15.243-3.364-15.243-13.287A19.28,19.28,0,0,1,285.619,554.794Zm15.935,2.18c-3.153.087-5.644,2.628-5.644,7.413a9.032,9.032,0,0,0,3.554,7.667c4.27-.077,8.111-1.154,8.111-7.984C307.576,559.776,305.466,556.87,301.555,556.974Z" transform="translate(408.328 880.409) rotate(180)"/>
  </g>
</svg>
