<svg xmlns="http://www.w3.org/2000/svg" xmlns:xlink="http://www.w3.org/1999/xlink" width="55.819" height="55.726" viewBox="0 0 55.819 55.726">
  <defs>
    <clipPath id="clip-little_heart">
      <rect width="55.819" height="55.726"/>
    </clipPath>
  </defs>
  <g id="little_heart" clip-path="url(#clip-little_heart)">
    <path id="idée_illu-3" data-name="idée illu-3" d="M456.93,712.784c-.028,3.1-2.073,7.03-4.922,10.607-4.255,5.326-9.655,9.283-15.445,12.761-1.152.692-2.354,1.314-3.527,1.974a.949.949,0,0,1-1.029.035c-7.4-4.023-14.321-8.671-19.531-15.452-2.66-3.468-4.438-7.308-4.416-11.805a13.749,13.749,0,0,1,23.913-9.4c.516.559.734.668,1.332.049a13.727,13.727,0,0,1,15.192-3.116C453.589,700.519,456.938,705.561,456.93,712.784Z" transform="translate(-404.556 -689.698)" fill="none" stroke="#fff" stroke-width="5" fill-rule="evenodd"/>
  </g>
</svg>
