<svg id="Calque_1" data-name="Calque 1" xmlns="http://www.w3.org/2000/svg" viewBox="0 0 138.76 53.99"><defs><style>.cls-1{fill:#1d1d1b;opacity:0.85;}</style></defs><title>logo</title><path class="cls-1" d="M3.06,47a2.83,2.83,0,0,1-.78,1.74,3.51,3.51,0,0,1-1.62.84L0,49.79l.54,3.9.81-.21A8.44,8.44,0,0,0,5,51.53a6.79,6.79,0,0,0,2-4.8V32.27H3.06Z"/><path class="cls-1" d="M5,25.91a2.36,2.36,0,0,0-1.68.69,2.24,2.24,0,0,0-.69,1.65A2.36,2.36,0,1,0,5,25.91Z"/><path class="cls-1" d="M20,40.07a2.61,2.61,0,0,1-2.67,2.55,2.59,2.59,0,0,1-2.64-2.55v-7.8H10.86v7.8a6.1,6.1,0,0,0,1.89,4.47,6.34,6.34,0,0,0,4.53,1.8,6.4,6.4,0,0,0,4.53-1.8,6.23,6.23,0,0,0,1.92-4.47v-7.8H20Z"/><rect class="cls-1" x="27.18" y="23.99" width="3.9" height="22.02"/><rect class="cls-1" x="35.67" y="32.27" width="3.9" height="13.74"/><path class="cls-1" d="M37.62,26a2.29,2.29,0,0,0-1.65.69,2.18,2.18,0,0,0-.69,1.62A2.33,2.33,0,1,0,37.62,26Z"/><path class="cls-1" d="M54.39,34.13a6.33,6.33,0,0,0-2.16-1.59A6,6,0,0,0,49.59,32a6.06,6.06,0,0,0-2.64.57,6.85,6.85,0,0,0-2.16,1.59,6.65,6.65,0,0,0-1.65,3.15,8.11,8.11,0,0,0-.24,1.86A7.37,7.37,0,0,0,43,40a7.23,7.23,0,0,0,1.83,4.2A6.6,6.6,0,0,0,47,45.74a6.25,6.25,0,0,0,2.61.6h0a7.24,7.24,0,0,0,3.57-1h0a6.27,6.27,0,0,0,1.2-.9l.45-.39L52.35,41.9l-.33.27a4.65,4.65,0,0,1-2.4,1.08h0A3.73,3.73,0,0,1,46.23,40l0-.21H56.28v-.69a7.2,7.2,0,0,0-.21-1.86A7.11,7.11,0,0,0,54.39,34.13ZM46.5,37.4l.12-.24a3.5,3.5,0,0,1,3-2.07,3.56,3.56,0,0,1,3,2.07l.12.24Z"/><path class="cls-1" d="M65.82,32a4.52,4.52,0,0,0-3.39,1.2l-.15.15V32.27H58.65V54h3.63V44.81l.15.12a4.92,4.92,0,0,0,3.39,1.35,7.1,7.1,0,0,0,5.07-2.07A7.14,7.14,0,0,0,65.82,32Zm0,10.77a3.63,3.63,0,1,1,3.54-3.63A3.64,3.64,0,0,1,65.82,42.77Z"/><path class="cls-1" d="M79.32,33.38V32.27H75.54V46h3.78V38.72a3.14,3.14,0,0,1,3.21-3h.57l.9-3.75h-.9A5.57,5.57,0,0,0,79.32,33.38Z"/><path class="cls-1" d="M109.56,32a4,4,0,0,0-2.91,1.26v-1H102.9V46h3.75V38.66a2.93,2.93,0,0,1,2.91-2.88,2.87,2.87,0,0,1,2.91,2.88V46h3.78V38.66A6.61,6.61,0,0,0,109.56,32Z"/><path class="cls-1" d="M120.7,8.48a5.51,5.51,0,0,0,1.37-4.13A4.93,4.93,0,0,0,116.58,0l.27,3.79c.61,0,1.35.11,1.44.94.15,1.44-2.21,2.63-2.24,2.64l0,.1a28,28,0,0,0-3.45-.22c-14.4,0-26.11,11.22-26.11,25h0v7.8a6.1,6.1,0,0,0,1.89,4.47,6.6,6.6,0,0,0,9.06,0,6.23,6.23,0,0,0,1.92-4.47v-7.8H95.64v7.8A2.61,2.61,0,0,1,93,42.62a2.59,2.59,0,0,1-2.64-2.55v-7.8h0c0-11.69,10-21.21,22.31-21.21S135,20.58,135,32.27c0,.73,0,1.46-.09,2.17a8.42,8.42,0,0,1-8.53,8.22h-.87a3.38,3.38,0,0,1-3.13-2.47l10-2.4.1,0a7.13,7.13,0,0,0-6.95-6.28,7.26,7.26,0,0,0-7,7.45,7.26,7.26,0,0,0,7,7.45h.87a12.2,12.2,0,0,0,12.3-11.52c.07-.86.12-1.71.12-2.57C138.76,21.17,131.17,11.74,120.7,8.48Zm-4.64-1.1,0,.1h0Zm9.41,27.78A3.17,3.17,0,0,1,128,36.42l-5.62,1.22A3.37,3.37,0,0,1,125.47,35.16Z"/><path class="cls-1" d="M115,19a2.35,2.35,0,0,0-4-1.65A2.24,2.24,0,0,0,110.3,19,2.36,2.36,0,0,0,115,19Z"/><path class="cls-1" d="M120.29,21.38a2.34,2.34,0,1,0-1.68-4,2.24,2.24,0,0,0-.69,1.65A2.35,2.35,0,0,0,120.29,21.38Z"/></svg>