<svg xmlns="http://www.w3.org/2000/svg" xmlns:xlink="http://www.w3.org/1999/xlink" width="82" height="80" viewBox="0 0 82 80">
  <defs>
    <style>
      .cls-1 {
        clip-path: url(#clip-marvel-app);
      }

      .cls-2 {
        fill: #fff;
      }
    </style>
    <clipPath id="clip-marvel-app">
      <rect width="82" height="80"/>
    </clipPath>
  </defs>
  <g id="marvel-app" class="cls-1">
    <path id="Tracé_506" data-name="Tracé 506" class="cls-2" d="M181.81,330.665c3.151-3.211,6.237-6.489,9.473-9.611a61.073,61.073,0,0,1,7.86-6.612,10.118,10.118,0,0,1,3.814-1.7,6.49,6.49,0,0,1,7.451,7.952,17.846,17.846,0,0,1-3.333,5.891c-2.978,4.013-5.961,8.022-8.6,12.272a34.835,34.835,0,0,0-3.153,6.023,10.225,10.225,0,0,0-.607,2.135c-.277,1.962.816,2.893,2.748,2.372a10,10,0,0,0,4.2-2.76,63.431,63.431,0,0,0,7.408-8.8c1.334-1.838,2.607-3.721,3.971-5.535a5.223,5.223,0,0,1,3.682-2.479,3.584,3.584,0,0,1,3.992,3.451,8.581,8.581,0,0,1-.8,3.975c-4.746,10.279-11.478,18.861-21.388,24.658a16.021,16.021,0,0,1-5.938,2.03c-6.338.877-11.124-3.24-11.192-9.644a27.822,27.822,0,0,1,4.138-14.458c.929-1.6,1.946-3.144,2.853-4.78a30.393,30.393,0,0,0-5.054,4.705,61.928,61.928,0,0,0-8.227,11.74,65.687,65.687,0,0,1-4.6,7.482c-1.833,2.456-4.129,3.262-6.553,2.351a6.189,6.189,0,0,1-3.611-6.329c.188-3.523,1.8-6.578,3.058-9.746,1.485-3.736,3.757-7.061,5.674-10.572.11-.2.38-.352.187-.772a34.4,34.4,0,0,0-4.447,4.206c-6,6.447-11.221,13.426-14.53,21.686a18.327,18.327,0,0,1-1.377,2.629c-1.5,2.478-3.592,3.45-6.013,2.845a5.8,5.8,0,0,1-3.967-5.314,25.452,25.452,0,0,1,1.438-9.247,133.418,133.418,0,0,1,16.327-35.66,34.752,34.752,0,0,1,3.891-4.967,6.2,6.2,0,0,1,3.9-2.213,4.777,4.777,0,0,1,5.332,5.941,10.979,10.979,0,0,1-1.312,3.456q-2.856,5-5.713,10c-.242.426-.41.9-.612,1.344-.07.251-.054.423.28.314,3.125-3.563,6.086-7.273,9.418-10.651a28.56,28.56,0,0,1,7.614-6.042,7.889,7.889,0,0,1,2.471-.754,5.04,5.04,0,0,1,5.688,5.867,16.182,16.182,0,0,1-1.888,5.071c-1.4,2.658-2.823,5.306-4.235,7.958C181.419,330.657,181.51,330.762,181.81,330.665Z" transform="translate(-138.722 -296.457)"/>
  </g>
</svg>
