<svg xmlns="http://www.w3.org/2000/svg" xmlns:xlink="http://www.w3.org/1999/xlink" width="82" height="80" viewBox="0 0 82 80">
  <defs>
    <style>
      .cls-1 {
        clip-path: url(#clip-photoshop);
      }

      .cls-2 {
        fill: #fff;
      }
    </style>
    <clipPath id="clip-photoshop">
      <rect width="82" height="80"/>
    </clipPath>
  </defs>
  <g id="photoshop" class="cls-1">
    <path id="adobephotoshop" class="cls-2" d="M0,.3V80.277H82.027V.3ZM3.418,3.718H78.61V76.859H3.418ZM19.823,19.03c0-.229.478-.4.766-.4,2.2-.113,5.427-.171,8.811-.171,9.474,0,13.159,5.2,13.159,11.846,0,8.681-6.3,12.407-14.02,12.407-1.3,0-1.743-.058-2.649-.058V55.788c0,.284-.113.4-.393.4H20.22c-.284,0-.393-.1-.393-.386V19.03ZM25.89,37.185c.786.055,1.408.055,2.768.055,4,0,7.758-1.408,7.758-6.822,0-4.341-2.686-6.542-7.253-6.542-1.353,0-2.649.055-3.271.113V37.2Zm29.417-4.06c-2.707,0-3.609,1.353-3.609,2.481,0,1.241.615,2.085,4.228,3.948,5.359,2.6,7.048,5.075,7.048,8.739,0,5.468-4.17,8.408-9.809,8.408a14.933,14.933,0,0,1-7.007-1.47c-.222-.113-.273-.28-.273-.564V49.653c0-.342.164-.455.39-.287A12.591,12.591,0,0,0,53.15,51.4c2.707,0,3.835-1.128,3.835-2.652,0-1.241-.786-2.314-4.228-4.118-4.853-2.324-6.883-4.682-6.883-8.637,0-4.4,3.438-8.066,9.416-8.066a15.93,15.93,0,0,1,6.132.957.745.745,0,0,1,.342.677v4.682c0,.284-.171.455-.513.342a12.239,12.239,0,0,0-5.957-1.47Z" transform="translate(-0.376 -0.313)"/>
  </g>
</svg>
