<svg xmlns="http://www.w3.org/2000/svg" xmlns:xlink="http://www.w3.org/1999/xlink" width="82" height="80" viewBox="0 0 82 80">
  <defs>
    <style>
      .cls-1 {
        clip-path: url(#clip-premiere);
      }

      .cls-2 {
        fill: #fff;
      }
    </style>
    <clipPath id="clip-premiere">
      <rect width="82" height="80"/>
    </clipPath>
  </defs>
  <g id="premiere" class="cls-1">
    <path id="adobepremiere" class="cls-2" d="M0,.3V80.277H82.027V.3ZM3.418,3.718H78.61V76.859H3.418Zm18.1,15.3c0-.226.058-.4.342-.4,2.2-.113,5.41-.171,8.794-.171,9.474,0,13.593,5.192,13.593,11.846,0,8.681-6.285,12.407-14.01,12.407-1.3,0-1.75-.058-2.652-.058V55.785c0,.284-.113.4-.393.4H21.918c-.284,0-.4-.113-.4-.4Zm6.067,18.159c.79.055,1.412.055,2.765.055,4,0,7.748-1.408,7.748-6.822,0-4.341-2.673-6.542-7.242-6.542-1.353,0-2.649.055-3.271.113Zm21.874-3.1c0-.393,0-1.408-.167-3.326,0-.284.038-.342.263-.451a35.613,35.613,0,0,1,12.5-2.369c.28,0,.393.055.393.338v4.963c0,.28-.089.338-.373.338a19.567,19.567,0,0,0-6.46.677V55.785c0,.284-.116.4-.4.4H49.856c-.28,0-.393-.113-.393-.4Z" transform="translate(-0.171 -0.313)"/>
  </g>
</svg>
