<svg xmlns="http://www.w3.org/2000/svg" xmlns:xlink="http://www.w3.org/1999/xlink" width="107" height="127" viewBox="0 0 107 127">
  <defs>
    <style>
      .cls-1 {
        clip-path: url(#clip-prune-home1);
      }

      .cls-2, .cls-3, .cls-7 {
        fill: none;
      }

      .cls-2, .cls-3, .cls-4 {
        stroke: #fff;
        stroke-width: 4px;
      }

      .cls-2, .cls-3, .cls-4, .cls-5 {
        stroke-miterlimit: 10;
      }

      .cls-2 {
        opacity: 0.85;
      }

      .cls-4, .cls-8 {
        fill: #fff;
      }

      .cls-5 {
        fill: #161615;
      }

      .cls-6, .cls-8 {
        stroke: none;
      }
    </style>
    <clipPath id="clip-prune-home1">
      <rect width="107" height="127"/>
    </clipPath>
  </defs>
  <g id="prune-home1" class="cls-1">
    <g id="Groupe_448" data-name="Groupe 448" transform="translate(-1229 -316)">
      <g id="Groupe_294" data-name="Groupe 294" transform="translate(1310.506 -1484.255)">
        <path id="Tracé_423" data-name="Tracé 423" class="cls-2" d="M-49.235,1818.862s-5.848-2.715-5.365-7.378,5.586-4.271,5.586-4.271" transform="translate(8.392 0)"/>
        <circle id="Ellipse_18" data-name="Ellipse 18" class="cls-3" cx="40.255" cy="40.255" r="40.255" transform="translate(-68.187 1816.745)"/>
        <g id="Ellipse_19" data-name="Ellipse 19" class="cls-4" transform="translate(-37.11 1895.211)">
          <ellipse class="cls-6" cx="11.813" cy="10.871" rx="11.813" ry="10.871"/>
          <ellipse class="cls-7" cx="11.813" cy="10.871" rx="9.813" ry="8.871"/>
        </g>
        <path id="Tracé_424" data-name="Tracé 424" class="cls-3" d="M-22.463,1883.284a8.635,8.635,0,0,0-8.634-8.634,8.634,8.634,0,0,0-8.634,8.634Z" transform="translate(17.614 41.749)"/>
        <path id="Tracé_425" data-name="Tracé 425" class="cls-3" d="M-44.368,1884.4a8.632,8.632,0,0,0-4.679-11.278,8.632,8.632,0,0,0-11.278,4.679Z" transform="translate(4.866 40.398)"/>
      </g>
      <g id="Tracé_431" data-name="Tracé 431" class="cls-5" transform="translate(1322.923 -1465.605)">
        <path class="cls-6" d="M -51.99478530883789 1856.039428710938 C -53.0387077331543 1856.039428710938 -53.88799667358398 1855.212280273438 -53.88799667358398 1854.195434570313 C -53.88799667358398 1853.68896484375 -53.71150588989258 1853.24560546875 -53.39103698730469 1852.947021484375 L -53.36571502685547 1852.923461914063 L -53.34122467041016 1852.899047851563 C -52.98737716674805 1852.545654296875 -52.50920486450195 1852.35107421875 -51.99478530883789 1852.35107421875 C -50.97723770141602 1852.35107421875 -50.14939498901367 1853.178466796875 -50.14939498901367 1854.195434570313 C -50.14939498901367 1855.212280273438 -50.97723770141602 1856.039428710938 -51.99478530883789 1856.039428710938 Z"/>
        <path class="cls-8" d="M -51.99478530883789 1858.039428710938 C -54.16371917724609 1858.039428710938 -55.88799667358398 1856.31396484375 -55.88799667358398 1854.195434570313 C -55.88799667358398 1853.15869140625 -55.49505233764648 1852.173828125 -54.75441741943359 1851.483764648438 C -54.01506423950195 1850.745483398438 -53.03012847900391 1850.35107421875 -51.99478530883789 1850.35107421875 C -49.87497329711914 1850.35107421875 -48.14939498901367 1852.074340820313 -48.14939498901367 1854.195434570313 C -48.14939498901367 1856.31396484375 -49.87497329711914 1858.039428710938 -51.99478530883789 1858.039428710938 Z"/>
      </g>
      <g id="Tracé_432" data-name="Tracé 432" class="cls-5" transform="translate(1310.568 -1465.605)">
        <path class="cls-6" d="M -51.99478530883789 1856.039428710938 C -53.0387077331543 1856.039428710938 -53.88799667358398 1855.212280273438 -53.88799667358398 1854.195434570313 C -53.88799667358398 1853.68896484375 -53.71150588989258 1853.24560546875 -53.39103698730469 1852.947021484375 L -53.36571502685547 1852.923461914063 L -53.34122467041016 1852.899047851563 C -52.98737716674805 1852.545654296875 -52.50920486450195 1852.35107421875 -51.99478530883789 1852.35107421875 C -50.97723770141602 1852.35107421875 -50.14939498901367 1853.178466796875 -50.14939498901367 1854.195434570313 C -50.14939498901367 1855.212280273438 -50.97723770141602 1856.039428710938 -51.99478530883789 1856.039428710938 Z"/>
        <path class="cls-8" d="M -51.99478530883789 1858.039428710938 C -54.16371917724609 1858.039428710938 -55.88799667358398 1856.31396484375 -55.88799667358398 1854.195434570313 C -55.88799667358398 1853.15869140625 -55.49505233764648 1852.173828125 -54.75441741943359 1851.483764648438 C -54.01506423950195 1850.745483398438 -53.03012847900391 1850.35107421875 -51.99478530883789 1850.35107421875 C -49.87497329711914 1850.35107421875 -48.14939498901367 1852.074340820313 -48.14939498901367 1854.195434570313 C -48.14939498901367 1856.31396484375 -49.87497329711914 1858.039428710938 -51.99478530883789 1858.039428710938 Z"/>
      </g>
    </g>
  </g>
</svg>
