<svg xmlns="http://www.w3.org/2000/svg" xmlns:xlink="http://www.w3.org/1999/xlink" width="104" height="115" viewBox="0 0 104 115">
  <defs>
    <clipPath id="clip-prune-merci">
      <rect width="104" height="115"/>
    </clipPath>
  </defs>
  <g id="prune-merci" clip-path="url(#clip-prune-merci)">
    <g id="Groupe_578" data-name="Groupe 578" transform="translate(-1224.83 -327)">
      <g id="Groupe_294" data-name="Groupe 294" transform="translate(1310.506 -1484.255)">
        <path id="Tracé_423" data-name="Tracé 423" d="M-49.235,1818.862s-5.848-2.715-5.365-7.378,5.586-4.271,5.586-4.271" transform="translate(1697.989 1245.636) rotate(70)" fill="none" stroke="#fff" stroke-miterlimit="10" stroke-width="4" opacity="0.85"/>
        <circle id="Ellipse_18" data-name="Ellipse 18" cx="40.255" cy="40.255" r="40.255" transform="translate(-77.187 1818.745)" fill="none" stroke="#fff" stroke-miterlimit="10" stroke-width="4"/>
        <g id="Ellipse_19" data-name="Ellipse 19" transform="translate(-37.11 1897.211)" fill="#fff" stroke="#fff" stroke-miterlimit="10" stroke-width="4">
          <ellipse cx="11.813" cy="10.871" rx="11.813" ry="10.871" stroke="none"/>
          <ellipse cx="11.813" cy="10.871" rx="9.813" ry="8.871" fill="none"/>
        </g>
        <path id="Tracé_424" data-name="Tracé 424" d="M-22.363,1883.791c0-4.768-3.965-9.141-8.733-9.141s-8.535,4.373-8.535,9.141Z" transform="translate(16.614 40.749)" fill="none" stroke="#fff" stroke-miterlimit="10" stroke-width="4"/>
        <path id="Tracé_425" data-name="Tracé 425" d="M-44.368,1884.4a8.632,8.632,0,0,0-4.679-11.278,8.632,8.632,0,0,0-11.278,4.679Z" transform="matrix(0.927, -0.375, 0.375, 0.927, -690.596, 160.692)" fill="none" stroke="#fff" stroke-miterlimit="10" stroke-width="4"/>
      </g>
      <g id="Tracé_431" data-name="Tracé 431" transform="translate(1324.923 -1450.605)" fill="#161615" stroke-miterlimit="10">
        <path d="M -51.99478530883789 1856.039428710938 C -53.0387077331543 1856.039428710938 -53.88799667358398 1855.212280273438 -53.88799667358398 1854.195434570313 C -53.88799667358398 1853.68896484375 -53.71150588989258 1853.24560546875 -53.39103698730469 1852.947021484375 L -53.36571502685547 1852.923461914063 L -53.34122467041016 1852.899047851563 C -52.98737716674805 1852.545654296875 -52.50920486450195 1852.35107421875 -51.99478530883789 1852.35107421875 C -50.97723770141602 1852.35107421875 -50.14939498901367 1853.178466796875 -50.14939498901367 1854.195434570313 C -50.14939498901367 1855.212280273438 -50.97723770141602 1856.039428710938 -51.99478530883789 1856.039428710938 Z" stroke="none"/>
        <path d="M -51.99478530883789 1858.039428710938 C -54.16371917724609 1858.039428710938 -55.88799667358398 1856.31396484375 -55.88799667358398 1854.195434570313 C -55.88799667358398 1853.15869140625 -55.49505233764648 1852.173828125 -54.75441741943359 1851.483764648438 C -54.01506423950195 1850.745483398438 -53.03012847900391 1850.35107421875 -51.99478530883789 1850.35107421875 C -49.87497329711914 1850.35107421875 -48.14939498901367 1852.074340820313 -48.14939498901367 1854.195434570313 C -48.14939498901367 1856.31396484375 -49.87497329711914 1858.039428710938 -51.99478530883789 1858.039428710938 Z" stroke="none" fill="#fff"/>
      </g>
      <g id="Tracé_432" data-name="Tracé 432" transform="translate(1312.568 -1450.605)" fill="#161615" stroke-miterlimit="10">
        <path d="M -51.99478530883789 1856.039428710938 C -53.0387077331543 1856.039428710938 -53.88799667358398 1855.212280273438 -53.88799667358398 1854.195434570313 C -53.88799667358398 1853.68896484375 -53.71150588989258 1853.24560546875 -53.39103698730469 1852.947021484375 L -53.36571502685547 1852.923461914063 L -53.34122467041016 1852.899047851563 C -52.98737716674805 1852.545654296875 -52.50920486450195 1852.35107421875 -51.99478530883789 1852.35107421875 C -50.97723770141602 1852.35107421875 -50.14939498901367 1853.178466796875 -50.14939498901367 1854.195434570313 C -50.14939498901367 1855.212280273438 -50.97723770141602 1856.039428710938 -51.99478530883789 1856.039428710938 Z" stroke="none"/>
        <path d="M -51.99478530883789 1858.039428710938 C -54.16371917724609 1858.039428710938 -55.88799667358398 1856.31396484375 -55.88799667358398 1854.195434570313 C -55.88799667358398 1853.15869140625 -55.49505233764648 1852.173828125 -54.75441741943359 1851.483764648438 C -54.01506423950195 1850.745483398438 -53.03012847900391 1850.35107421875 -51.99478530883789 1850.35107421875 C -49.87497329711914 1850.35107421875 -48.14939498901367 1852.074340820313 -48.14939498901367 1854.195434570313 C -48.14939498901367 1856.31396484375 -49.87497329711914 1858.039428710938 -51.99478530883789 1858.039428710938 Z" stroke="none" fill="#fff"/>
      </g>
    </g>
  </g>
</svg>
