<svg xmlns="http://www.w3.org/2000/svg" xmlns:xlink="http://www.w3.org/1999/xlink" width="107" height="137" viewBox="0 0 107 137">
  <defs>
    <style>
      .cls-1 {
        clip-path: url(#clip-prune-home-soundoffuzz);
      }

      .cls-2, .cls-4, .cls-7 {
        fill: none;
      }

      .cls-2, .cls-3, .cls-4 {
        stroke: #fff;
        stroke-width: 4px;
      }

      .cls-2, .cls-3, .cls-5 {
        stroke-miterlimit: 10;
      }

      .cls-3, .cls-8 {
        fill: #fff;
      }

      .cls-5 {
        fill: #161615;
      }

      .cls-6, .cls-8 {
        stroke: none;
      }
    </style>
    <clipPath id="clip-prune-home-soundoffuzz">
      <rect width="107" height="137"/>
    </clipPath>
  </defs>
  <g id="prune-home-soundoffuzz" class="cls-1">
    <g id="Groupe_537" data-name="Groupe 537" transform="translate(-1228.83 -301)">
      <g id="Groupe_294" data-name="Groupe 294" transform="translate(1310.506 -1494.255)">
        <circle id="Ellipse_18" data-name="Ellipse 18" class="cls-2" cx="40.255" cy="40.255" r="40.255" transform="translate(-68.187 1809.745)"/>
        <g id="Ellipse_19" data-name="Ellipse 19" class="cls-3" transform="translate(-37.11 1895.211)">
          <ellipse class="cls-6" cx="11.813" cy="10.871" rx="11.813" ry="10.871"/>
          <ellipse class="cls-7" cx="11.813" cy="10.871" rx="9.813" ry="8.871"/>
        </g>
        <path id="Tracé_424" data-name="Tracé 424" class="cls-2" d="M-22.463,1883.284a8.635,8.635,0,0,0-8.634-8.634,8.634,8.634,0,0,0-8.634,8.634Z" transform="matrix(0.848, -0.53, 0.53, 0.848, -966.615, 298.782)"/>
        <path id="Tracé_425" data-name="Tracé 425" class="cls-2" d="M-44.368,1884.4a8.632,8.632,0,0,0-4.679-11.278,8.632,8.632,0,0,0-11.278,4.679Z" transform="translate(4.866 40.398)"/>
        <line id="Ligne_170" data-name="Ligne 170" class="cls-4" x1="3" y1="10" transform="translate(-43.176 1795.755)"/>
      </g>
      <g id="Tracé_431" data-name="Tracé 431" class="cls-5" transform="translate(1350.98 -1478.859)">
        <path class="cls-6" d="M -51.99478530883789 1862.293212890625 C -52.17428588867188 1862.293212890625 -52.59195709228516 1862.0224609375 -53.00690460205078 1861.2763671875 C -53.56685638427734 1860.269653320313 -53.88799667358398 1858.828491210938 -53.88799667358398 1857.322509765625 C -53.88799667358398 1855.785522460938 -53.56846618652344 1854.328002929688 -53.03324508666992 1853.423706054688 L -53.0180549621582 1853.39794921875 L -53.00362396240234 1853.371826171875 C -52.55774688720703 1852.564453125 -52.14875411987305 1852.35107421875 -51.99478530883789 1852.35107421875 C -51.86118698120117 1852.35107421875 -51.44915771484375 1852.597778320313 -51.02827453613281 1853.360595703125 C -50.46973419189453 1854.372802734375 -50.14939498901367 1855.81689453125 -50.14939498901367 1857.322509765625 C -50.14939498901367 1858.826416015625 -50.46978759765625 1860.269775390625 -51.02840423583984 1861.282592773438 C -51.44962692260742 1862.046142578125 -51.86137771606445 1862.293212890625 -51.99478530883789 1862.293212890625 Z"/>
        <path class="cls-8" d="M -51.99477767944336 1864.293212890625 C -54.16371917724609 1864.293212890625 -55.88800048828125 1861.164306640625 -55.88800048828125 1857.322509765625 C -55.88800048828125 1855.4423828125 -55.49505996704102 1853.656494140625 -54.75441360473633 1852.405029296875 C -54.01507186889648 1851.066162109375 -53.03013229370117 1850.35107421875 -51.99477767944336 1850.35107421875 C -49.87497711181641 1850.35107421875 -48.14939117431641 1853.47607421875 -48.14939117431641 1857.322509765625 C -48.14939117431641 1861.164306640625 -49.87497711181641 1864.293212890625 -51.99477767944336 1864.293212890625 Z"/>
      </g>
      <g id="Tracé_432" data-name="Tracé 432" class="cls-5" transform="translate(1338.626 -1478.859)">
        <path class="cls-6" d="M -51.99478530883789 1862.293579101563 C -52.17426681518555 1862.293579101563 -52.59192657470703 1862.022705078125 -53.00688552856445 1861.276611328125 C -53.56684494018555 1860.269897460938 -53.88799667358398 1858.828735351563 -53.88799667358398 1857.322631835938 C -53.88799667358398 1855.78564453125 -53.56846618652344 1854.328125 -53.03324508666992 1853.423828125 L -53.01809692382813 1853.398193359375 L -53.00370407104492 1853.3720703125 C -52.55768585205078 1852.564575195313 -52.14871597290039 1852.351196289063 -51.99478530883789 1852.351196289063 C -51.86118698120117 1852.351196289063 -51.44915771484375 1852.597900390625 -51.02827453613281 1853.360717773438 C -50.46973419189453 1854.373046875 -50.14939498901367 1855.817016601563 -50.14939498901367 1857.322631835938 C -50.14939498901367 1858.826538085938 -50.46978759765625 1860.27001953125 -51.02842712402344 1861.282836914063 C -51.44966506958008 1862.046508789063 -51.86138534545898 1862.293579101563 -51.99478530883789 1862.293579101563 Z"/>
        <path class="cls-8" d="M -51.99477767944336 1864.293579101563 C -54.16371917724609 1864.293579101563 -55.88800048828125 1861.164428710938 -55.88800048828125 1857.322631835938 C -55.88800048828125 1855.442749023438 -55.49505996704102 1853.656616210938 -54.75441360473633 1852.405151367188 C -54.01507186889648 1851.066528320313 -53.03013229370117 1850.351196289063 -51.99477767944336 1850.351196289063 C -49.87497711181641 1850.351196289063 -48.14939117431641 1853.476196289063 -48.14939117431641 1857.322631835938 C -48.14939117431641 1861.164428710938 -49.87497711181641 1864.293579101563 -51.99477767944336 1864.293579101563 Z"/>
      </g>
    </g>
  </g>
</svg>
