<svg xmlns="http://www.w3.org/2000/svg" xmlns:xlink="http://www.w3.org/1999/xlink" width="95" height="124" viewBox="0 0 95 124">
  <defs>
    <style>
      .cls-1 {
        clip-path: url(#clip-prune-ulir);
      }

      .cls-2, .cls-4, .cls-7 {
        fill: none;
      }

      .cls-2, .cls-3, .cls-4 {
        stroke: #fff;
        stroke-width: 4px;
      }

      .cls-2, .cls-3, .cls-5 {
        stroke-miterlimit: 10;
      }

      .cls-3, .cls-8 {
        fill: #fff;
      }

      .cls-5 {
        fill: #161615;
      }

      .cls-6, .cls-8 {
        stroke: none;
      }
    </style>
    <clipPath id="clip-prune-ulir">
      <rect width="95" height="124"/>
    </clipPath>
  </defs>
  <g id="prune-ulir" class="cls-1">
    <g id="Groupe_408" data-name="Groupe 408" transform="translate(-1232.83 -309)">
      <g id="Groupe_294" data-name="Groupe 294" transform="translate(1310.506 -1494.255)">
        <circle id="Ellipse_18" data-name="Ellipse 18" class="cls-2" cx="40.255" cy="40.255" r="40.255" transform="translate(-75.187 1809.745)"/>
        <g id="Ellipse_19" data-name="Ellipse 19" class="cls-3" transform="translate(-37.11 1895.211)">
          <ellipse class="cls-6" cx="11.813" cy="10.871" rx="11.813" ry="10.871"/>
          <ellipse class="cls-7" cx="11.813" cy="10.871" rx="9.813" ry="8.871"/>
        </g>
        <path id="Tracé_424" data-name="Tracé 424" class="cls-2" d="M-22.463,1883.284a8.635,8.635,0,0,0-8.634-8.634,8.634,8.634,0,0,0-8.634,8.634Z" transform="translate(-1398.958 647.533) rotate(-49)"/>
        <path id="Tracé_425" data-name="Tracé 425" class="cls-2" d="M-44.368,1884.4a8.632,8.632,0,0,0-4.679-11.278,8.632,8.632,0,0,0-11.278,4.679Z" transform="translate(6.866 40.398)"/>
        <line id="Ligne_170" data-name="Ligne 170" class="cls-4" x1="16" y1="18" transform="translate(-77.176 1798.755)"/>
      </g>
      <g id="Tracé_431" data-name="Tracé 431" class="cls-5" transform="translate(1340.98 -1478.873)">
        <path class="cls-6" d="M -52.00557327270508 1865.424560546875 C -52.17581176757813 1865.321899414063 -52.63333892822266 1864.893676757813 -53.07679748535156 1863.771850585938 C -53.59990692138672 1862.44873046875 -53.88799667358398 1860.717651367188 -53.88799667358398 1858.897827148438 C -53.88799667358398 1856.849609375 -53.54731750488281 1854.96923828125 -52.95331573486328 1853.73876953125 L -52.94176483154297 1853.71484375 L -52.93085479736328 1853.690673828125 C -52.53588104248047 1852.813720703125 -52.16195678710938 1852.461547851563 -52.00578308105469 1852.369506835938 C -51.83343887329102 1852.482177734375 -51.37595748901367 1852.932250976563 -50.93981552124023 1854.064086914063 C -50.43010711669922 1855.386596679688 -50.14939498901367 1857.103271484375 -50.14939498901367 1858.897827148438 C -50.14939498901367 1860.68994140625 -50.43001556396484 1862.405395507813 -50.93956756591797 1863.728271484375 C -51.37532806396484 1864.859497070313 -51.83247756958008 1865.310668945313 -52.00557327270508 1865.424560546875 Z"/>
        <path class="cls-8" d="M -51.99477767944336 1867.443481445313 C -54.16371917724609 1867.443481445313 -55.88800048828125 1863.607666015625 -55.88800048828125 1858.897827148438 C -55.88800048828125 1856.592895507813 -55.49505996704102 1854.403442382813 -54.75441360473633 1852.869262695313 C -54.01507186889648 1851.227783203125 -53.03013229370117 1850.35107421875 -51.99477767944336 1850.35107421875 C -49.87497711181641 1850.35107421875 -48.14939117431641 1854.182373046875 -48.14939117431641 1858.897827148438 C -48.14939117431641 1863.607666015625 -49.87497711181641 1867.443481445313 -51.99477767944336 1867.443481445313 Z"/>
      </g>
      <g id="Tracé_432" data-name="Tracé 432" class="cls-5" transform="translate(1328.626 -1478.873)">
        <path class="cls-6" d="M -52.00557708740234 1865.4248046875 C -52.17585372924805 1865.322021484375 -52.63338088989258 1864.893676757813 -53.07681655883789 1863.77197265625 C -53.59991455078125 1862.44873046875 -53.88799667358398 1860.717651367188 -53.88799667358398 1858.897827148438 C -53.88799667358398 1856.849609375 -53.54731750488281 1854.96923828125 -52.95331573486328 1853.73876953125 L -52.94177627563477 1853.71484375 L -52.93087768554688 1853.690673828125 C -52.53587341308594 1852.813720703125 -52.16192626953125 1852.461547851563 -52.00574493408203 1852.369506835938 C -51.83340835571289 1852.482177734375 -51.37594985961914 1852.932250976563 -50.93982696533203 1854.063842773438 C -50.43010711669922 1855.386474609375 -50.14939498901367 1857.103271484375 -50.14939498901367 1858.897827148438 C -50.14939498901367 1860.68994140625 -50.43001556396484 1862.405395507813 -50.93955612182617 1863.728271484375 C -51.37530899047852 1864.859619140625 -51.83244323730469 1865.310913085938 -52.00557708740234 1865.4248046875 Z"/>
        <path class="cls-8" d="M -51.99477767944336 1867.443725585938 C -54.16371917724609 1867.443725585938 -55.88800048828125 1863.607666015625 -55.88800048828125 1858.897827148438 C -55.88800048828125 1856.593139648438 -55.49505996704102 1854.403442382813 -54.75441360473633 1852.869262695313 C -54.01507186889648 1851.227905273438 -53.03013229370117 1850.35107421875 -51.99477767944336 1850.35107421875 C -49.87497711181641 1850.35107421875 -48.14939117431641 1854.18212890625 -48.14939117431641 1858.897827148438 C -48.14939117431641 1863.607666015625 -49.87497711181641 1867.443725585938 -51.99477767944336 1867.443725585938 Z"/>
      </g>
    </g>
  </g>
</svg>
