<svg xmlns="http://www.w3.org/2000/svg" xmlns:xlink="http://www.w3.org/1999/xlink" width="88" height="135" viewBox="0 0 88 135">
  <defs>
    <style>
      .cls-1 {
        clip-path: url(#clip-prune-home4);
      }

      .cls-2, .cls-3, .cls-7 {
        fill: none;
      }

      .cls-2, .cls-3, .cls-4 {
        stroke-miterlimit: 10;
      }

      .cls-3, .cls-4 {
        stroke: #fff;
        stroke-width: 4px;
      }

      .cls-4, .cls-6 {
        fill: #fff;
      }

      .cls-5, .cls-6 {
        stroke: none;
      }
    </style>
    <clipPath id="clip-prune-home4">
      <rect width="88" height="135"/>
    </clipPath>
  </defs>
  <g id="prune-home4" class="cls-1">
    <g id="Groupe_489" data-name="Groupe 489" transform="translate(-1684.394 -2299.805) rotate(-3)">
      <g id="Groupe_295" data-name="Groupe 295" transform="translate(1629.676 595.745)">
        <g id="Tracé_420" data-name="Tracé 420" class="cls-2" transform="translate(-1.922 9.887)">
          <path class="cls-5" d="M-59.088,1851.571a15.388,15.388,0,0,1,1.071-6.055c.7-1.646,1.629-2.526,2.607-2.526,2,0,3.631,3.847,3.631,8.581s-1.629,8.58-3.631,8.58C-57.459,1860.151-59.088,1856.3-59.088,1851.571Z"/>
          <path class="cls-6" d="M -55.41093826293945 1860.150756835938 C -57.45891571044922 1860.150756835938 -59.08800888061523 1856.297119140625 -59.08800888061523 1851.570922851563 C -59.08800888061523 1849.256713867188 -58.71564483642578 1847.056884765625 -58.0174674987793 1845.516357421875 C -57.31929016113281 1843.870239257813 -56.38838577270508 1842.990356445313 -55.41093826293945 1842.990356445313 C -53.40947723388672 1842.990356445313 -51.7803840637207 1846.837036132813 -51.7803840637207 1851.570922851563 C -51.7803840637207 1856.297119140625 -53.40947723388672 1860.150756835938 -55.41093826293945 1860.150756835938 Z"/>
        </g>
        <g id="Tracé_509" data-name="Tracé 509" class="cls-2" transform="translate(8.064 10.41)">
          <path class="cls-5" d="M-59.088,1851.571a15.388,15.388,0,0,1,1.071-6.055c.7-1.646,1.629-2.526,2.607-2.526,2,0,3.631,3.847,3.631,8.581s-1.629,8.58-3.631,8.58C-57.459,1860.151-59.088,1856.3-59.088,1851.571Z"/>
          <path class="cls-6" d="M -55.41093826293945 1860.150756835938 C -57.45891571044922 1860.150756835938 -59.08800888061523 1856.297119140625 -59.08800888061523 1851.570922851563 C -59.08800888061523 1849.256713867188 -58.71564483642578 1847.056884765625 -58.0174674987793 1845.516357421875 C -57.31929016113281 1843.870239257813 -56.38838577270508 1842.990356445313 -55.41093826293945 1842.990356445313 C -53.40947723388672 1842.990356445313 -51.7803840637207 1846.837036132813 -51.7803840637207 1851.570922851563 C -51.7803840637207 1856.297119140625 -53.40947723388672 1860.150756835938 -55.41093826293945 1860.150756835938 Z"/>
        </g>
        <circle id="Ellipse_18" data-name="Ellipse 18" class="cls-3" cx="40.255" cy="40.255" r="40.255" transform="translate(-68.187 1816.745)"/>
        <g id="Ellipse_19" data-name="Ellipse 19" class="cls-4" transform="translate(-37.11 1895.211)">
          <ellipse class="cls-5" cx="11.813" cy="10.871" rx="11.813" ry="10.871"/>
          <ellipse class="cls-7" cx="11.813" cy="10.871" rx="9.813" ry="8.871"/>
        </g>
        <path id="Tracé_424" data-name="Tracé 424" class="cls-3" d="M-22.463,1883.284a8.635,8.635,0,0,0-8.634-8.634,8.634,8.634,0,0,0-8.634,8.634Z" transform="translate(17.614 41.749)"/>
        <path id="Tracé_425" data-name="Tracé 425" class="cls-3" d="M-44.368,1884.4a8.632,8.632,0,0,0-4.679-11.278,8.632,8.632,0,0,0-11.278,4.679Z" transform="translate(-698.596 159.692) rotate(-22)"/>
      </g>
      <path id="Tracé_428" data-name="Tracé 428" class="cls-3" d="M196.52,8.439a6.862,6.862,0,1,1,11.6,4.965s-4.142,4.084-4.042,6.485" transform="translate(1395.462 2387.196)"/>
    </g>
  </g>
</svg>
