<svg xmlns="http://www.w3.org/2000/svg" xmlns:xlink="http://www.w3.org/1999/xlink" width="95" height="124" viewBox="0 0 95 124">
  <defs>
    <style>
      .cls-1 {
        clip-path: url(#clip-prune-fafa);
      }

      .cls-2, .cls-4, .cls-7 {
        fill: none;
      }

      .cls-2, .cls-3, .cls-4 {
        stroke: #fff;
        stroke-width: 4px;
      }

      .cls-2, .cls-3, .cls-5 {
        stroke-miterlimit: 10;
      }

      .cls-3, .cls-8 {
        fill: #fff;
      }

      .cls-5 {
        fill: #161615;
      }

      .cls-6, .cls-8 {
        stroke: none;
      }
    </style>
    <clipPath id="clip-prune-fafa">
      <rect width="95" height="124"/>
    </clipPath>
  </defs>
  <g id="prune-fafa" class="cls-1">
    <g id="Groupe_575" data-name="Groupe 575" transform="translate(-1256.83 -308)">
      <g id="Groupe_294" data-name="Groupe 294" transform="translate(1313.506 -1495.255)">
        <circle id="Ellipse_18" data-name="Ellipse 18" class="cls-2" cx="40.255" cy="40.255" r="40.255" transform="translate(-49.187 1815.745)"/>
        <g id="Ellipse_19" data-name="Ellipse 19" class="cls-3" transform="translate(-18.11 1896.211)">
          <ellipse class="cls-6" cx="11.813" cy="10.871" rx="11.813" ry="10.871"/>
          <ellipse class="cls-7" cx="11.813" cy="10.871" rx="9.813" ry="8.871"/>
        </g>
        <path id="Tracé_424" data-name="Tracé 424" class="cls-2" d="M-22.463,1883.284a8.635,8.635,0,0,0-8.634-8.634,8.634,8.634,0,0,0-8.634,8.634Z" transform="translate(36.811 41.749)"/>
        <path id="Tracé_425" data-name="Tracé 425" class="cls-2" d="M-44.368,1884.4a8.632,8.632,0,0,0-4.679-11.278,8.632,8.632,0,0,0-11.278,4.679Z" transform="translate(23.866 40.398)"/>
        <line id="Ligne_170" data-name="Ligne 170" class="cls-4" y1="7" x2="14" transform="translate(14.824 1815.755)"/>
      </g>
      <g id="Tracé_431" data-name="Tracé 431" class="cls-5" transform="translate(1364.98 -1473.217)">
        <path class="cls-6" d="M -51.9975700378418 1863.650268554688 C -52.07110595703125 1863.644897460938 -52.49655151367188 1863.438232421875 -52.9708251953125 1862.502563476563 C -53.55370712280273 1861.352661132813 -53.88799667358398 1859.712036132813 -53.88799667358398 1858.001220703125 C -53.88799667358398 1856.228637695313 -53.56215667724609 1854.607788085938 -52.99403762817383 1853.55419921875 L -52.98059463500977 1853.529296875 L -52.96786499023438 1853.504028320313 C -52.48854446411133 1852.551513671875 -52.05941772460938 1852.35107421875 -51.99478530883789 1852.35107421875 C -51.91147613525391 1852.36572265625 -51.45357513427734 1852.6455078125 -50.98372650146484 1853.657958984375 C -50.44569396972656 1854.817260742188 -50.14939498901367 1856.359741210938 -50.14939498901367 1858.001220703125 C -50.14939498901367 1859.639404296875 -50.44524765014648 1861.180053710938 -50.98243713378906 1862.33935546875 C -51.44841384887695 1863.344970703125 -51.90348815917969 1863.63037109375 -51.9975700378418 1863.650268554688 Z"/>
        <path class="cls-8" d="M -51.99477767944336 1865.650390625 C -54.16371917724609 1865.650390625 -55.88800048828125 1862.21728515625 -55.88800048828125 1858.001220703125 C -55.88800048828125 1855.93798828125 -55.49505996704102 1853.978515625 -54.75441360473633 1852.60498046875 C -54.01507186889648 1851.1357421875 -53.03013229370117 1850.35107421875 -51.99477767944336 1850.35107421875 C -49.87497711181641 1850.35107421875 -48.14939117431641 1853.7802734375 -48.14939117431641 1858.001220703125 C -48.14939117431641 1862.21728515625 -49.87497711181641 1865.650390625 -51.99477767944336 1865.650390625 Z"/>
      </g>
      <g id="Tracé_432" data-name="Tracé 432" class="cls-5" transform="translate(1352.626 -1473.218)">
        <path class="cls-6" d="M -51.99760437011719 1863.650756835938 C -52.07124328613281 1863.645385742188 -52.49657821655273 1863.4384765625 -52.97079467773438 1862.5029296875 C -53.55368423461914 1861.352905273438 -53.88799667358398 1859.712036132813 -53.88799667358398 1858.001220703125 C -53.88799667358398 1856.228515625 -53.56221771240234 1854.607788085938 -52.99417495727539 1853.5546875 L -52.98066711425781 1853.529663085938 L -52.96786499023438 1853.504272460938 C -52.48854446411133 1852.5517578125 -52.05941772460938 1852.351318359375 -51.99478530883789 1852.351318359375 C -51.91147613525391 1852.365966796875 -51.45365524291992 1852.645629882813 -50.98380661010742 1853.657836914063 C -50.44572448730469 1854.817138671875 -50.14939498901367 1856.359619140625 -50.14939498901367 1858.001220703125 C -50.14939498901367 1859.639282226563 -50.44518661499023 1861.179809570313 -50.98228454589844 1862.339233398438 C -51.4482536315918 1863.345092773438 -51.9034538269043 1863.630859375 -51.99760437011719 1863.650756835938 Z"/>
        <path class="cls-8" d="M -51.99477767944336 1865.65087890625 C -54.16371917724609 1865.65087890625 -55.88800048828125 1862.21728515625 -55.88800048828125 1858.001220703125 C -55.88800048828125 1855.9384765625 -55.49505996704102 1853.978271484375 -54.75441360473633 1852.605224609375 C -54.01507186889648 1851.135986328125 -53.03013229370117 1850.351318359375 -51.99477767944336 1850.351318359375 C -49.87497711181641 1850.351318359375 -48.14939117431641 1853.7802734375 -48.14939117431641 1858.001220703125 C -48.14939117431641 1862.21728515625 -49.87497711181641 1865.65087890625 -51.99477767944336 1865.65087890625 Z"/>
      </g>
    </g>
  </g>
</svg>
