<svg xmlns="http://www.w3.org/2000/svg" xmlns:xlink="http://www.w3.org/1999/xlink" width="95" height="124" viewBox="0 0 95 124">
  <defs>
    <style>
      .cls-1 {
        clip-path: url(#clip-prune-jam);
      }

      .cls-2, .cls-3, .cls-7 {
        fill: none;
      }

      .cls-2, .cls-3, .cls-4 {
        stroke: #fff;
        stroke-width: 4px;
      }

      .cls-2, .cls-3, .cls-4, .cls-5 {
        stroke-miterlimit: 10;
      }

      .cls-2 {
        opacity: 0.85;
      }

      .cls-4, .cls-8 {
        fill: #fff;
      }

      .cls-5 {
        fill: #161615;
      }

      .cls-6, .cls-8 {
        stroke: none;
      }
    </style>
    <clipPath id="clip-prune-jam">
      <rect width="95" height="124"/>
    </clipPath>
  </defs>
  <g id="prune-jam" class="cls-1">
    <g id="Groupe_380" data-name="Groupe 380" transform="translate(-1234.83 -318)">
      <g id="Groupe_294" data-name="Groupe 294" transform="translate(1310.506 -1484.255)">
        <path id="Tracé_423" data-name="Tracé 423" class="cls-2" d="M-49.235,1818.862s-5.848-2.715-5.365-7.378,5.586-4.271,5.586-4.271" transform="translate(946.967 272.811) rotate(30)"/>
        <circle id="Ellipse_18" data-name="Ellipse 18" class="cls-3" cx="40.255" cy="40.255" r="40.255" transform="translate(-68.187 1816.745)"/>
        <g id="Ellipse_19" data-name="Ellipse 19" class="cls-4" transform="translate(-37.11 1895.211)">
          <ellipse class="cls-6" cx="11.813" cy="10.871" rx="11.813" ry="10.871"/>
          <ellipse class="cls-7" cx="11.813" cy="10.871" rx="9.813" ry="8.871"/>
        </g>
        <path id="Tracé_424" data-name="Tracé 424" class="cls-3" d="M-22.463,1883.284a8.635,8.635,0,0,0-8.634-8.634,8.634,8.634,0,0,0-8.634,8.634Z" transform="translate(17.614 40.749)"/>
        <path id="Tracé_425" data-name="Tracé 425" class="cls-3" d="M-44.368,1884.4a8.632,8.632,0,0,0-4.679-11.278,8.632,8.632,0,0,0-11.278,4.679Z" transform="translate(-690.596 159.692) rotate(-22)"/>
      </g>
      <g id="Tracé_431" data-name="Tracé 431" class="cls-5" transform="translate(1343.923 -1455.121)">
        <path class="cls-6" d="M -51.99478530883789 1857.55419921875 C -53.02101516723633 1857.55419921875 -53.88799667358398 1856.362915039063 -53.88799667358398 1854.952880859375 C -53.88799667358398 1854.179931640625 -53.66107559204102 1853.483520507813 -53.26541519165039 1853.042236328125 L -53.24247741699219 1853.016723632813 L -53.22042465209961 1852.990356445313 C -52.97645568847656 1852.69873046875 -52.5657844543457 1852.35107421875 -51.99478530883789 1852.35107421875 C -51.42462539672852 1852.35107421875 -51.00878524780273 1852.746704101563 -50.8116569519043 1852.982543945313 C -50.39077758789063 1853.486083984375 -50.14939498901367 1854.204223632813 -50.14939498901367 1854.952880859375 C -50.14939498901367 1855.700439453125 -50.3908576965332 1856.418212890625 -50.81186676025391 1856.921997070313 C -51.00914764404297 1857.158081054688 -51.42516708374023 1857.55419921875 -51.99478530883789 1857.55419921875 Z"/>
        <path class="cls-8" d="M -51.99478530883789 1859.55419921875 C -54.16371917724609 1859.55419921875 -55.88799667358398 1857.48876953125 -55.88799667358398 1854.952880859375 C -55.88799667358398 1853.7119140625 -55.49505233764648 1852.532958984375 -54.75441741943359 1851.70703125 C -54.01506423950195 1850.8232421875 -53.03012847900391 1850.35107421875 -51.99478530883789 1850.35107421875 C -49.87497329711914 1850.35107421875 -48.14939498901367 1852.413818359375 -48.14939498901367 1854.952880859375 C -48.14939498901367 1857.48876953125 -49.87497329711914 1859.55419921875 -51.99478530883789 1859.55419921875 Z"/>
      </g>
      <g id="Tracé_432" data-name="Tracé 432" class="cls-5" transform="translate(1331.568 -1455.121)">
        <path class="cls-6" d="M -51.99478530883789 1857.55419921875 C -53.02101516723633 1857.55419921875 -53.88799667358398 1856.362915039063 -53.88799667358398 1854.952880859375 C -53.88799667358398 1854.179931640625 -53.66107559204102 1853.483520507813 -53.26541519165039 1853.042236328125 L -53.24247741699219 1853.016723632813 L -53.22042465209961 1852.990356445313 C -52.97645568847656 1852.69873046875 -52.5657844543457 1852.35107421875 -51.99478530883789 1852.35107421875 C -51.42462539672852 1852.35107421875 -51.00878524780273 1852.746704101563 -50.8116569519043 1852.982543945313 C -50.39077758789063 1853.486083984375 -50.14939498901367 1854.204223632813 -50.14939498901367 1854.952880859375 C -50.14939498901367 1855.700439453125 -50.3908576965332 1856.418212890625 -50.81186676025391 1856.921997070313 C -51.00914764404297 1857.158081054688 -51.42516708374023 1857.55419921875 -51.99478530883789 1857.55419921875 Z"/>
        <path class="cls-8" d="M -51.99478530883789 1859.55419921875 C -54.16371917724609 1859.55419921875 -55.88799667358398 1857.48876953125 -55.88799667358398 1854.952880859375 C -55.88799667358398 1853.7119140625 -55.49505233764648 1852.532958984375 -54.75441741943359 1851.70703125 C -54.01506423950195 1850.8232421875 -53.03012847900391 1850.35107421875 -51.99478530883789 1850.35107421875 C -49.87497329711914 1850.35107421875 -48.14939498901367 1852.413818359375 -48.14939498901367 1854.952880859375 C -48.14939498901367 1857.48876953125 -49.87497329711914 1859.55419921875 -51.99478530883789 1859.55419921875 Z"/>
      </g>
    </g>
  </g>
</svg>
