<svg xmlns="http://www.w3.org/2000/svg" xmlns:xlink="http://www.w3.org/1999/xlink" width="95" height="124" viewBox="0 0 95 124">
  <defs>
    <style>
      .cls-1 {
        clip-path: url(#clip-prune-sonisphere);
      }

      .cls-2, .cls-4, .cls-7 {
        fill: none;
      }

      .cls-2, .cls-3, .cls-4 {
        stroke: #fff;
        stroke-width: 4px;
      }

      .cls-2, .cls-3, .cls-5 {
        stroke-miterlimit: 10;
      }

      .cls-3, .cls-8 {
        fill: #fff;
      }

      .cls-5 {
        fill: #161615;
      }

      .cls-6, .cls-8 {
        stroke: none;
      }
    </style>
    <clipPath id="clip-prune-sonisphere">
      <rect width="95" height="124"/>
    </clipPath>
  </defs>
  <g id="prune-sonisphere" class="cls-1">
    <g id="Groupe_575" data-name="Groupe 575" transform="translate(-1256.83 -307)">
      <g id="Groupe_294" data-name="Groupe 294" transform="translate(1313.506 -1494.255)">
        <circle id="Ellipse_18" data-name="Ellipse 18" class="cls-2" cx="40.255" cy="40.255" r="40.255" transform="translate(-49.187 1815.745)"/>
        <g id="Ellipse_19" data-name="Ellipse 19" class="cls-3" transform="translate(-18.11 1896.211)">
          <ellipse class="cls-6" cx="11.813" cy="10.871" rx="11.813" ry="10.871"/>
          <ellipse class="cls-7" cx="11.813" cy="10.871" rx="9.813" ry="8.871"/>
        </g>
        <path id="Tracé_424" data-name="Tracé 424" class="cls-2" d="M-22.463,1883.284a8.635,8.635,0,0,0-8.634-8.634,8.634,8.634,0,0,0-8.634,8.634Z" transform="translate(39.811 39.749)"/>
        <path id="Tracé_425" data-name="Tracé 425" class="cls-2" d="M-44.368,1884.4a8.632,8.632,0,0,0-4.679-11.278,8.632,8.632,0,0,0-11.278,4.679Z" transform="translate(-671.596 159.692) rotate(-22)"/>
        <path id="Tracé_532" data-name="Tracé 532" class="cls-4" d="M5.517,1818.189s6.59-10.523,15.43-6.314"/>
      </g>
      <g id="Tracé_431" data-name="Tracé 431" class="cls-5" transform="translate(1349.98 -1474.217)">
        <path class="cls-6" d="M -51.99478530883789 1858.800048828125 C -52.88847732543945 1858.800048828125 -53.88799667358398 1857.421264648438 -53.88799667358398 1855.575927734375 C -53.88799667358398 1854.60205078125 -53.62504577636719 1853.6875 -53.18459701538086 1853.129638671875 L -53.16400527954102 1853.103515625 L -53.14429473876953 1853.076782226563 C -52.90035629272461 1852.745727539063 -52.50291442871094 1852.35107421875 -51.99478530883789 1852.35107421875 C -51.49094772338867 1852.35107421875 -51.08492660522461 1852.800415039063 -50.88774490356445 1853.068237304688 C -50.41851425170898 1853.70556640625 -50.14939498901367 1854.61962890625 -50.14939498901367 1855.575927734375 C -50.14939498901367 1856.531127929688 -50.4185676574707 1857.444580078125 -50.88789749145508 1858.082153320313 C -51.0852165222168 1858.350341796875 -51.49141693115234 1858.800048828125 -51.99478530883789 1858.800048828125 Z"/>
        <path class="cls-8" d="M -51.99478530883789 1860.800048828125 C -54.16371917724609 1860.800048828125 -55.88799667358398 1858.455322265625 -55.88799667358398 1855.575927734375 C -55.88799667358398 1854.166748046875 -55.49505233764648 1852.82861328125 -54.75441741943359 1851.890380859375 C -54.01506423950195 1850.886962890625 -53.03012847900391 1850.35107421875 -51.99478530883789 1850.35107421875 C -49.87497329711914 1850.35107421875 -48.14939498901367 1852.693115234375 -48.14939498901367 1855.575927734375 C -48.14939498901367 1858.455322265625 -49.87497329711914 1860.800048828125 -51.99478530883789 1860.800048828125 Z"/>
      </g>
      <g id="Tracé_432" data-name="Tracé 432" class="cls-5" transform="translate(1337.626 -1474.218)">
        <path class="cls-6" d="M -51.99478530883789 1858.800415039063 C -52.88847732543945 1858.800415039063 -53.88799667358398 1857.42138671875 -53.88799667358398 1855.575927734375 C -53.88799667358398 1854.601928710938 -53.62515640258789 1853.687622070313 -53.18490600585938 1853.130249023438 L -53.16415405273438 1853.10400390625 L -53.14429473876953 1853.077026367188 C -52.90035629272461 1852.745971679688 -52.50291442871094 1852.351318359375 -51.99478530883789 1852.351318359375 C -51.49092483520508 1852.351318359375 -51.08489608764648 1852.800537109375 -50.88771438598633 1853.068359375 C -50.41850662231445 1853.705688476563 -50.14939498901367 1854.61962890625 -50.14939498901367 1855.575927734375 C -50.14939498901367 1856.531127929688 -50.41858673095703 1857.444702148438 -50.88794708251953 1858.082397460938 C -51.08528518676758 1858.3505859375 -51.49148559570313 1858.800415039063 -51.99478530883789 1858.800415039063 Z"/>
        <path class="cls-8" d="M -51.99478530883789 1850.351318359375 C -49.87497329711914 1850.351318359375 -48.14939498901367 1852.693237304688 -48.14939498901367 1855.575927734375 C -48.14939498901367 1858.455322265625 -49.87497329711914 1860.800415039063 -51.99478530883789 1860.800415039063 C -54.16371917724609 1860.800415039063 -55.88799667358398 1858.455322265625 -55.88799667358398 1855.575927734375 C -55.88799667358398 1854.167114257813 -55.49505233764648 1852.828369140625 -54.75441741943359 1851.890625 C -54.01507186889648 1850.88720703125 -53.03012847900391 1850.351318359375 -51.99478530883789 1850.351318359375 Z"/>
      </g>
    </g>
  </g>
</svg>
