<svg xmlns="http://www.w3.org/2000/svg" xmlns:xlink="http://www.w3.org/1999/xlink" width="95" height="124" viewBox="0 0 95 124">
  <defs>
    <style>
      .cls-1 {
        clip-path: url(#clip-prune-olympic);
      }

      .cls-2, .cls-3, .cls-7 {
        fill: none;
      }

      .cls-2, .cls-3, .cls-4 {
        stroke: #fff;
        stroke-width: 4px;
      }

      .cls-2, .cls-3, .cls-4, .cls-5 {
        stroke-miterlimit: 10;
      }

      .cls-2 {
        opacity: 0.85;
      }

      .cls-4, .cls-8 {
        fill: #fff;
      }

      .cls-5 {
        fill: #161615;
      }

      .cls-6, .cls-8 {
        stroke: none;
      }
    </style>
    <clipPath id="clip-prune-olympic">
      <rect width="95" height="124"/>
    </clipPath>
  </defs>
  <g id="prune-olympic" class="cls-1">
    <g id="Groupe_380" data-name="Groupe 380" transform="translate(-1234.83 -318)">
      <g id="Groupe_294" data-name="Groupe 294" transform="translate(1310.506 -1484.255)">
        <path id="Tracé_423" data-name="Tracé 423" class="cls-2" d="M-49.235,1818.862s-5.848-2.715-5.365-7.378,5.586-4.271,5.586-4.271" transform="translate(8.392 0)"/>
        <circle id="Ellipse_18" data-name="Ellipse 18" class="cls-3" cx="40.255" cy="40.255" r="40.255" transform="translate(-68.187 1816.745)"/>
        <g id="Ellipse_19" data-name="Ellipse 19" class="cls-4" transform="translate(-37.11 1895.211)">
          <ellipse class="cls-6" cx="11.813" cy="10.871" rx="11.813" ry="10.871"/>
          <ellipse class="cls-7" cx="11.813" cy="10.871" rx="9.813" ry="8.871"/>
        </g>
        <path id="Tracé_424" data-name="Tracé 424" class="cls-3" d="M-22.463,1883.284a8.635,8.635,0,0,0-8.634-8.634,8.634,8.634,0,0,0-8.634,8.634Z" transform="translate(17.614 40.749)"/>
        <path id="Tracé_425" data-name="Tracé 425" class="cls-3" d="M-44.368,1884.4a8.632,8.632,0,0,0-4.679-11.278,8.632,8.632,0,0,0-11.278,4.679Z" transform="translate(-690.596 159.692) rotate(-22)"/>
      </g>
      <g id="Tracé_431" data-name="Tracé 431" class="cls-5" transform="translate(1330.923 -1461.892)">
        <path class="cls-6" d="M -51.99478530883789 1863.325561523438 C -52.12201690673828 1863.325561523438 -52.54642486572266 1863.044555664063 -52.97875595092773 1862.209716796875 C -53.55658721923828 1861.093994140625 -53.88799667358398 1859.500732421875 -53.88799667358398 1857.838745117188 C -53.88799667358398 1856.116577148438 -53.56534576416016 1854.543334960938 -53.00277709960938 1853.522583007813 L -52.98889541625977 1853.497314453125 L -52.97574615478516 1853.471801757813 C -52.54458618164063 1852.633178710938 -52.12156677246094 1852.350952148438 -51.99478530883789 1852.350952148438 C -51.93741607666016 1852.350952148438 -51.52061462402344 1852.555419921875 -51.05614471435547 1853.45947265625 C -50.47989654541016 1854.581176757813 -50.14939498901367 1856.177368164063 -50.14939498901367 1857.838745117188 C -50.14939498901367 1859.498291015625 -50.47993469238281 1861.093627929688 -51.05625534057617 1862.2158203125 C -51.48970413208008 1863.059814453125 -51.91350555419922 1863.325561523438 -51.99478530883789 1863.325561523438 Z"/>
        <path class="cls-8" d="M -51.99477767944336 1865.325561523438 C -54.16371917724609 1865.325561523438 -55.88800048828125 1861.964965820313 -55.88800048828125 1857.838745117188 C -55.88800048828125 1855.819458007813 -55.49505996704102 1853.901245117188 -54.75441360473633 1852.557250976563 C -54.01507186889648 1851.119262695313 -53.03013229370117 1850.350952148438 -51.99477767944336 1850.350952148438 C -49.87497711181641 1850.350952148438 -48.14939117431641 1853.707397460938 -48.14939117431641 1857.838745117188 C -48.14939117431641 1861.964965820313 -49.87497711181641 1865.325561523438 -51.99477767944336 1865.325561523438 Z"/>
      </g>
      <g id="Tracé_432" data-name="Tracé 432" class="cls-5" transform="translate(1318.568 -1461.892)">
        <path class="cls-6" d="M -51.99478530883789 1863.325561523438 C -52.12201690673828 1863.325561523438 -52.54642486572266 1863.044555664063 -52.97875595092773 1862.209716796875 C -53.55658721923828 1861.093994140625 -53.88799667358398 1859.500732421875 -53.88799667358398 1857.838745117188 C -53.88799667358398 1856.116577148438 -53.56534576416016 1854.543334960938 -53.00277709960938 1853.522583007813 L -52.98889541625977 1853.497314453125 L -52.97574615478516 1853.471801757813 C -52.54458618164063 1852.633178710938 -52.12156677246094 1852.350952148438 -51.99478530883789 1852.350952148438 C -51.93741607666016 1852.350952148438 -51.52061462402344 1852.555419921875 -51.05614471435547 1853.45947265625 C -50.47989654541016 1854.581176757813 -50.14939498901367 1856.177368164063 -50.14939498901367 1857.838745117188 C -50.14939498901367 1859.498291015625 -50.47993469238281 1861.093627929688 -51.05625534057617 1862.2158203125 C -51.48970413208008 1863.059814453125 -51.91350555419922 1863.325561523438 -51.99478530883789 1863.325561523438 Z"/>
        <path class="cls-8" d="M -51.99477767944336 1865.325561523438 C -54.16371917724609 1865.325561523438 -55.88800048828125 1861.964965820313 -55.88800048828125 1857.838745117188 C -55.88800048828125 1855.819458007813 -55.49505996704102 1853.901245117188 -54.75441360473633 1852.557250976563 C -54.01507186889648 1851.119262695313 -53.03013229370117 1850.350952148438 -51.99477767944336 1850.350952148438 C -49.87497711181641 1850.350952148438 -48.14939117431641 1853.707397460938 -48.14939117431641 1857.838745117188 C -48.14939117431641 1861.964965820313 -49.87497711181641 1865.325561523438 -51.99477767944336 1865.325561523438 Z"/>
      </g>
    </g>
  </g>
</svg>
