<svg xmlns="http://www.w3.org/2000/svg" xmlns:xlink="http://www.w3.org/1999/xlink" width="92" height="116" viewBox="0 0 92 116">
  <defs>
    <style>
      .cls-1 {
        clip-path: url(#clip-prune-robinson-mobile);
      }

      .cls-2, .cls-3, .cls-7 {
        fill: none;
      }

      .cls-2, .cls-3, .cls-4 {
        stroke: #fff;
        stroke-width: 4px;
      }

      .cls-2, .cls-3, .cls-4, .cls-5 {
        stroke-miterlimit: 10;
      }

      .cls-2 {
        opacity: 0.85;
      }

      .cls-4, .cls-8 {
        fill: #fff;
      }

      .cls-5 {
        fill: #161615;
      }

      .cls-6, .cls-8 {
        stroke: none;
      }
    </style>
    <clipPath id="clip-prune-robinson-mobile">
      <rect width="92" height="116"/>
    </clipPath>
  </defs>
  <g id="prune-robinson-mobile" class="cls-1">
    <g id="Groupe_546" data-name="Groupe 546" transform="translate(-1236.319 -327)">
      <g id="Groupe_294" data-name="Groupe 294" transform="translate(1310.506 -1484.255)">
        <path id="Tracé_423" data-name="Tracé 423" class="cls-2" d="M-49.235,1818.862s-5.848-2.715-5.365-7.378,5.586-4.271,5.586-4.271" transform="matrix(-0.326, 0.946, -0.946, -0.326, 1642.956, 2459.298)"/>
        <path id="Tracé_526" data-name="Tracé 526" class="cls-2" d="M-49.235,1818.862s-5.848-2.715-5.365-7.378,5.586-4.271,5.586-4.271" transform="matrix(-0.326, 0.946, -0.946, -0.326, 1639.956, 2460.298)"/>
        <circle id="Ellipse_18" data-name="Ellipse 18" class="cls-3" cx="40.255" cy="40.255" r="40.255" transform="translate(-68.187 1816.745)"/>
        <g id="Ellipse_19" data-name="Ellipse 19" class="cls-4" transform="translate(-37.11 1895.211)">
          <ellipse class="cls-6" cx="11.813" cy="10.871" rx="11.813" ry="10.871"/>
          <ellipse class="cls-7" cx="11.813" cy="10.871" rx="9.813" ry="8.871"/>
        </g>
        <path id="Tracé_424" data-name="Tracé 424" class="cls-3" d="M-22.463,1883.284a8.635,8.635,0,0,0-8.634-8.634,8.634,8.634,0,0,0-8.634,8.634Z" transform="translate(17.614 41.749)"/>
        <path id="Tracé_425" data-name="Tracé 425" class="cls-3" d="M-44.368,1884.4a8.632,8.632,0,0,0-4.679-11.278,8.632,8.632,0,0,0-11.278,4.679Z" transform="translate(-693.596 161.692) rotate(-22)"/>
      </g>
      <g id="Tracé_431" data-name="Tracé 431" class="cls-5" transform="translate(1353.923 -1500.606)">
        <path class="cls-6" d="M -51.99478530883789 1860.849731445313 C -52.30930709838867 1860.849731445313 -52.71565628051758 1860.509643554688 -53.05527496337891 1859.962280273438 C -53.58447647094727 1859.109375 -53.88799667358398 1857.884155273438 -53.88799667358398 1856.600708007813 C -53.88799667358398 1855.291625976563 -53.58794403076172 1854.0556640625 -53.08535766601563 1853.29443359375 L -53.06805419921875 1853.268188476563 L -53.05158615112305 1853.241455078125 C -52.71329498291016 1852.6923828125 -52.30834579467773 1852.351196289063 -51.99478530883789 1852.351196289063 C -51.70761489868164 1852.351196289063 -51.3094367980957 1852.696655273438 -50.98037719726563 1853.231201171875 C -50.45227432250977 1854.089233398438 -50.14939498901367 1855.317260742188 -50.14939498901367 1856.600708007813 C -50.14939498901367 1857.882690429688 -50.45233535766602 1859.110229492188 -50.98053741455078 1859.968627929688 C -51.30986404418945 1860.50390625 -51.70798492431641 1860.849731445313 -51.99478530883789 1860.849731445313 Z"/>
        <path class="cls-8" d="M -51.99477767944336 1862.849731445313 C -54.16371917724609 1862.849731445313 -55.88800048828125 1860.044799804688 -55.88800048828125 1856.600708007813 C -55.88800048828125 1854.915405273438 -55.49505996704102 1853.314331054688 -54.75441360473633 1852.192504882813 C -54.01507186889648 1850.992309570313 -53.03013229370117 1850.351196289063 -51.99477767944336 1850.351196289063 C -49.87497711181641 1850.351196289063 -48.14939117431641 1853.152465820313 -48.14939117431641 1856.600708007813 C -48.14939117431641 1860.044799804688 -49.87497711181641 1862.849731445313 -51.99477767944336 1862.849731445313 Z"/>
      </g>
      <g id="Tracé_432" data-name="Tracé 432" class="cls-5" transform="translate(1341.568 -1500.606)">
        <path class="cls-6" d="M -51.99478530883789 1860.849731445313 C -52.30930709838867 1860.849731445313 -52.71565628051758 1860.509643554688 -53.05527496337891 1859.962280273438 C -53.58447647094727 1859.109375 -53.88799667358398 1857.884155273438 -53.88799667358398 1856.600708007813 C -53.88799667358398 1855.291625976563 -53.58794403076172 1854.0556640625 -53.08535766601563 1853.29443359375 L -53.06805419921875 1853.268188476563 L -53.05158615112305 1853.241455078125 C -52.71329498291016 1852.6923828125 -52.30834579467773 1852.351196289063 -51.99478530883789 1852.351196289063 C -51.70761489868164 1852.351196289063 -51.3094367980957 1852.696655273438 -50.98037719726563 1853.231201171875 C -50.45227432250977 1854.089233398438 -50.14939498901367 1855.317260742188 -50.14939498901367 1856.600708007813 C -50.14939498901367 1857.882690429688 -50.45233535766602 1859.110229492188 -50.98053741455078 1859.968627929688 C -51.30986404418945 1860.50390625 -51.70798492431641 1860.849731445313 -51.99478530883789 1860.849731445313 Z"/>
        <path class="cls-8" d="M -51.99477767944336 1862.849731445313 C -54.16371917724609 1862.849731445313 -55.88800048828125 1860.044799804688 -55.88800048828125 1856.600708007813 C -55.88800048828125 1854.915405273438 -55.49505996704102 1853.314331054688 -54.75441360473633 1852.192504882813 C -54.01507186889648 1850.992309570313 -53.03013229370117 1850.351196289063 -51.99477767944336 1850.351196289063 C -49.87497711181641 1850.351196289063 -48.14939117431641 1853.152465820313 -48.14939117431641 1856.600708007813 C -48.14939117431641 1860.044799804688 -49.87497711181641 1862.849731445313 -51.99477767944336 1862.849731445313 Z"/>
      </g>
    </g>
  </g>
</svg>
