<svg xmlns="http://www.w3.org/2000/svg" xmlns:xlink="http://www.w3.org/1999/xlink" width="85.819" height="83.726" viewBox="0 0 85.819 83.726">
  <defs>
    <clipPath id="clip-ps4">
      <rect width="85.819" height="83.726"/>
    </clipPath>
  </defs>
  <g id="ps4" clip-path="url(#clip-ps4)">
    <g id="Groupe_584" data-name="Groupe 584" transform="translate(276.894 -861.897)">
      <path id="Tracé_548" data-name="Tracé 548" d="M-244.465,896.79a6.186,6.186,0,0,0-6.179,6.18,6.186,6.186,0,0,0,6.179,6.178,6.186,6.186,0,0,0,6.179-6.178A6.186,6.186,0,0,0-244.465,896.79Zm0,9.516a3.341,3.341,0,0,1-3.337-3.337,3.342,3.342,0,0,1,3.337-3.339,3.342,3.342,0,0,1,3.337,3.339A3.341,3.341,0,0,1-244.465,906.306Z" transform="translate(-1.341 -1.095)" fill="#fff"/>
      <path id="Tracé_549" data-name="Tracé 549" d="M-219.546,896.79a6.186,6.186,0,0,0-6.179,6.18,6.186,6.186,0,0,0,6.179,6.178,6.186,6.186,0,0,0,6.179-6.178A6.186,6.186,0,0,0-219.546,896.79Zm0,9.516a3.341,3.341,0,0,1-3.338-3.337,3.342,3.342,0,0,1,3.338-3.339,3.342,3.342,0,0,1,3.337,3.339A3.341,3.341,0,0,1-219.546,906.306Z" transform="translate(-2.66 -1.095)" fill="#fff"/>
      <path id="Tracé_550" data-name="Tracé 550" d="M-231.969,900.88a3.416,3.416,0,0,0-3.411,3.412,3.416,3.416,0,0,0,3.411,3.412,3.416,3.416,0,0,0,3.413-3.412A3.416,3.416,0,0,0-231.969,900.88Zm0,3.983a.571.571,0,0,1-.57-.571.572.572,0,0,1,.57-.571.573.573,0,0,1,.572.571A.572.572,0,0,1-231.969,904.863Z" transform="translate(-2.149 -1.311)" fill="#fff"/>
      <path id="Tracé_551" data-name="Tracé 551" d="M-249.292,888.845h-4.7l-2.944,2.846,2.948,2.8h4.695Zm-1.894,3.755h-2.044l-.967-.921.972-.94h2.039Z" transform="translate(-1.008 -0.674)" fill="#fff"/>
      <path id="Tracé_552" data-name="Tracé 552" d="M-261.719,888.843h-4.7v5.649h4.7l2.942-2.848Zm-.761,3.755h-2.04v-1.861h2.045l.967.921Z" transform="translate(-0.507 -0.674)" fill="#fff"/>
      <path id="Tracé_553" data-name="Tracé 553" d="M-207.361,891.024a3.36,3.36,0,0,0-3.355-3.355,3.359,3.359,0,0,0-3.355,3.355,3.358,3.358,0,0,0,3.355,3.355A3.359,3.359,0,0,0-207.361,891.024Zm-3.355,1.46a1.462,1.462,0,0,1-1.46-1.46,1.463,1.463,0,0,1,1.46-1.461,1.463,1.463,0,0,1,1.461,1.461A1.462,1.462,0,0,1-210.716,892.485Z" transform="translate(-3.277 -0.612)" fill="#fff"/>
      <path id="Tracé_554" data-name="Tracé 554" d="M-199.562,887.669a3.36,3.36,0,0,0-3.355,3.355,3.359,3.359,0,0,0,3.355,3.355,3.358,3.358,0,0,0,3.355-3.355A3.359,3.359,0,0,0-199.562,887.669Zm0,4.816a1.462,1.462,0,0,1-1.461-1.46,1.463,1.463,0,0,1,1.461-1.461,1.463,1.463,0,0,1,1.46,1.461A1.462,1.462,0,0,1-199.562,892.485Z" transform="translate(-3.867 -0.612)" fill="#fff"/>
      <path id="Tracé_555" data-name="Tracé 555" d="M-196.254,890.819a11.313,11.313,0,0,0-4.765-9.271c-.225-.161-.459-.313-.7-.457v-.006l.034,0c-.014-.159-.418-3.91-5.718-4.866a7.586,7.586,0,0,0-6.9,2.634h-5.675v-1.143h-28v1.143h-5.508a7.587,7.587,0,0,0-6.9-2.634c-4.941.891-5.626,4.209-5.707,4.784-.238.144-.471.3-.7.456a11.316,11.316,0,0,0-4.763,9.029c-.358,1.084-8.634,26.519-1.663,39.09,2.575,4.644,5.7,4.983,7.872,4.452,6.705-1.646,12.873-14.123,13.152-20.961a6.435,6.435,0,0,1,.771-1.664,8.675,8.675,0,0,0,11.088-.571h12.072a8.677,8.677,0,0,0,11.088.571,6.407,6.407,0,0,1,.77,1.667c.28,6.838,6.448,19.313,13.152,20.958a6.328,6.328,0,0,0,1.513.189c1.972,0,4.337-.993,6.359-4.641C-188.557,917.3-195.631,892.9-196.254,890.819Zm-48.874-10.271h22.315v8.115a2.917,2.917,0,0,1-2.913,2.913h-16.488a2.917,2.917,0,0,1-2.914-2.913Zm47.279,47.649c-2.063,3.721-4.056,3.233-4.711,3.071-4.914-1.207-10.838-12.2-10.995-18.462l-.051-.346c-.214-.767-1.043-3.318-2.749-3.91a2.375,2.375,0,0,0-2.226.378,5.9,5.9,0,0,1-8.143-.549l-.411-.389h-14.3l-.411.389a5.9,5.9,0,0,1-8.142.548,2.38,2.38,0,0,0-2.227-.377c-1.707.591-2.535,3.141-2.748,3.909l-.052.346c-.156,6.262-6.08,17.256-10.995,18.462-.654.161-2.647.65-4.711-3.07-6.369-11.485,1.794-36.569,1.877-36.82l-.152-.05.29-.019-.008-.107a8.506,8.506,0,0,1,3.581-7.429,8.917,8.917,0,0,1,1.021-.624l.649-.335.207-1.441h-.011c.023-.134.364-1.81,3.394-2.356,2.7-.489,4.489,1.974,4.56,2.073l.425.605h6.916v6.971a5.762,5.762,0,0,0,5.755,5.754h16.488a5.761,5.761,0,0,0,5.754-5.754v-6.88h6.321l.733-.007.425-.593c.076-.1,1.876-2.561,4.565-2.078,3.031.546,3.373,2.221,3.4,2.354l-.011,0,.207,1.443.65.336a8.169,8.169,0,0,1,1.018.621,8.53,8.53,0,0,1,3.579,7.488l.592.021-.51.155C-198.931,891.776-191.47,916.695-197.848,928.2Z" fill="#fff"/>
      <path id="Tracé_556" data-name="Tracé 556" d="M-254.973,887.746v-4.695h-5.648v4.7l2.847,2.943Zm-3.754-.761v-2.039h1.86v2.044l-.92.968Z" transform="translate(-0.813 -0.368)" fill="#fff"/>
      <path id="Tracé_557" data-name="Tracé 557" d="M-260.623,895.479v4.7h5.648v-4.7l-2.845-2.943Zm3.754.761v2.041h-1.86v-2.045l.92-.968Z" transform="translate(-0.813 -0.869)" fill="#fff"/>
      <path id="Tracé_558" data-name="Tracé 558" d="M-205.139,893.245a3.359,3.359,0,0,0-3.355,3.356,3.358,3.358,0,0,0,3.355,3.355,3.359,3.359,0,0,0,3.355-3.355A3.36,3.36,0,0,0-205.139,893.245Zm0,4.816a1.461,1.461,0,0,1-1.46-1.46,1.463,1.463,0,0,1,1.46-1.461,1.464,1.464,0,0,1,1.461,1.461A1.463,1.463,0,0,1-205.139,898.061Z" transform="translate(-3.572 -0.907)" fill="#fff"/>
      <path id="Tracé_559" data-name="Tracé 559" d="M-205.139,888.8a3.36,3.36,0,0,0,3.355-3.355,3.359,3.359,0,0,0-3.355-3.355,3.358,3.358,0,0,0-3.355,3.355A3.359,3.359,0,0,0-205.139,888.8Zm0-4.816a1.463,1.463,0,0,1,1.461,1.46,1.463,1.463,0,0,1-1.461,1.461,1.462,1.462,0,0,1-1.46-1.461A1.461,1.461,0,0,1-205.139,883.987Z" transform="translate(-3.572 -0.317)" fill="#fff"/>
    </g>
  </g>
</svg>
