<svg xmlns="http://www.w3.org/2000/svg" xmlns:xlink="http://www.w3.org/1999/xlink" width="100" height="100" viewBox="0 0 100 100">
  <defs>
    <style>
      .cls-1 {
        clip-path: url(#clip-team);
      }

      .cls-2 {
        fill: none;
        stroke: #fff;
        stroke-miterlimit: 10;
        stroke-width: 2px;
      }
    </style>
    <clipPath id="clip-team">
      <rect width="100" height="100"/>
    </clipPath>
  </defs>
  <g id="team" class="cls-1">
    <g id="Groupe_371" data-name="Groupe 371" transform="translate(5.253 14.646)">
      <path id="Tracé_467" data-name="Tracé 467" class="cls-2" d="M56.2,15.5a14.152,14.152,0,1,1-14.15-14.15A14.15,14.15,0,0,1,56.2,15.5Z" transform="translate(3.089)"/>
      <circle id="Ellipse_25" data-name="Ellipse 25" class="cls-2" cx="12.123" cy="12.123" r="12.123" transform="translate(6.747 21.732)"/>
      <circle id="Ellipse_26" data-name="Ellipse 26" class="cls-2" cx="11.842" cy="11.842" r="11.842" transform="translate(59.895 14.084)"/>
      <path id="Tracé_468" data-name="Tracé 468" class="cls-2" d="M65.022,65.294H32.39V28.932H53.368Z" transform="translate(3.744 4.027)"/>
      <path id="Tracé_469" data-name="Tracé 469" class="cls-2" d="M53.123,36.458H68.055L61.995,64.2h0" transform="translate(6.772 5.126)"/>
      <path id="Tracé_470" data-name="Tracé 470" class="cls-2" d="M35.493,63.068H11.136L17.779,44.18H35.493Z" transform="translate(0.641 6.254)"/>
      <path id="Tracé_471" data-name="Tracé 471" class="cls-2" d="M33.305,16.22a8.87,8.87,0,0,0,7.96,5.828c6.142.233,8.006-5.828,8.006-5.828" transform="translate(3.878 2.171)"/>
      <path id="Tracé_472" data-name="Tracé 472" class="cls-2" d="M59.1,25.576a5.549,5.549,0,0,0,4.979,3.645c3.843.147,5.009-3.645,5.009-3.645" transform="translate(7.644 3.537)"/>
      <path id="Tracé_473" data-name="Tracé 473" class="cls-2" d="M12.383,33.273a5.55,5.55,0,0,0,4.981,3.645c3.843.146,5.009-3.645,5.009-3.645" transform="translate(0.823 4.661)"/>
    </g>
  </g>
</svg>
