<svg xmlns="http://www.w3.org/2000/svg" xmlns:xlink="http://www.w3.org/1999/xlink" width="82" height="80" viewBox="0 0 82 80">
  <defs>
    <style>
      .cls-1 {
        clip-path: url(#clip-trello);
      }

      .cls-2 {
        fill: #fff;
      }
    </style>
    <clipPath id="clip-trello">
      <rect width="82" height="80"/>
    </clipPath>
  </defs>
  <g id="trello" class="cls-1">
    <path id="trello-2" data-name="trello" class="cls-2" d="M57.33,0H8.19A8.19,8.19,0,0,0,0,8.19V57.33a8.191,8.191,0,0,0,8.19,8.19H57.33a8.193,8.193,0,0,0,8.19-8.19V8.19A8.191,8.191,0,0,0,57.33,0ZM28.5,49.632a3.932,3.932,0,0,1-3.931,3.931H12.449a3.934,3.934,0,0,1-3.931-3.931V12.449a3.932,3.932,0,0,1,3.931-3.931H24.57A3.932,3.932,0,0,1,28.5,12.449V49.632ZM57,33.252a3.934,3.934,0,0,1-3.931,3.931H40.95a3.934,3.934,0,0,1-3.931-3.931v-20.8A3.934,3.934,0,0,1,40.95,8.518H53.072A3.932,3.932,0,0,1,57,12.449v20.8Z" transform="translate(8.427 7.427)"/>
  </g>
</svg>
