<svg xmlns="http://www.w3.org/2000/svg" xmlns:xlink="http://www.w3.org/1999/xlink" width="82" height="80" viewBox="0 0 82 80">
  <defs>
    <style>
      .cls-1 {
        clip-path: url(#clip-wordpress);
      }

      .cls-2 {
        fill: #fff;
      }
    </style>
    <clipPath id="clip-wordpress">
      <rect width="82" height="80"/>
    </clipPath>
  </defs>
  <g id="wordpress" class="cls-1">
    <path id="wordpress-2" data-name="wordpress" class="cls-2" d="M70.809,22.51A35.613,35.613,0,0,1,57.468,70.334L68.335,38.912a33.648,33.648,0,0,0,2.7-12.744,27.927,27.927,0,0,0-.231-3.661m-26.323.346c2.134-.1,4.063-.346,4.063-.346a1.487,1.487,0,0,0-.221-2.965s-5.788.445-9.5.445c-3.509,0-9.4-.495-9.4-.495-1.929-.1-2.18,2.82-.247,2.919,0,0,1.781.2,3.71.3L38.434,37.9,30.617,61.248,17.659,22.758c2.141-.1,4.07-.33,4.07-.33a1.482,1.482,0,0,0-.214-2.955s-5.759.455-9.479.455c-.66,0-1.445-.026-2.276-.049A36.091,36.091,0,0,1,39.578,4.007a35.428,35.428,0,0,1,24.031,9.344c-.152-.01-.3-.03-.465-.03a6.161,6.161,0,0,0-5.976,6.313c0,2.935,1.692,5.419,3.5,8.348A18.754,18.754,0,0,1,63.6,37.8c0,3.018-1.168,6.577-2.708,11.474L57.346,61.1,44.483,22.807l0,.046ZM39.578,75.146A35.609,35.609,0,0,1,29.525,73.7L40.2,42.682,51.135,72.653a5.309,5.309,0,0,0,.257.491,35.612,35.612,0,0,1-11.814,2.009M3.994,39.578A35.4,35.4,0,0,1,7.078,25.1L24.044,71.6A35.6,35.6,0,0,1,3.994,39.578M39.578,0A39.578,39.578,0,1,0,79.157,39.578,39.631,39.631,0,0,0,39.578,0" transform="translate(1.822)"/>
  </g>
</svg>
