<svg xmlns="http://www.w3.org/2000/svg" xmlns:xlink="http://www.w3.org/1999/xlink" width="96" height="123" viewBox="0 0 96 123">
  <defs>
    <style>
      .cls-1 {
        clip-path: url(#clip-work-prune);
      }

      .cls-2 {
        fill: #161615;
      }

      .cls-2, .cls-3, .cls-4, .cls-5 {
        stroke-miterlimit: 10;
      }

      .cls-3, .cls-4, .cls-8 {
        fill: none;
      }

      .cls-3, .cls-4, .cls-5 {
        stroke: #fff;
        stroke-width: 4px;
      }

      .cls-3 {
        opacity: 0.85;
      }

      .cls-5, .cls-7 {
        fill: #fff;
      }

      .cls-6, .cls-7 {
        stroke: none;
      }
    </style>
    <clipPath id="clip-work-prune">
      <rect width="96" height="123"/>
    </clipPath>
  </defs>
  <g id="work-prune" class="cls-1">
    <g id="Groupe_466" data-name="Groupe 466" transform="translate(76.187 -1809.255)">
      <g id="Tracé_430" data-name="Tracé 430" class="cls-2" transform="translate(54.738 -3.351)">
        <path class="cls-6" d="M -51.99478530883789 1862.970458984375 C -52.13169479370117 1862.970458984375 -52.55459594726563 1862.706176757813 -52.9879150390625 1861.889282226563 C -53.5599250793457 1860.810913085938 -53.88799667358398 1859.269775390625 -53.88799667358398 1857.6611328125 C -53.88799667358398 1855.994506835938 -53.56895446777344 1854.473388671875 -53.01268768310547 1853.48779296875 L -52.99840545654297 1853.462524414063 L -52.9848747253418 1853.436767578125 C -52.55287551879883 1852.61669921875 -52.13127517700195 1852.351318359375 -51.99478530883789 1852.351318359375 C -51.89262771606445 1852.351318359375 -51.47823715209961 1852.605834960938 -51.04705429077148 1853.425170898438 C -50.47658538818359 1854.50927734375 -50.14939498901367 1856.05322265625 -50.14939498901367 1857.6611328125 C -50.14939498901367 1859.267456054688 -50.47662734985352 1860.810668945313 -51.04719543457031 1861.895385742188 C -51.47872543334961 1862.715698242188 -51.89278411865234 1862.970458984375 -51.99478530883789 1862.970458984375 Z"/>
        <path class="cls-7" d="M -51.99477767944336 1864.970458984375 C -54.16371917724609 1864.970458984375 -55.88800048828125 1861.689575195313 -55.88800048828125 1857.6611328125 C -55.88800048828125 1855.689819335938 -55.49505996704102 1853.817016601563 -54.75441360473633 1852.504760742188 C -54.01507186889648 1851.10107421875 -53.03013229370117 1850.351318359375 -51.99477767944336 1850.351318359375 C -49.87497711181641 1850.351318359375 -48.14939117431641 1853.628051757813 -48.14939117431641 1857.6611328125 C -48.14939117431641 1861.689575195313 -49.87497711181641 1864.970458984375 -51.99477767944336 1864.970458984375 Z"/>
      </g>
      <g id="Tracé_429" data-name="Tracé 429" class="cls-2" transform="translate(43.293 -3.351)">
        <path class="cls-6" d="M -51.99478530883789 1862.970458984375 C -52.13169479370117 1862.970458984375 -52.55459594726563 1862.706176757813 -52.9879150390625 1861.889282226563 C -53.5599250793457 1860.810913085938 -53.88799667358398 1859.269775390625 -53.88799667358398 1857.6611328125 C -53.88799667358398 1855.994506835938 -53.56895446777344 1854.473388671875 -53.01268768310547 1853.48779296875 L -52.99840545654297 1853.462524414063 L -52.9848747253418 1853.436767578125 C -52.55287551879883 1852.61669921875 -52.13127517700195 1852.351318359375 -51.99478530883789 1852.351318359375 C -51.89262771606445 1852.351318359375 -51.47823715209961 1852.605834960938 -51.04705429077148 1853.425170898438 C -50.47658538818359 1854.50927734375 -50.14939498901367 1856.05322265625 -50.14939498901367 1857.6611328125 C -50.14939498901367 1859.267456054688 -50.47662734985352 1860.810668945313 -51.04719543457031 1861.895385742188 C -51.47872543334961 1862.715698242188 -51.89278411865234 1862.970458984375 -51.99478530883789 1862.970458984375 Z"/>
        <path class="cls-7" d="M -51.99477767944336 1864.970458984375 C -54.16371917724609 1864.970458984375 -55.88800048828125 1861.689575195313 -55.88800048828125 1857.6611328125 C -55.88800048828125 1855.689819335938 -55.49505996704102 1853.817016601563 -54.75441360473633 1852.504760742188 C -54.01507186889648 1851.10107421875 -53.03013229370117 1850.351318359375 -51.99477767944336 1850.351318359375 C -49.87497711181641 1850.351318359375 -48.14939117431641 1853.628051757813 -48.14939117431641 1857.6611328125 C -48.14939117431641 1861.689575195313 -49.87497711181641 1864.970458984375 -51.99477767944336 1864.970458984375 Z"/>
      </g>
      <path id="Tracé_423" data-name="Tracé 423" class="cls-3" d="M-49.235,1818.862s-5.848-2.715-5.365-7.378,5.586-4.271,5.586-4.271" transform="matrix(-0.208, 0.978, -0.978, -0.208, 1701.211, 2249.674)"/>
      <circle id="Ellipse_18" data-name="Ellipse 18" class="cls-4" cx="40.255" cy="40.255" r="40.255" transform="translate(-68.187 1813.745)"/>
      <g id="Ellipse_19" data-name="Ellipse 19" class="cls-5" transform="translate(-38.506 1900.211)">
        <ellipse class="cls-6" cx="11.813" cy="10.871" rx="11.813" ry="10.871"/>
        <ellipse class="cls-8" cx="11.813" cy="10.871" rx="9.813" ry="8.871"/>
      </g>
      <path id="Tracé_424" data-name="Tracé 424" class="cls-4" d="M-22.463,1883.284a8.635,8.635,0,0,0-8.634-8.634,8.634,8.634,0,0,0-8.634,8.634Z" transform="translate(-917.949 279.563) rotate(-30)"/>
      <path id="Tracé_425" data-name="Tracé 425" class="cls-4" d="M-44.368,1884.4a8.632,8.632,0,0,0-4.679-11.278,8.632,8.632,0,0,0-11.278,4.679Z" transform="translate(-723.76 179.055) rotate(-23)"/>
    </g>
  </g>
</svg>
