<svg xmlns="http://www.w3.org/2000/svg" xmlns:xlink="http://www.w3.org/1999/xlink" width="82" height="80" viewBox="0 0 82 80">
  <defs>
    <style>
      .cls-1 {
        clip-path: url(#clip-xd);
      }

      .cls-2 {
        fill: #fff;
      }
    </style>
    <clipPath id="clip-xd">
      <rect width="82" height="80"/>
    </clipPath>
  </defs>
  <g id="xd" class="cls-1">
    <path id="adobexd" class="cls-2" d="M67.5.3H14.526A14.513,14.513,0,0,0,0,14.826V65.751A14.513,14.513,0,0,0,14.526,80.277H67.5A14.513,14.513,0,0,0,82.027,65.751V14.826A14.513,14.513,0,0,0,67.5.3ZM78.575,64.418A12.383,12.383,0,0,1,66.2,76.859H15.824A12.428,12.428,0,0,1,3.418,64.452V16.124A12.428,12.428,0,0,1,15.824,3.718H66.169A12.407,12.407,0,0,1,78.575,16.124V64.418ZM32.435,37.725,42,56.113c.171.273.068.547-.205.547H35.853a.671.671,0,0,1-.718-.444c-2.187-4.512-4.409-9.023-6.7-13.876h-.068c-2.051,4.58-4.306,9.4-6.494,13.91a.656.656,0,0,1-.615.376H15.619c-.342,0-.376-.273-.205-.478l9.365-17.841L15.722,20.26a.276.276,0,0,1,.205-.478h5.879a.538.538,0,0,1,.615.376c2.153,4.512,4.341,9.16,6.391,13.705h.068c1.982-4.512,4.17-9.194,6.289-13.671.171-.273.273-.444.615-.444h5.5c.273,0,.376.205.205.478l-9.057,17.5ZM43.68,43.3c0-7.963,5.3-14.184,13.705-14.184a15.156,15.156,0,0,1,1.777.068V20.123a.342.342,0,0,1,.342-.342h5.4c.273,0,.342.1.342.273V51.43a24.344,24.344,0,0,0,.171,3.349c0,.205-.068.273-.273.376a20.359,20.359,0,0,1-8.75,1.982C48.977,57.172,43.68,52.592,43.68,43.3Zm15.483-8.75A5.169,5.169,0,0,0,57.18,34.2c-4.306,0-7.314,3.315-7.314,8.818,0,6.289,3.076,8.818,6.938,8.818a6.448,6.448,0,0,0,2.358-.376Z" transform="translate(0.034 -0.313)"/>
  </g>
</svg>
